%TF.GenerationSoftware,KiCad,Pcbnew,9.0.5*%
%TF.CreationDate,2025-10-04T19:46:11-03:00*%
%TF.ProjectId,wis-controller-v0.3,7769732d-636f-46e7-9472-6f6c6c65722d,0.3*%
%TF.SameCoordinates,Original*%
%TF.FileFunction,Legend,Bot*%
%TF.FilePolarity,Positive*%
%FSLAX46Y46*%
G04 Gerber Fmt 4.6, Leading zero omitted, Abs format (unit mm)*
G04 Created by KiCad (PCBNEW 9.0.5) date 2025-10-04 19:46:11*
%MOMM*%
%LPD*%
G01*
G04 APERTURE LIST*
%ADD10C,0.150000*%
%ADD11C,0.100000*%
%ADD12C,0.125000*%
%ADD13C,0.120000*%
G04 APERTURE END LIST*
D10*
X140302400Y-43244714D02*
X140264304Y-43130428D01*
X140264304Y-43130428D02*
X140264304Y-42939952D01*
X140264304Y-42939952D02*
X140302400Y-42863761D01*
X140302400Y-42863761D02*
X140340495Y-42825666D01*
X140340495Y-42825666D02*
X140416685Y-42787571D01*
X140416685Y-42787571D02*
X140492876Y-42787571D01*
X140492876Y-42787571D02*
X140569066Y-42825666D01*
X140569066Y-42825666D02*
X140607161Y-42863761D01*
X140607161Y-42863761D02*
X140645257Y-42939952D01*
X140645257Y-42939952D02*
X140683352Y-43092333D01*
X140683352Y-43092333D02*
X140721447Y-43168523D01*
X140721447Y-43168523D02*
X140759542Y-43206618D01*
X140759542Y-43206618D02*
X140835733Y-43244714D01*
X140835733Y-43244714D02*
X140911923Y-43244714D01*
X140911923Y-43244714D02*
X140988114Y-43206618D01*
X140988114Y-43206618D02*
X141026209Y-43168523D01*
X141026209Y-43168523D02*
X141064304Y-43092333D01*
X141064304Y-43092333D02*
X141064304Y-42901856D01*
X141064304Y-42901856D02*
X141026209Y-42787571D01*
X141064304Y-42520904D02*
X140264304Y-42330428D01*
X140264304Y-42330428D02*
X140835733Y-42178047D01*
X140835733Y-42178047D02*
X140264304Y-42025666D01*
X140264304Y-42025666D02*
X141064304Y-41835190D01*
X140264304Y-41530427D02*
X141064304Y-41530427D01*
X141064304Y-41530427D02*
X141064304Y-41339951D01*
X141064304Y-41339951D02*
X141026209Y-41225665D01*
X141026209Y-41225665D02*
X140950019Y-41149475D01*
X140950019Y-41149475D02*
X140873828Y-41111380D01*
X140873828Y-41111380D02*
X140721447Y-41073284D01*
X140721447Y-41073284D02*
X140607161Y-41073284D01*
X140607161Y-41073284D02*
X140454780Y-41111380D01*
X140454780Y-41111380D02*
X140378590Y-41149475D01*
X140378590Y-41149475D02*
X140302400Y-41225665D01*
X140302400Y-41225665D02*
X140264304Y-41339951D01*
X140264304Y-41339951D02*
X140264304Y-41530427D01*
D11*
X112702142Y-45190895D02*
X112968809Y-44809942D01*
X113159285Y-45190895D02*
X113159285Y-44390895D01*
X113159285Y-44390895D02*
X112854523Y-44390895D01*
X112854523Y-44390895D02*
X112778333Y-44428990D01*
X112778333Y-44428990D02*
X112740238Y-44467085D01*
X112740238Y-44467085D02*
X112702142Y-44543276D01*
X112702142Y-44543276D02*
X112702142Y-44657561D01*
X112702142Y-44657561D02*
X112740238Y-44733752D01*
X112740238Y-44733752D02*
X112778333Y-44771847D01*
X112778333Y-44771847D02*
X112854523Y-44809942D01*
X112854523Y-44809942D02*
X113159285Y-44809942D01*
X112054523Y-45152800D02*
X112130714Y-45190895D01*
X112130714Y-45190895D02*
X112283095Y-45190895D01*
X112283095Y-45190895D02*
X112359285Y-45152800D01*
X112359285Y-45152800D02*
X112397381Y-45076609D01*
X112397381Y-45076609D02*
X112397381Y-44771847D01*
X112397381Y-44771847D02*
X112359285Y-44695657D01*
X112359285Y-44695657D02*
X112283095Y-44657561D01*
X112283095Y-44657561D02*
X112130714Y-44657561D01*
X112130714Y-44657561D02*
X112054523Y-44695657D01*
X112054523Y-44695657D02*
X112016428Y-44771847D01*
X112016428Y-44771847D02*
X112016428Y-44848038D01*
X112016428Y-44848038D02*
X112397381Y-44924228D01*
X111749762Y-44657561D02*
X111559286Y-45190895D01*
X111559286Y-45190895D02*
X111368809Y-44657561D01*
X110416428Y-45190895D02*
X110264047Y-45190895D01*
X110264047Y-45190895D02*
X110187857Y-45152800D01*
X110187857Y-45152800D02*
X110149761Y-45114704D01*
X110149761Y-45114704D02*
X110073571Y-45000419D01*
X110073571Y-45000419D02*
X110035476Y-44848038D01*
X110035476Y-44848038D02*
X110035476Y-44543276D01*
X110035476Y-44543276D02*
X110073571Y-44467085D01*
X110073571Y-44467085D02*
X110111666Y-44428990D01*
X110111666Y-44428990D02*
X110187857Y-44390895D01*
X110187857Y-44390895D02*
X110340238Y-44390895D01*
X110340238Y-44390895D02*
X110416428Y-44428990D01*
X110416428Y-44428990D02*
X110454523Y-44467085D01*
X110454523Y-44467085D02*
X110492619Y-44543276D01*
X110492619Y-44543276D02*
X110492619Y-44733752D01*
X110492619Y-44733752D02*
X110454523Y-44809942D01*
X110454523Y-44809942D02*
X110416428Y-44848038D01*
X110416428Y-44848038D02*
X110340238Y-44886133D01*
X110340238Y-44886133D02*
X110187857Y-44886133D01*
X110187857Y-44886133D02*
X110111666Y-44848038D01*
X110111666Y-44848038D02*
X110073571Y-44809942D01*
X110073571Y-44809942D02*
X110035476Y-44733752D01*
X109692618Y-45114704D02*
X109654523Y-45152800D01*
X109654523Y-45152800D02*
X109692618Y-45190895D01*
X109692618Y-45190895D02*
X109730714Y-45152800D01*
X109730714Y-45152800D02*
X109692618Y-45114704D01*
X109692618Y-45114704D02*
X109692618Y-45190895D01*
X108892619Y-45190895D02*
X109349762Y-45190895D01*
X109121190Y-45190895D02*
X109121190Y-44390895D01*
X109121190Y-44390895D02*
X109197381Y-44505180D01*
X109197381Y-44505180D02*
X109273571Y-44581371D01*
X109273571Y-44581371D02*
X109349762Y-44619466D01*
D12*
X109526999Y-46448464D02*
X109526999Y-46984178D01*
X109526999Y-46984178D02*
X109562714Y-47091321D01*
X109562714Y-47091321D02*
X109634142Y-47162750D01*
X109634142Y-47162750D02*
X109741285Y-47198464D01*
X109741285Y-47198464D02*
X109812714Y-47198464D01*
X109169856Y-47198464D02*
X109169856Y-46448464D01*
X109169856Y-46448464D02*
X108884142Y-46448464D01*
X108884142Y-46448464D02*
X108812713Y-46484178D01*
X108812713Y-46484178D02*
X108776999Y-46519892D01*
X108776999Y-46519892D02*
X108741285Y-46591321D01*
X108741285Y-46591321D02*
X108741285Y-46698464D01*
X108741285Y-46698464D02*
X108776999Y-46769892D01*
X108776999Y-46769892D02*
X108812713Y-46805607D01*
X108812713Y-46805607D02*
X108884142Y-46841321D01*
X108884142Y-46841321D02*
X109169856Y-46841321D01*
X108491285Y-46448464D02*
X108026999Y-46448464D01*
X108026999Y-46448464D02*
X108276999Y-46734178D01*
X108276999Y-46734178D02*
X108169856Y-46734178D01*
X108169856Y-46734178D02*
X108098428Y-46769892D01*
X108098428Y-46769892D02*
X108062713Y-46805607D01*
X108062713Y-46805607D02*
X108026999Y-46877035D01*
X108026999Y-46877035D02*
X108026999Y-47055607D01*
X108026999Y-47055607D02*
X108062713Y-47127035D01*
X108062713Y-47127035D02*
X108098428Y-47162750D01*
X108098428Y-47162750D02*
X108169856Y-47198464D01*
X108169856Y-47198464D02*
X108384142Y-47198464D01*
X108384142Y-47198464D02*
X108455570Y-47162750D01*
X108455570Y-47162750D02*
X108491285Y-47127035D01*
X108927713Y-41102464D02*
X108927713Y-40352464D01*
X108927713Y-40352464D02*
X108749142Y-40352464D01*
X108749142Y-40352464D02*
X108641999Y-40388178D01*
X108641999Y-40388178D02*
X108570570Y-40459607D01*
X108570570Y-40459607D02*
X108534856Y-40531035D01*
X108534856Y-40531035D02*
X108499142Y-40673892D01*
X108499142Y-40673892D02*
X108499142Y-40781035D01*
X108499142Y-40781035D02*
X108534856Y-40923892D01*
X108534856Y-40923892D02*
X108570570Y-40995321D01*
X108570570Y-40995321D02*
X108641999Y-41066750D01*
X108641999Y-41066750D02*
X108749142Y-41102464D01*
X108749142Y-41102464D02*
X108927713Y-41102464D01*
X108177713Y-40816750D02*
X107606285Y-40816750D01*
X112970264Y-38510200D02*
X113505978Y-38510200D01*
X113505978Y-38510200D02*
X113613121Y-38474485D01*
X113613121Y-38474485D02*
X113684550Y-38403057D01*
X113684550Y-38403057D02*
X113720264Y-38295914D01*
X113720264Y-38295914D02*
X113720264Y-38224485D01*
X113720264Y-38867343D02*
X112970264Y-38867343D01*
X112970264Y-38867343D02*
X112970264Y-39153057D01*
X112970264Y-39153057D02*
X113005978Y-39224486D01*
X113005978Y-39224486D02*
X113041692Y-39260200D01*
X113041692Y-39260200D02*
X113113121Y-39295914D01*
X113113121Y-39295914D02*
X113220264Y-39295914D01*
X113220264Y-39295914D02*
X113291692Y-39260200D01*
X113291692Y-39260200D02*
X113327407Y-39224486D01*
X113327407Y-39224486D02*
X113363121Y-39153057D01*
X113363121Y-39153057D02*
X113363121Y-38867343D01*
X113220264Y-39938772D02*
X113720264Y-39938772D01*
X112934550Y-39760200D02*
X113470264Y-39581629D01*
X113470264Y-39581629D02*
X113470264Y-40045914D01*
X120944799Y-40885664D02*
X120944799Y-41421378D01*
X120944799Y-41421378D02*
X120980514Y-41528521D01*
X120980514Y-41528521D02*
X121051942Y-41599950D01*
X121051942Y-41599950D02*
X121159085Y-41635664D01*
X121159085Y-41635664D02*
X121230514Y-41635664D01*
X120587656Y-41635664D02*
X120587656Y-40885664D01*
X120587656Y-40885664D02*
X120301942Y-40885664D01*
X120301942Y-40885664D02*
X120230513Y-40921378D01*
X120230513Y-40921378D02*
X120194799Y-40957092D01*
X120194799Y-40957092D02*
X120159085Y-41028521D01*
X120159085Y-41028521D02*
X120159085Y-41135664D01*
X120159085Y-41135664D02*
X120194799Y-41207092D01*
X120194799Y-41207092D02*
X120230513Y-41242807D01*
X120230513Y-41242807D02*
X120301942Y-41278521D01*
X120301942Y-41278521D02*
X120587656Y-41278521D01*
X119444799Y-41635664D02*
X119873370Y-41635664D01*
X119659085Y-41635664D02*
X119659085Y-40885664D01*
X119659085Y-40885664D02*
X119730513Y-40992807D01*
X119730513Y-40992807D02*
X119801942Y-41064235D01*
X119801942Y-41064235D02*
X119873370Y-41099950D01*
X107149713Y-43642464D02*
X107149713Y-42892464D01*
X107149713Y-42892464D02*
X106971142Y-42892464D01*
X106971142Y-42892464D02*
X106863999Y-42928178D01*
X106863999Y-42928178D02*
X106792570Y-42999607D01*
X106792570Y-42999607D02*
X106756856Y-43071035D01*
X106756856Y-43071035D02*
X106721142Y-43213892D01*
X106721142Y-43213892D02*
X106721142Y-43321035D01*
X106721142Y-43321035D02*
X106756856Y-43463892D01*
X106756856Y-43463892D02*
X106792570Y-43535321D01*
X106792570Y-43535321D02*
X106863999Y-43606750D01*
X106863999Y-43606750D02*
X106971142Y-43642464D01*
X106971142Y-43642464D02*
X107149713Y-43642464D01*
X106399713Y-43356750D02*
X105828285Y-43356750D01*
X106113999Y-43642464D02*
X106113999Y-43071035D01*
X130354999Y-44162464D02*
X130354999Y-44698178D01*
X130354999Y-44698178D02*
X130390714Y-44805321D01*
X130390714Y-44805321D02*
X130462142Y-44876750D01*
X130462142Y-44876750D02*
X130569285Y-44912464D01*
X130569285Y-44912464D02*
X130640714Y-44912464D01*
X129997856Y-44912464D02*
X129997856Y-44162464D01*
X129997856Y-44162464D02*
X129712142Y-44162464D01*
X129712142Y-44162464D02*
X129640713Y-44198178D01*
X129640713Y-44198178D02*
X129604999Y-44233892D01*
X129604999Y-44233892D02*
X129569285Y-44305321D01*
X129569285Y-44305321D02*
X129569285Y-44412464D01*
X129569285Y-44412464D02*
X129604999Y-44483892D01*
X129604999Y-44483892D02*
X129640713Y-44519607D01*
X129640713Y-44519607D02*
X129712142Y-44555321D01*
X129712142Y-44555321D02*
X129997856Y-44555321D01*
X128926428Y-44162464D02*
X129069285Y-44162464D01*
X129069285Y-44162464D02*
X129140713Y-44198178D01*
X129140713Y-44198178D02*
X129176428Y-44233892D01*
X129176428Y-44233892D02*
X129247856Y-44341035D01*
X129247856Y-44341035D02*
X129283570Y-44483892D01*
X129283570Y-44483892D02*
X129283570Y-44769607D01*
X129283570Y-44769607D02*
X129247856Y-44841035D01*
X129247856Y-44841035D02*
X129212142Y-44876750D01*
X129212142Y-44876750D02*
X129140713Y-44912464D01*
X129140713Y-44912464D02*
X128997856Y-44912464D01*
X128997856Y-44912464D02*
X128926428Y-44876750D01*
X128926428Y-44876750D02*
X128890713Y-44841035D01*
X128890713Y-44841035D02*
X128854999Y-44769607D01*
X128854999Y-44769607D02*
X128854999Y-44591035D01*
X128854999Y-44591035D02*
X128890713Y-44519607D01*
X128890713Y-44519607D02*
X128926428Y-44483892D01*
X128926428Y-44483892D02*
X128997856Y-44448178D01*
X128997856Y-44448178D02*
X129140713Y-44448178D01*
X129140713Y-44448178D02*
X129212142Y-44483892D01*
X129212142Y-44483892D02*
X129247856Y-44519607D01*
X129247856Y-44519607D02*
X129283570Y-44591035D01*
X122988999Y-46702464D02*
X122988999Y-47238178D01*
X122988999Y-47238178D02*
X123024714Y-47345321D01*
X123024714Y-47345321D02*
X123096142Y-47416750D01*
X123096142Y-47416750D02*
X123203285Y-47452464D01*
X123203285Y-47452464D02*
X123274714Y-47452464D01*
X122631856Y-47452464D02*
X122631856Y-46702464D01*
X122631856Y-46702464D02*
X122346142Y-46702464D01*
X122346142Y-46702464D02*
X122274713Y-46738178D01*
X122274713Y-46738178D02*
X122238999Y-46773892D01*
X122238999Y-46773892D02*
X122203285Y-46845321D01*
X122203285Y-46845321D02*
X122203285Y-46952464D01*
X122203285Y-46952464D02*
X122238999Y-47023892D01*
X122238999Y-47023892D02*
X122274713Y-47059607D01*
X122274713Y-47059607D02*
X122346142Y-47095321D01*
X122346142Y-47095321D02*
X122631856Y-47095321D01*
X121524713Y-46702464D02*
X121881856Y-46702464D01*
X121881856Y-46702464D02*
X121917570Y-47059607D01*
X121917570Y-47059607D02*
X121881856Y-47023892D01*
X121881856Y-47023892D02*
X121810428Y-46988178D01*
X121810428Y-46988178D02*
X121631856Y-46988178D01*
X121631856Y-46988178D02*
X121560428Y-47023892D01*
X121560428Y-47023892D02*
X121524713Y-47059607D01*
X121524713Y-47059607D02*
X121488999Y-47131035D01*
X121488999Y-47131035D02*
X121488999Y-47309607D01*
X121488999Y-47309607D02*
X121524713Y-47381035D01*
X121524713Y-47381035D02*
X121560428Y-47416750D01*
X121560428Y-47416750D02*
X121631856Y-47452464D01*
X121631856Y-47452464D02*
X121810428Y-47452464D01*
X121810428Y-47452464D02*
X121881856Y-47416750D01*
X121881856Y-47416750D02*
X121917570Y-47381035D01*
D13*
%TO.C,JP3*%
X110499200Y-46558000D02*
X110499200Y-47158000D01*
X111199200Y-47858000D02*
X112599200Y-47858000D01*
X112599200Y-45858000D02*
X111199200Y-45858000D01*
X113299200Y-47158000D02*
X113299200Y-46558000D01*
X110499200Y-46558000D02*
G75*
G02*
X111199200Y-45858000I699999J1D01*
G01*
X111199200Y-47858000D02*
G75*
G02*
X110499200Y-47158000I-1J699999D01*
G01*
X112599200Y-45858000D02*
G75*
G02*
X113299200Y-46558000I0J-700000D01*
G01*
X113299200Y-47158000D02*
G75*
G02*
X112599200Y-47858000I-700000J0D01*
G01*
%TO.C,TP3*%
X106935000Y-41524000D02*
G75*
G02*
X105535000Y-41524000I-700000J0D01*
G01*
X105535000Y-41524000D02*
G75*
G02*
X106935000Y-41524000I700000J0D01*
G01*
%TO.C,JP4*%
X114179800Y-38435200D02*
X114179800Y-39835200D01*
X114879800Y-40535200D02*
X115479800Y-40535200D01*
X115479800Y-37735200D02*
X114879800Y-37735200D01*
X116179800Y-39835200D02*
X116179800Y-38435200D01*
X114179800Y-38435200D02*
G75*
G02*
X114879800Y-37735200I699999J1D01*
G01*
X114879800Y-40535200D02*
G75*
G02*
X114179800Y-39835200I0J700000D01*
G01*
X115479800Y-37735200D02*
G75*
G02*
X116179800Y-38435200I1J-699999D01*
G01*
X116179800Y-39835200D02*
G75*
G02*
X115479800Y-40535200I-700000J0D01*
G01*
%TO.C,JP1*%
X118919800Y-39195200D02*
X118919800Y-39795200D01*
X119619800Y-40495200D02*
X121019800Y-40495200D01*
X121019800Y-38495200D02*
X119619800Y-38495200D01*
X121719800Y-39795200D02*
X121719800Y-39195200D01*
X118919800Y-39195200D02*
G75*
G02*
X119619800Y-38495200I699999J1D01*
G01*
X119619800Y-40495200D02*
G75*
G02*
X118919800Y-39795200I-1J699999D01*
G01*
X121019800Y-38495200D02*
G75*
G02*
X121719800Y-39195200I0J-700000D01*
G01*
X121719800Y-39795200D02*
G75*
G02*
X121019800Y-40495200I-700000J0D01*
G01*
%TO.C,TP2*%
X105157000Y-43048000D02*
G75*
G02*
X103757000Y-43048000I-700000J0D01*
G01*
X103757000Y-43048000D02*
G75*
G02*
X105157000Y-43048000I700000J0D01*
G01*
%TO.C,J5*%
X136842000Y-41219200D02*
X136842000Y-41854200D01*
X136842000Y-41854200D02*
X137477000Y-41854200D01*
%TO.C,JP6*%
X125575000Y-44208000D02*
X125575000Y-44808000D01*
X126275000Y-45508000D02*
X127675000Y-45508000D01*
X127675000Y-43508000D02*
X126275000Y-43508000D01*
X128375000Y-44808000D02*
X128375000Y-44208000D01*
X125575000Y-44208000D02*
G75*
G02*
X126275000Y-43508000I699999J1D01*
G01*
X126275000Y-45508000D02*
G75*
G02*
X125575000Y-44808000I-1J699999D01*
G01*
X127675000Y-43508000D02*
G75*
G02*
X128375000Y-44208000I0J-700000D01*
G01*
X128375000Y-44808000D02*
G75*
G02*
X127675000Y-45508000I-700000J0D01*
G01*
%TO.C,JP5*%
X123825000Y-46758000D02*
X123825000Y-47358000D01*
X124525000Y-48058000D02*
X125925000Y-48058000D01*
X125925000Y-46058000D02*
X124525000Y-46058000D01*
X126625000Y-47358000D02*
X126625000Y-46758000D01*
X123825000Y-46758000D02*
G75*
G02*
X124525000Y-46058000I699999J1D01*
G01*
X124525000Y-48058000D02*
G75*
G02*
X123825000Y-47358000I-1J699999D01*
G01*
X125925000Y-46058000D02*
G75*
G02*
X126625000Y-46758000I0J-700000D01*
G01*
X126625000Y-47358000D02*
G75*
G02*
X125925000Y-48058000I-700000J0D01*
G01*
%TD*%
M02*
