%TF.GenerationSoftware,KiCad,Pcbnew,9.0.5*%
%TF.CreationDate,2025-10-04T19:46:11-03:00*%
%TF.ProjectId,wis-controller-v0.3,7769732d-636f-46e7-9472-6f6c6c65722d,0.3*%
%TF.SameCoordinates,Original*%
%TF.FileFunction,Soldermask,Bot*%
%TF.FilePolarity,Negative*%
%FSLAX46Y46*%
G04 Gerber Fmt 4.6, Leading zero omitted, Abs format (unit mm)*
G04 Created by KiCad (PCBNEW 9.0.5) date 2025-10-04 19:46:11*
%MOMM*%
%LPD*%
G01*
G04 APERTURE LIST*
G04 Aperture macros list*
%AMFreePoly0*
4,1,23,0.500000,-0.750000,0.000000,-0.750000,0.000000,-0.745722,-0.065263,-0.745722,-0.191342,-0.711940,-0.304381,-0.646677,-0.396677,-0.554381,-0.461940,-0.441342,-0.495722,-0.315263,-0.495722,-0.250000,-0.500000,-0.250000,-0.500000,0.250000,-0.495722,0.250000,-0.495722,0.315263,-0.461940,0.441342,-0.396677,0.554381,-0.304381,0.646677,-0.191342,0.711940,-0.065263,0.745722,0.000000,0.745722,
0.000000,0.750000,0.500000,0.750000,0.500000,-0.750000,0.500000,-0.750000,$1*%
%AMFreePoly1*
4,1,23,0.000000,0.745722,0.065263,0.745722,0.191342,0.711940,0.304381,0.646677,0.396677,0.554381,0.461940,0.441342,0.495722,0.315263,0.495722,0.250000,0.500000,0.250000,0.500000,-0.250000,0.495722,-0.250000,0.495722,-0.315263,0.461940,-0.441342,0.396677,-0.554381,0.304381,-0.646677,0.191342,-0.711940,0.065263,-0.745722,0.000000,-0.745722,0.000000,-0.750000,-0.500000,-0.750000,
-0.500000,0.750000,0.000000,0.750000,0.000000,0.745722,0.000000,0.745722,$1*%
G04 Aperture macros list end*
%ADD10C,0.900000*%
%ADD11C,0.650000*%
%ADD12O,2.100000X1.000000*%
%ADD13O,1.600000X1.000000*%
%ADD14C,2.000000*%
%ADD15R,3.000000X3.000000*%
%ADD16C,3.000000*%
%ADD17C,2.500000*%
%ADD18R,2.400000X2.400000*%
%ADD19C,2.400000*%
%ADD20FreePoly0,0.000000*%
%ADD21FreePoly1,0.000000*%
%ADD22C,1.000000*%
%ADD23FreePoly0,270.000000*%
%ADD24FreePoly1,270.000000*%
%ADD25C,0.990600*%
%ADD26C,0.787400*%
G04 APERTURE END LIST*
D10*
%TO.C,SW4*%
X101660000Y-30700000D03*
X101660000Y-33700000D03*
%TD*%
D11*
%TO.C,J3*%
X105030000Y-39650000D03*
X105030000Y-45430000D03*
D12*
X105530000Y-38220000D03*
D13*
X101350000Y-38220000D03*
D12*
X105530000Y-46860000D03*
D13*
X101350000Y-46860000D03*
%TD*%
D14*
%TO.C,U9*%
X167300000Y-85200000D03*
X167300000Y-101200000D03*
%TD*%
D15*
%TO.C,J11*%
X144020000Y-117750000D03*
D16*
X144020000Y-112670000D03*
X144020000Y-107590000D03*
X144020000Y-102510000D03*
%TD*%
D17*
%TO.C,H2*%
X173000000Y-25000000D03*
%TD*%
%TO.C,H4*%
X173000000Y-125000000D03*
%TD*%
D18*
%TO.C,C15*%
X120000000Y-93182755D03*
D19*
X120000000Y-85682755D03*
%TD*%
D14*
%TO.C,U10*%
X167300000Y-47950000D03*
X167300000Y-31950000D03*
%TD*%
D17*
%TO.C,H3*%
X105000000Y-125000000D03*
%TD*%
%TO.C,H1*%
X105000000Y-25000000D03*
%TD*%
D20*
%TO.C,JP3*%
X111249200Y-46858000D03*
D21*
X112549200Y-46858000D03*
%TD*%
D22*
%TO.C,TP3*%
X106235000Y-41524000D03*
%TD*%
D23*
%TO.C,JP4*%
X115179800Y-38485200D03*
D24*
X115179800Y-39785200D03*
%TD*%
D20*
%TO.C,JP1*%
X119669800Y-39495200D03*
D21*
X120969800Y-39495200D03*
%TD*%
D22*
%TO.C,TP2*%
X104457000Y-43048000D03*
%TD*%
D25*
%TO.C,J5*%
X138112000Y-42489200D03*
X137096000Y-37409200D03*
X139128000Y-37409200D03*
D26*
X137477000Y-41219200D03*
X138747000Y-41219200D03*
X137477000Y-39949200D03*
X138747000Y-39949200D03*
X137477000Y-38679200D03*
X138747000Y-38679200D03*
%TD*%
D20*
%TO.C,JP6*%
X126325000Y-44508000D03*
D21*
X127625000Y-44508000D03*
%TD*%
D20*
%TO.C,JP5*%
X124575000Y-47058000D03*
D21*
X125875000Y-47058000D03*
%TD*%
M02*
