M48
; DRILL file {KiCad 9.0.5} date 2025-10-04T19:46:08-0300
; FORMAT={-:-/ absolute / metric / decimal}
; #@! TF.CreationDate,2025-10-04T19:46:08-03:00
; #@! TF.GenerationSoftware,Kicad,Pcbnew,9.0.5
; #@! TF.FileFunction,Plated,1,2,PTH
FMAT,2
METRIC
; #@! TA.AperFunction,Plated,PTH,ViaDrill
T1C0.300
; #@! TA.AperFunction,Plated,PTH,ViaDrill
T2C0.450
; #@! TA.AperFunction,Plated,PTH,ComponentDrill
T3C0.600
; #@! TA.AperFunction,Plated,PTH,ComponentDrill
T4C1.200
; #@! TA.AperFunction,Plated,PTH,ComponentDrill
T5C1.520
; #@! TA.AperFunction,Plated,PTH,ComponentDrill
T6C1.850
%
G90
G05
T1
X101.17Y-21.11
X101.545Y-39.678
X101.545Y-40.678
X101.545Y-41.678
X101.545Y-42.678
X101.545Y-43.678
X101.545Y-44.678
X101.545Y-45.678
X101.59Y-70.31
X101.59Y-86.17
X101.59Y-101.41
X101.6Y-73.99
X101.6Y-75.97
X101.6Y-89.85
X101.6Y-91.83
X101.6Y-105.09
X101.6Y-107.07
X101.61Y-72.14
X101.61Y-79.65
X101.61Y-88.0
X101.61Y-95.51
X101.61Y-103.24
X101.61Y-110.75
X101.62Y-77.8
X101.62Y-93.66
X101.62Y-108.9
X101.62Y-114.91
X101.63Y-118.59
X101.63Y-120.57
X101.64Y-116.74
X103.045Y-38.678
X103.045Y-46.678
X103.59Y-70.31
X103.59Y-86.17
X103.59Y-101.41
X103.6Y-73.99
X103.6Y-75.97
X103.6Y-89.85
X103.6Y-91.83
X103.6Y-105.09
X103.6Y-107.07
X103.61Y-72.14
X103.61Y-79.65
X103.61Y-88.0
X103.61Y-95.51
X103.61Y-103.24
X103.61Y-110.75
X103.62Y-77.8
X103.62Y-93.66
X103.62Y-108.9
X103.62Y-114.91
X103.63Y-118.59
X103.63Y-120.57
X103.64Y-116.74
X103.695Y-41.524
X103.71Y-21.11
X103.74Y-31.2
X104.838Y-42.286
X104.838Y-43.386
X105.087Y-41.561
X105.181Y-48.969
X105.25Y-57.23
X105.34Y-34.49
X105.38Y-32.96
X105.59Y-70.31
X105.59Y-86.17
X105.59Y-101.41
X105.6Y-73.99
X105.6Y-75.97
X105.6Y-89.85
X105.6Y-91.83
X105.6Y-105.09
X105.6Y-107.07
X105.61Y-72.14
X105.61Y-79.65
X105.61Y-88.0
X105.61Y-95.51
X105.61Y-103.24
X105.61Y-110.75
X105.62Y-77.8
X105.62Y-93.66
X105.62Y-108.9
X105.62Y-114.91
X105.63Y-118.59
X105.63Y-120.57
X105.64Y-116.74
X106.25Y-21.11
X107.085Y-47.278
X107.124Y-40.152
X107.353Y-46.274
X107.36Y-49.12
X107.59Y-70.31
X107.59Y-86.17
X107.59Y-101.41
X107.6Y-73.99
X107.6Y-75.97
X107.6Y-89.85
X107.6Y-91.83
X107.6Y-105.09
X107.6Y-107.07
X107.61Y-72.14
X107.61Y-79.65
X107.61Y-88.0
X107.61Y-95.51
X107.61Y-103.24
X107.61Y-110.75
X107.62Y-77.8
X107.62Y-93.66
X107.62Y-108.9
X107.62Y-114.91
X107.63Y-118.59
X107.63Y-120.57
X107.64Y-116.74
X107.658Y-27.638
X107.658Y-28.654
X107.658Y-29.67
X108.25Y-46.28
X108.674Y-27.638
X108.674Y-28.654
X108.674Y-29.67
X108.79Y-21.11
X109.068Y-37.438
X109.068Y-38.454
X109.068Y-39.47
X109.315Y-43.208
X109.59Y-70.31
X109.59Y-86.17
X109.59Y-101.41
X109.6Y-73.99
X109.6Y-75.97
X109.6Y-89.85
X109.6Y-91.83
X109.6Y-105.09
X109.6Y-107.07
X109.61Y-72.14
X109.61Y-79.65
X109.61Y-88.0
X109.61Y-95.51
X109.61Y-103.24
X109.61Y-110.75
X109.62Y-77.8
X109.62Y-93.66
X109.62Y-108.9
X109.62Y-114.91
X109.63Y-118.59
X109.63Y-120.57
X109.64Y-116.74
X109.69Y-27.638
X109.69Y-28.654
X109.69Y-29.67
X109.73Y-48.7
X110.084Y-37.438
X110.084Y-38.454
X110.084Y-39.47
X111.092Y-44.613
X111.1Y-37.438
X111.1Y-38.454
X111.1Y-39.47
X111.188Y-45.588
X111.239Y-43.708
X112.16Y-52.71
X112.24Y-49.93
X112.86Y-40.72
X113.677Y-46.096
X114.39Y-101.43
X114.4Y-105.11
X114.4Y-107.09
X114.41Y-103.26
X114.41Y-110.77
X114.42Y-108.92
X114.439Y-37.054
X114.44Y-114.91
X114.45Y-118.59
X114.45Y-120.57
X114.46Y-116.74
X114.46Y-124.25
X114.47Y-122.4
X115.481Y-47.925
X116.34Y-42.2
X116.39Y-101.43
X116.4Y-105.11
X116.4Y-107.09
X116.41Y-103.26
X116.41Y-110.77
X116.42Y-108.92
X116.44Y-114.91
X116.45Y-118.59
X116.45Y-120.57
X116.46Y-116.74
X116.46Y-124.25
X116.47Y-122.4
X116.81Y-49.375
X117.716Y-48.814
X118.18Y-34.23
X118.218Y-52.434
X118.218Y-53.45
X118.218Y-54.466
X118.39Y-101.43
X118.4Y-105.11
X118.4Y-107.09
X118.41Y-103.26
X118.41Y-110.77
X118.42Y-108.92
X118.44Y-114.91
X118.45Y-118.59
X118.45Y-120.57
X118.46Y-116.74
X118.46Y-124.25
X118.47Y-122.4
X118.525Y-39.428
X118.732Y-36.444
X118.8Y-33.14
X118.808Y-41.905
X118.82Y-38.304
X119.158Y-47.557
X119.234Y-52.434
X119.234Y-53.45
X119.234Y-54.466
X119.65Y-29.46
X120.11Y-56.81
X120.12Y-60.49
X120.12Y-62.47
X120.13Y-58.64
X120.13Y-66.15
X120.14Y-64.3
X120.25Y-52.434
X120.25Y-53.45
X120.25Y-54.466
X120.39Y-101.43
X120.4Y-105.11
X120.4Y-107.09
X120.41Y-103.26
X120.41Y-110.77
X120.42Y-108.92
X120.44Y-114.91
X120.45Y-118.59
X120.45Y-120.57
X120.46Y-116.74
X120.46Y-124.25
X120.47Y-122.4
X121.23Y-49.01
X121.266Y-52.434
X121.266Y-53.45
X121.266Y-54.466
X121.52Y-46.98
X122.11Y-56.81
X122.12Y-60.49
X122.12Y-62.47
X122.13Y-58.64
X122.13Y-66.15
X122.14Y-64.3
X122.19Y-29.46
X122.39Y-101.43
X122.4Y-105.11
X122.4Y-107.09
X122.41Y-103.26
X122.41Y-110.77
X122.42Y-108.92
X122.44Y-114.91
X122.444Y-79.534
X122.444Y-80.55
X122.45Y-118.59
X122.45Y-120.57
X122.46Y-116.74
X122.46Y-124.25
X122.47Y-122.4
X122.925Y-39.538
X123.122Y-50.588
X123.122Y-51.604
X123.122Y-52.62
X123.46Y-79.534
X123.46Y-80.55
X123.68Y-73.55
X124.0Y-41.15
X124.11Y-56.81
X124.12Y-60.49
X124.12Y-62.47
X124.13Y-58.64
X124.13Y-66.15
X124.138Y-50.588
X124.138Y-51.604
X124.138Y-52.62
X124.14Y-64.3
X124.73Y-29.46
X124.85Y-34.7
X125.154Y-50.588
X125.154Y-51.604
X125.154Y-52.62
X125.412Y-49.246
X125.54Y-36.81
X125.92Y-42.134
X126.11Y-56.81
X126.12Y-60.49
X126.12Y-62.47
X126.13Y-58.64
X126.13Y-66.15
X126.14Y-64.3
X126.17Y-50.588
X126.17Y-51.604
X126.17Y-52.62
X126.5Y-79.66
X127.27Y-29.46
X127.317Y-42.413
X127.355Y-41.098
X127.82Y-114.91
X127.83Y-101.43
X127.83Y-118.59
X127.83Y-120.57
X127.84Y-105.11
X127.84Y-107.09
X127.84Y-116.74
X127.84Y-124.25
X127.85Y-103.26
X127.85Y-110.77
X127.85Y-122.4
X127.86Y-108.92
X128.03Y-52.55
X129.095Y-40.254
X129.222Y-41.27
X129.222Y-42.413
X129.414Y-80.144
X129.414Y-81.16
X129.53Y-44.698
X129.626Y-45.625
X129.67Y-48.29
X129.679Y-47.366
X129.82Y-114.91
X129.83Y-101.43
X129.83Y-118.59
X129.83Y-120.57
X129.84Y-105.11
X129.84Y-107.09
X129.84Y-116.74
X129.84Y-124.25
X129.85Y-103.26
X129.85Y-110.77
X129.85Y-122.4
X129.86Y-108.92
X130.43Y-80.144
X130.43Y-81.16
X131.26Y-47.51
X131.82Y-114.91
X131.83Y-101.43
X131.83Y-118.59
X131.83Y-120.57
X131.84Y-105.11
X131.84Y-107.09
X131.84Y-116.74
X131.84Y-124.25
X131.85Y-103.26
X131.85Y-110.77
X131.85Y-122.4
X131.86Y-108.92
X131.87Y-39.14
X132.88Y-38.39
X133.58Y-29.46
X133.82Y-114.91
X133.83Y-101.43
X133.83Y-118.59
X133.83Y-120.57
X133.84Y-105.11
X133.84Y-107.09
X133.84Y-116.74
X133.84Y-124.25
X133.85Y-39.04
X133.85Y-103.26
X133.85Y-110.77
X133.85Y-122.4
X133.86Y-108.92
X134.09Y-93.89
X134.4Y-95.53
X134.78Y-31.24
X134.861Y-48.509
X134.9Y-37.08
X135.01Y-93.26
X135.374Y-89.974
X135.374Y-90.99
X135.82Y-114.91
X135.83Y-101.43
X135.83Y-118.59
X135.83Y-120.57
X135.84Y-105.11
X135.84Y-107.09
X135.84Y-116.74
X135.84Y-124.25
X135.85Y-103.26
X135.85Y-110.77
X135.85Y-122.4
X135.86Y-108.92
X136.12Y-29.46
X136.39Y-89.974
X136.39Y-90.99
X136.501Y-46.731
X136.904Y-80.154
X136.904Y-81.17
X137.74Y-56.64
X137.75Y-60.32
X137.75Y-62.3
X137.76Y-58.47
X137.76Y-65.98
X137.77Y-64.13
X137.92Y-80.154
X137.92Y-81.17
X138.66Y-29.46
X139.509Y-41.956
X139.74Y-56.64
X139.75Y-60.32
X139.75Y-62.3
X139.76Y-58.47
X139.76Y-65.98
X139.77Y-64.13
X140.15Y-90.64
X140.299Y-39.485
X140.474Y-50.287
X140.5Y-49.169
X141.2Y-29.46
X141.74Y-56.64
X141.75Y-60.32
X141.75Y-62.3
X141.76Y-58.47
X141.76Y-65.98
X141.77Y-64.13
X142.885Y-36.138
X143.167Y-49.271
X143.167Y-50.312
X143.512Y-87.258
X143.512Y-88.274
X143.512Y-89.29
X143.74Y-56.64
X143.75Y-60.32
X143.75Y-62.3
X143.755Y-36.158
X143.76Y-58.47
X143.76Y-65.98
X143.77Y-64.13
X144.528Y-87.258
X144.528Y-88.274
X144.528Y-89.29
X144.88Y-96.02
X145.544Y-87.258
X145.544Y-88.274
X145.544Y-89.29
X145.64Y-94.23
X145.74Y-56.64
X145.75Y-60.32
X145.75Y-62.3
X145.76Y-58.47
X145.76Y-65.98
X145.77Y-64.13
X146.56Y-87.258
X146.56Y-88.274
X146.56Y-89.29
X147.712Y-87.238
X147.712Y-88.254
X147.712Y-89.27
X147.89Y-29.52
X147.91Y-34.48
X147.91Y-45.88
X147.92Y-38.16
X147.92Y-40.14
X147.92Y-49.56
X147.92Y-51.54
X147.93Y-36.31
X147.93Y-43.82
X147.93Y-47.71
X147.93Y-55.22
X147.94Y-41.97
X147.94Y-53.37
X148.728Y-87.238
X148.728Y-88.254
X148.728Y-89.27
X149.744Y-87.238
X149.744Y-88.254
X149.744Y-89.27
X149.91Y-34.48
X149.91Y-45.88
X149.92Y-38.16
X149.92Y-40.14
X149.92Y-49.56
X149.92Y-51.54
X149.93Y-36.31
X149.93Y-43.82
X149.93Y-47.71
X149.93Y-55.22
X149.94Y-41.97
X149.94Y-53.37
X150.404Y-104.294
X150.404Y-105.31
X150.404Y-110.084
X150.404Y-111.1
X150.404Y-115.024
X150.404Y-116.04
X150.43Y-29.52
X150.76Y-87.238
X150.76Y-88.254
X150.76Y-89.27
X151.42Y-104.294
X151.42Y-105.31
X151.42Y-110.084
X151.42Y-111.1
X151.42Y-115.024
X151.42Y-116.04
X151.91Y-34.48
X151.91Y-45.88
X151.92Y-38.16
X151.92Y-40.14
X151.92Y-49.56
X151.92Y-51.54
X151.93Y-36.31
X151.93Y-43.82
X151.93Y-47.71
X151.93Y-55.22
X151.94Y-41.97
X151.94Y-53.37
X152.97Y-29.52
X153.91Y-34.48
X153.91Y-45.88
X153.92Y-38.16
X153.92Y-40.14
X153.92Y-49.56
X153.92Y-51.54
X153.93Y-36.31
X153.93Y-43.82
X153.93Y-47.71
X153.93Y-55.22
X153.94Y-41.97
X153.94Y-53.37
X155.05Y-107.98
X155.05Y-119.19
X155.06Y-111.66
X155.06Y-113.64
X155.06Y-122.87
X155.06Y-124.85
X155.07Y-109.81
X155.07Y-117.32
X155.07Y-121.02
X155.07Y-128.53
X155.08Y-115.47
X155.08Y-126.68
X155.51Y-29.52
X155.91Y-34.48
X155.91Y-45.88
X155.92Y-38.16
X155.92Y-40.14
X155.92Y-49.56
X155.92Y-51.54
X155.93Y-36.31
X155.93Y-43.82
X155.93Y-47.71
X155.93Y-55.22
X155.94Y-41.97
X155.94Y-53.37
X157.05Y-107.98
X157.06Y-111.66
X157.06Y-113.64
X157.07Y-109.81
X157.07Y-117.32
X157.08Y-115.47
X157.1Y-119.21
X157.11Y-122.89
X157.11Y-124.87
X157.12Y-121.04
X157.12Y-128.55
X157.13Y-126.7
X159.05Y-107.98
X159.06Y-111.66
X159.06Y-113.64
X159.07Y-109.81
X159.07Y-117.32
X159.08Y-115.47
X159.1Y-119.21
X159.11Y-122.89
X159.11Y-124.87
X159.12Y-121.04
X159.12Y-128.55
X159.13Y-126.7
X161.05Y-107.98
X161.06Y-111.66
X161.06Y-113.64
X161.07Y-109.81
X161.07Y-117.32
X161.08Y-115.47
X161.1Y-119.21
X161.11Y-122.89
X161.11Y-124.87
X161.12Y-121.04
X161.12Y-128.55
X161.13Y-126.7
X163.1Y-119.21
X163.11Y-122.89
X163.11Y-124.87
X163.12Y-121.04
X163.12Y-128.55
X163.13Y-126.7
X163.28Y-57.81
X163.28Y-69.92
X163.29Y-61.49
X163.29Y-63.47
X163.29Y-73.6
X163.29Y-75.58
X163.3Y-59.64
X163.3Y-67.15
X163.3Y-71.75
X163.3Y-79.26
X163.31Y-65.3
X163.31Y-77.41
X165.1Y-119.21
X165.11Y-122.89
X165.11Y-124.87
X165.12Y-121.04
X165.12Y-128.55
X165.13Y-126.7
X165.28Y-57.81
X165.28Y-69.92
X165.29Y-61.49
X165.29Y-63.47
X165.29Y-73.6
X165.29Y-75.58
X165.3Y-59.64
X165.3Y-67.15
X165.3Y-71.75
X165.3Y-79.26
X165.31Y-65.3
X165.31Y-77.41
X167.28Y-57.81
X167.28Y-69.92
X167.29Y-61.49
X167.29Y-63.47
X167.29Y-73.6
X167.29Y-75.58
X167.3Y-59.64
X167.3Y-67.15
X167.3Y-71.75
X167.3Y-79.26
X167.31Y-65.3
X167.31Y-77.41
X169.09Y-21.15
X169.28Y-57.81
X169.28Y-69.92
X169.29Y-61.49
X169.29Y-63.47
X169.29Y-73.6
X169.29Y-75.58
X169.3Y-59.64
X169.3Y-67.15
X169.3Y-71.75
X169.3Y-79.26
X169.31Y-65.3
X169.31Y-77.41
X171.28Y-57.81
X171.28Y-69.92
X171.29Y-61.49
X171.29Y-63.47
X171.29Y-73.6
X171.29Y-75.58
X171.3Y-59.64
X171.3Y-67.15
X171.3Y-71.75
X171.3Y-79.26
X171.31Y-65.3
X171.31Y-77.41
X171.63Y-21.15
X173.172Y-47.588
X173.172Y-48.604
X173.172Y-49.62
X173.322Y-30.848
X173.322Y-31.864
X173.322Y-32.88
X173.428Y-100.004
X173.428Y-101.02
X173.428Y-102.036
X173.502Y-86.294
X173.502Y-87.31
X173.502Y-88.326
X174.17Y-21.15
X174.188Y-47.588
X174.188Y-48.604
X174.188Y-49.62
X174.338Y-30.848
X174.338Y-31.864
X174.338Y-32.88
X174.444Y-100.004
X174.444Y-101.02
X174.444Y-102.036
X174.518Y-86.294
X174.518Y-87.31
X174.518Y-88.326
X175.204Y-47.588
X175.204Y-48.604
X175.204Y-49.62
X175.354Y-30.848
X175.354Y-31.864
X175.354Y-32.88
X175.46Y-100.004
X175.46Y-101.02
X175.46Y-102.036
X175.534Y-86.294
X175.534Y-87.31
X175.534Y-88.326
X176.22Y-47.588
X176.22Y-48.604
X176.22Y-49.62
X176.37Y-30.848
X176.37Y-31.864
X176.37Y-32.88
X176.476Y-100.004
X176.476Y-101.02
X176.476Y-102.036
X176.55Y-86.294
X176.55Y-87.31
X176.55Y-88.326
X176.71Y-21.15
T2
X141.6Y-94.9
X143.11Y-95.71
X151.22Y-93.38
T4
X120.0Y-85.683
X120.0Y-93.183
T5
X144.02Y-102.51
X144.02Y-107.59
X144.02Y-112.67
X144.02Y-117.75
T6
X167.3Y-31.95
X167.3Y-47.95
X167.3Y-85.2
X167.3Y-101.2
T3
G00X101.65Y-38.22
M15
G01X101.05Y-38.22
M16
G05
G00X101.65Y-46.86
M15
G01X101.05Y-46.86
M16
G05
G00X106.08Y-38.22
M15
G01X104.98Y-38.22
M16
G05
G00X106.08Y-46.86
M15
G01X104.98Y-46.86
M16
G05
M30
