%TF.GenerationSoftware,KiCad,Pcbnew,9.0.5*%
%TF.CreationDate,2025-10-04T19:46:11-03:00*%
%TF.ProjectId,wis-controller-v0.3,7769732d-636f-46e7-9472-6f6c6c65722d,0.3*%
%TF.SameCoordinates,Original*%
%TF.FileFunction,Soldermask,Top*%
%TF.FilePolarity,Negative*%
%FSLAX46Y46*%
G04 Gerber Fmt 4.6, Leading zero omitted, Abs format (unit mm)*
G04 Created by KiCad (PCBNEW 9.0.5) date 2025-10-04 19:46:11*
%MOMM*%
%LPD*%
G01*
G04 APERTURE LIST*
G04 Aperture macros list*
%AMRoundRect*
0 Rectangle with rounded corners*
0 $1 Rounding radius*
0 $2 $3 $4 $5 $6 $7 $8 $9 X,Y pos of 4 corners*
0 Add a 4 corners polygon primitive as box body*
4,1,4,$2,$3,$4,$5,$6,$7,$8,$9,$2,$3,0*
0 Add four circle primitives for the rounded corners*
1,1,$1+$1,$2,$3*
1,1,$1+$1,$4,$5*
1,1,$1+$1,$6,$7*
1,1,$1+$1,$8,$9*
0 Add four rect primitives between the rounded corners*
20,1,$1+$1,$2,$3,$4,$5,0*
20,1,$1+$1,$4,$5,$6,$7,0*
20,1,$1+$1,$6,$7,$8,$9,0*
20,1,$1+$1,$8,$9,$2,$3,0*%
G04 Aperture macros list end*
%ADD10RoundRect,0.200000X-0.200000X-0.275000X0.200000X-0.275000X0.200000X0.275000X-0.200000X0.275000X0*%
%ADD11RoundRect,0.200000X0.200000X0.275000X-0.200000X0.275000X-0.200000X-0.275000X0.200000X-0.275000X0*%
%ADD12R,1.700000X0.900000*%
%ADD13RoundRect,0.225000X0.250000X-0.225000X0.250000X0.225000X-0.250000X0.225000X-0.250000X-0.225000X0*%
%ADD14C,0.900000*%
%ADD15R,1.250000X0.900000*%
%ADD16C,0.650000*%
%ADD17R,1.150000X0.300000*%
%ADD18O,2.100000X1.000000*%
%ADD19O,1.600000X1.000000*%
%ADD20R,1.220000X1.250000*%
%ADD21RoundRect,0.225000X0.225000X0.250000X-0.225000X0.250000X-0.225000X-0.250000X0.225000X-0.250000X0*%
%ADD22RoundRect,0.150000X0.150000X-0.587500X0.150000X0.587500X-0.150000X0.587500X-0.150000X-0.587500X0*%
%ADD23R,5.500000X9.500000*%
%ADD24C,2.000000*%
%ADD25R,3.500000X9.500000*%
%ADD26R,1.000000X1.500000*%
%ADD27R,1.500000X1.000000*%
%ADD28RoundRect,0.250000X1.500000X-0.250000X1.500000X0.250000X-1.500000X0.250000X-1.500000X-0.250000X0*%
%ADD29RoundRect,0.250001X1.449999X-0.499999X1.449999X0.499999X-1.449999X0.499999X-1.449999X-0.499999X0*%
%ADD30RoundRect,0.250000X-1.425000X0.362500X-1.425000X-0.362500X1.425000X-0.362500X1.425000X0.362500X0*%
%ADD31R,1.800000X0.700000*%
%ADD32R,0.700000X1.800000*%
%ADD33RoundRect,0.150000X-0.150000X0.512500X-0.150000X-0.512500X0.150000X-0.512500X0.150000X0.512500X0*%
%ADD34RoundRect,0.250000X0.250000X0.475000X-0.250000X0.475000X-0.250000X-0.475000X0.250000X-0.475000X0*%
%ADD35RoundRect,0.225000X-0.225000X-0.250000X0.225000X-0.250000X0.225000X0.250000X-0.225000X0.250000X0*%
%ADD36RoundRect,0.225000X-0.250000X0.225000X-0.250000X-0.225000X0.250000X-0.225000X0.250000X0.225000X0*%
%ADD37RoundRect,0.150000X-0.512500X-0.150000X0.512500X-0.150000X0.512500X0.150000X-0.512500X0.150000X0*%
%ADD38R,0.711200X0.254000*%
%ADD39R,0.990600X1.701800*%
%ADD40RoundRect,0.150000X-0.600000X-0.150000X0.600000X-0.150000X0.600000X0.150000X-0.600000X0.150000X0*%
%ADD41R,2.100000X1.400000*%
%ADD42RoundRect,0.150000X0.150000X-0.512500X0.150000X0.512500X-0.150000X0.512500X-0.150000X-0.512500X0*%
%ADD43R,3.000000X3.000000*%
%ADD44C,3.000000*%
%ADD45C,2.500000*%
%ADD46R,1.270000X0.760000*%
%ADD47R,2.500000X1.600000*%
%ADD48R,2.400000X2.400000*%
%ADD49C,2.400000*%
%ADD50R,1.200000X0.900000*%
%ADD51RoundRect,0.250000X-0.475000X0.250000X-0.475000X-0.250000X0.475000X-0.250000X0.475000X0.250000X0*%
%ADD52R,1.400000X0.300000*%
%ADD53RoundRect,0.218750X-0.218750X-0.256250X0.218750X-0.256250X0.218750X0.256250X-0.218750X0.256250X0*%
%ADD54RoundRect,0.200000X-0.275000X0.200000X-0.275000X-0.200000X0.275000X-0.200000X0.275000X0.200000X0*%
%ADD55C,0.990600*%
G04 APERTURE END LIST*
D10*
%TO.C,R13*%
X130460000Y-72230000D03*
X132110000Y-72230000D03*
%TD*%
D11*
%TO.C,R7*%
X112902000Y-47239000D03*
X111252000Y-47239000D03*
%TD*%
D12*
%TO.C,SW1*%
X108660000Y-35760000D03*
X108660000Y-32360000D03*
%TD*%
D13*
%TO.C,C13*%
X126500000Y-82670000D03*
X126500000Y-81120000D03*
%TD*%
D14*
%TO.C,SW4*%
X101660000Y-30700000D03*
X101660000Y-33700000D03*
D15*
X103735000Y-29950000D03*
X103735000Y-32950000D03*
X103735000Y-34450000D03*
%TD*%
D16*
%TO.C,J3*%
X105030000Y-39650000D03*
X105030000Y-45430000D03*
D17*
X106095000Y-39190000D03*
X106095000Y-39990000D03*
X106095000Y-41290000D03*
X106095000Y-42290000D03*
X106095000Y-42790000D03*
X106095000Y-43790000D03*
X106095000Y-45090000D03*
X106095000Y-45890000D03*
X106095000Y-45590000D03*
X106095000Y-44790000D03*
X106095000Y-44290000D03*
X106095000Y-43290000D03*
X106095000Y-41790000D03*
X106095000Y-40790000D03*
X106095000Y-40290000D03*
X106095000Y-39490000D03*
D18*
X105530000Y-38220000D03*
D19*
X101350000Y-38220000D03*
D18*
X105530000Y-46860000D03*
D19*
X101350000Y-46860000D03*
%TD*%
D10*
%TO.C,R19*%
X147665000Y-92710000D03*
X149315000Y-92710000D03*
%TD*%
D20*
%TO.C,D5*%
X113560000Y-51595000D03*
X113560000Y-54545000D03*
%TD*%
D10*
%TO.C,R18*%
X137790000Y-92730000D03*
X139440000Y-92730000D03*
%TD*%
D21*
%TO.C,C6*%
X117919000Y-40254000D03*
X116369000Y-40254000D03*
%TD*%
D10*
%TO.C,R3*%
X108229400Y-41955800D03*
X109879400Y-41955800D03*
%TD*%
D22*
%TO.C,Q1*%
X114378200Y-44087100D03*
X116278200Y-44087100D03*
X115328200Y-42212100D03*
%TD*%
D23*
%TO.C,U9*%
X167300000Y-87700000D03*
D24*
X167300000Y-85200000D03*
X167300000Y-101200000D03*
D25*
X167300000Y-98700000D03*
%TD*%
D26*
%TO.C,U11*%
X102020000Y-57240000D03*
X104020000Y-57240000D03*
X102020000Y-48740000D03*
X104020000Y-48740000D03*
D27*
X106220000Y-53990000D03*
X106220000Y-51990000D03*
%TD*%
D28*
%TO.C,J6*%
X109910000Y-62300000D03*
X109910000Y-60300000D03*
D29*
X115660000Y-64650000D03*
X115660000Y-57950000D03*
%TD*%
D30*
%TO.C,R17*%
X130450000Y-84937500D03*
X130450000Y-90862500D03*
%TD*%
D21*
%TO.C,C7*%
X112864400Y-41955800D03*
X111314400Y-41955800D03*
%TD*%
D31*
%TO.C,U1*%
X142818000Y-48250000D03*
X142818000Y-47250000D03*
X142818000Y-46250000D03*
X142818000Y-45250000D03*
X142818000Y-44250000D03*
X142818000Y-43250000D03*
X142818000Y-42250000D03*
X142818000Y-41250000D03*
X142818000Y-40250000D03*
X142818000Y-39250000D03*
X142818000Y-38250000D03*
X142818000Y-37250000D03*
D32*
X134863000Y-35115000D03*
X133863000Y-35115000D03*
X132863000Y-35115000D03*
X131863000Y-35115000D03*
D31*
X128018000Y-37250000D03*
X128018000Y-38250000D03*
X128018000Y-39250000D03*
X128018000Y-44250000D03*
X128018000Y-45250000D03*
X128018000Y-46250000D03*
X128018000Y-47250000D03*
X128018000Y-48250000D03*
D32*
X131863000Y-49915000D03*
X132863000Y-49915000D03*
X133863000Y-49915000D03*
X134863000Y-49915000D03*
X135863000Y-49915000D03*
X136863000Y-49915000D03*
X137863000Y-49915000D03*
X138863000Y-49915000D03*
%TD*%
D33*
%TO.C,U3*%
X121622400Y-37815600D03*
X120672400Y-37815600D03*
X119722400Y-37815600D03*
X119722400Y-40090600D03*
X121622400Y-40090600D03*
%TD*%
D34*
%TO.C,C9*%
X118655600Y-46223000D03*
X116755600Y-46223000D03*
%TD*%
D21*
%TO.C,C4*%
X126187000Y-45410200D03*
X124637000Y-45410200D03*
%TD*%
D35*
%TO.C,C14*%
X138155000Y-87750000D03*
X139705000Y-87750000D03*
%TD*%
D36*
%TO.C,C1*%
X126174000Y-46908800D03*
X126174000Y-48458800D03*
%TD*%
D37*
%TO.C,U5*%
X148042500Y-82870000D03*
X148042500Y-83820000D03*
X148042500Y-84770000D03*
X150317500Y-84770000D03*
X150317500Y-82870000D03*
%TD*%
D11*
%TO.C,R2*%
X105985000Y-36550000D03*
X104335000Y-36550000D03*
%TD*%
D38*
%TO.C,U8*%
X147690000Y-94529811D03*
X147690000Y-95029937D03*
X147690000Y-95530063D03*
X147690000Y-96030189D03*
X149696600Y-96030189D03*
X149696600Y-95530063D03*
X149696600Y-95029937D03*
X149696600Y-94529811D03*
D39*
X148693300Y-95280000D03*
%TD*%
D11*
%TO.C,R15*%
X132095000Y-77610000D03*
X130445000Y-77610000D03*
%TD*%
D40*
%TO.C,U6*%
X138010000Y-74220000D03*
X138010000Y-76760000D03*
X143910000Y-76760000D03*
X143910000Y-74220000D03*
%TD*%
D34*
%TO.C,C8*%
X121622400Y-35859800D03*
X119722400Y-35859800D03*
%TD*%
D10*
%TO.C,R9*%
X116370600Y-35682000D03*
X118020600Y-35682000D03*
%TD*%
D41*
%TO.C,D4*%
X135270000Y-87720000D03*
X135270000Y-83320000D03*
%TD*%
D42*
%TO.C,U4*%
X117832600Y-44261700D03*
X118782600Y-44261700D03*
X119732600Y-44261700D03*
X119732600Y-41986700D03*
X117832600Y-41986700D03*
%TD*%
D43*
%TO.C,J11*%
X144020000Y-117750000D03*
D44*
X144020000Y-112670000D03*
X144020000Y-107590000D03*
X144020000Y-102510000D03*
%TD*%
D45*
%TO.C,H2*%
X173000000Y-25000000D03*
%TD*%
D10*
%TO.C,R5*%
X123215400Y-42362200D03*
X124865400Y-42362200D03*
%TD*%
D46*
%TO.C,SW3*%
X116050000Y-75680000D03*
X116050000Y-76950000D03*
X123670000Y-76950000D03*
X123670000Y-75680000D03*
%TD*%
D45*
%TO.C,H4*%
X173000000Y-125000000D03*
%TD*%
D10*
%TO.C,R11*%
X148275000Y-76460000D03*
X149925000Y-76460000D03*
%TD*%
D11*
%TO.C,R12*%
X132115000Y-74010000D03*
X130465000Y-74010000D03*
%TD*%
D47*
%TO.C,L2*%
X143220000Y-80270000D03*
X143220000Y-84670000D03*
%TD*%
D36*
%TO.C,C16*%
X130450000Y-93385000D03*
X130450000Y-94935000D03*
%TD*%
D48*
%TO.C,C15*%
X120000000Y-93182755D03*
D49*
X120000000Y-85682755D03*
%TD*%
D50*
%TO.C,D3*%
X114794800Y-45843000D03*
X114794800Y-49143000D03*
%TD*%
D23*
%TO.C,U10*%
X167300000Y-45450000D03*
D24*
X167300000Y-47950000D03*
X167300000Y-31950000D03*
D25*
X167300000Y-34450000D03*
%TD*%
D36*
%TO.C,C3*%
X124650000Y-46908800D03*
X124650000Y-48458800D03*
%TD*%
D51*
%TO.C,C10*%
X121525800Y-41920200D03*
X121525800Y-43820200D03*
%TD*%
D45*
%TO.C,H3*%
X105000000Y-125000000D03*
%TD*%
D52*
%TO.C,U2*%
X108213000Y-43597400D03*
X108213000Y-44097400D03*
X108213000Y-44597400D03*
X108213000Y-45097400D03*
X108213000Y-45597400D03*
X112613000Y-45597400D03*
X112613000Y-45097400D03*
X112613000Y-44597400D03*
X112613000Y-44097400D03*
X112613000Y-43597400D03*
%TD*%
D35*
%TO.C,C12*%
X148320000Y-73450000D03*
X149870000Y-73450000D03*
%TD*%
D20*
%TO.C,D2*%
X110730000Y-51587500D03*
X110730000Y-54537500D03*
%TD*%
D10*
%TO.C,R14*%
X137975000Y-70960000D03*
X139625000Y-70960000D03*
%TD*%
%TO.C,R1*%
X123215400Y-43886200D03*
X124865400Y-43886200D03*
%TD*%
D45*
%TO.C,H1*%
X105000000Y-25000000D03*
%TD*%
D11*
%TO.C,R8*%
X118566200Y-48001000D03*
X116916200Y-48001000D03*
%TD*%
D38*
%TO.C,U7*%
X137816700Y-94529811D03*
X137816700Y-95029937D03*
X137816700Y-95530063D03*
X137816700Y-96030189D03*
X139823300Y-96030189D03*
X139823300Y-95530063D03*
X139823300Y-95029937D03*
X139823300Y-94529811D03*
D39*
X138820000Y-95280000D03*
%TD*%
D11*
%TO.C,R16*%
X132095000Y-75810000D03*
X130445000Y-75810000D03*
%TD*%
D10*
%TO.C,R4*%
X108229400Y-47239000D03*
X109879400Y-47239000D03*
%TD*%
D53*
%TO.C,D1*%
X101044000Y-36547500D03*
X102619000Y-36547500D03*
%TD*%
D54*
%TO.C,R10*%
X117969800Y-37155200D03*
X117969800Y-38805200D03*
%TD*%
D55*
%TO.C,J5*%
X138112000Y-42489200D03*
X137096000Y-37409200D03*
X139128000Y-37409200D03*
%TD*%
M02*
