%TF.GenerationSoftware,KiCad,Pcbnew,9.0.5*%
%TF.CreationDate,2025-10-04T19:46:11-03:00*%
%TF.ProjectId,wis-controller-v0.3,7769732d-636f-46e7-9472-6f6c6c65722d,0.3*%
%TF.SameCoordinates,Original*%
%TF.FileFunction,Copper,L2,Bot*%
%TF.FilePolarity,Positive*%
%FSLAX46Y46*%
G04 Gerber Fmt 4.6, Leading zero omitted, Abs format (unit mm)*
G04 Created by KiCad (PCBNEW 9.0.5) date 2025-10-04 19:46:11*
%MOMM*%
%LPD*%
G01*
G04 APERTURE LIST*
G04 Aperture macros list*
%AMFreePoly0*
4,1,23,0.500000,-0.750000,0.000000,-0.750000,0.000000,-0.745722,-0.065263,-0.745722,-0.191342,-0.711940,-0.304381,-0.646677,-0.396677,-0.554381,-0.461940,-0.441342,-0.495722,-0.315263,-0.495722,-0.250000,-0.500000,-0.250000,-0.500000,0.250000,-0.495722,0.250000,-0.495722,0.315263,-0.461940,0.441342,-0.396677,0.554381,-0.304381,0.646677,-0.191342,0.711940,-0.065263,0.745722,0.000000,0.745722,
0.000000,0.750000,0.500000,0.750000,0.500000,-0.750000,0.500000,-0.750000,$1*%
%AMFreePoly1*
4,1,23,0.000000,0.745722,0.065263,0.745722,0.191342,0.711940,0.304381,0.646677,0.396677,0.554381,0.461940,0.441342,0.495722,0.315263,0.495722,0.250000,0.500000,0.250000,0.500000,-0.250000,0.495722,-0.250000,0.495722,-0.315263,0.461940,-0.441342,0.396677,-0.554381,0.304381,-0.646677,0.191342,-0.711940,0.065263,-0.745722,0.000000,-0.745722,0.000000,-0.750000,-0.500000,-0.750000,
-0.500000,0.750000,0.000000,0.750000,0.000000,0.745722,0.000000,0.745722,$1*%
G04 Aperture macros list end*
%TA.AperFunction,EtchedComponent*%
%ADD10C,0.000000*%
%TD*%
%TA.AperFunction,ComponentPad*%
%ADD11O,2.100000X1.000000*%
%TD*%
%TA.AperFunction,ComponentPad*%
%ADD12O,1.600000X1.000000*%
%TD*%
%TA.AperFunction,ComponentPad*%
%ADD13C,2.000000*%
%TD*%
%TA.AperFunction,ComponentPad*%
%ADD14R,3.000000X3.000000*%
%TD*%
%TA.AperFunction,ComponentPad*%
%ADD15C,3.000000*%
%TD*%
%TA.AperFunction,ComponentPad*%
%ADD16R,2.400000X2.400000*%
%TD*%
%TA.AperFunction,ComponentPad*%
%ADD17C,2.400000*%
%TD*%
%TA.AperFunction,SMDPad,CuDef*%
%ADD18FreePoly0,0.000000*%
%TD*%
%TA.AperFunction,SMDPad,CuDef*%
%ADD19FreePoly1,0.000000*%
%TD*%
%TA.AperFunction,SMDPad,CuDef*%
%ADD20C,1.000000*%
%TD*%
%TA.AperFunction,SMDPad,CuDef*%
%ADD21FreePoly0,270.000000*%
%TD*%
%TA.AperFunction,SMDPad,CuDef*%
%ADD22FreePoly1,270.000000*%
%TD*%
%TA.AperFunction,ConnectorPad*%
%ADD23C,0.787400*%
%TD*%
%TA.AperFunction,ViaPad*%
%ADD24C,0.600000*%
%TD*%
%TA.AperFunction,ViaPad*%
%ADD25C,0.800000*%
%TD*%
%TA.AperFunction,Conductor*%
%ADD26C,0.500000*%
%TD*%
%TA.AperFunction,Conductor*%
%ADD27C,0.250000*%
%TD*%
%TA.AperFunction,Conductor*%
%ADD28C,0.200000*%
%TD*%
%TA.AperFunction,Conductor*%
%ADD29C,1.000000*%
%TD*%
G04 APERTURE END LIST*
D10*
%TA.AperFunction,EtchedComponent*%
%TO.C,JP3*%
G36*
X112149200Y-47158000D02*
G01*
X111649200Y-47158000D01*
X111649200Y-46558000D01*
X112149200Y-46558000D01*
X112149200Y-47158000D01*
G37*
%TD.AperFunction*%
%TA.AperFunction,EtchedComponent*%
%TO.C,JP4*%
G36*
X115479800Y-39385200D02*
G01*
X114879800Y-39385200D01*
X114879800Y-38885200D01*
X115479800Y-38885200D01*
X115479800Y-39385200D01*
G37*
%TD.AperFunction*%
%TA.AperFunction,EtchedComponent*%
%TO.C,JP1*%
G36*
X120569800Y-39795200D02*
G01*
X120069800Y-39795200D01*
X120069800Y-39195200D01*
X120569800Y-39195200D01*
X120569800Y-39795200D01*
G37*
%TD.AperFunction*%
%TA.AperFunction,EtchedComponent*%
%TO.C,JP6*%
G36*
X127225000Y-44808000D02*
G01*
X126725000Y-44808000D01*
X126725000Y-44208000D01*
X127225000Y-44208000D01*
X127225000Y-44808000D01*
G37*
%TD.AperFunction*%
%TA.AperFunction,EtchedComponent*%
%TO.C,JP5*%
G36*
X125475000Y-47358000D02*
G01*
X124975000Y-47358000D01*
X124975000Y-46758000D01*
X125475000Y-46758000D01*
X125475000Y-47358000D01*
G37*
%TD.AperFunction*%
%TD*%
D11*
%TO.P,J3,S1,SHIELD*%
%TO.N,unconnected-(J3-SHIELD-PadS1)*%
X105530000Y-38220000D03*
D12*
X101350000Y-38220000D03*
D11*
X105530000Y-46860000D03*
D12*
X101350000Y-46860000D03*
%TD*%
D13*
%TO.P,U9,1,1*%
%TO.N,GND*%
X167300000Y-85200000D03*
%TO.P,U9,2,2*%
X167300000Y-101200000D03*
%TD*%
D14*
%TO.P,J11,1,Pin_1*%
%TO.N,Net-(J11-Pin_1)*%
X144020000Y-117750000D03*
D15*
%TO.P,J11,2,Pin_2*%
%TO.N,Net-(J11-Pin_2)*%
X144020000Y-112670000D03*
%TO.P,J11,3,Pin_3*%
%TO.N,Net-(J11-Pin_3)*%
X144020000Y-107590000D03*
%TO.P,J11,4,Pin_4*%
%TO.N,Net-(J11-Pin_4)*%
X144020000Y-102510000D03*
%TD*%
D16*
%TO.P,C15,1*%
%TO.N,VM*%
X120000000Y-93182755D03*
D17*
%TO.P,C15,2*%
%TO.N,GND*%
X120000000Y-85682755D03*
%TD*%
D13*
%TO.P,U10,1,1*%
%TO.N,+BATT*%
X167300000Y-47950000D03*
%TO.P,U10,2,2*%
X167300000Y-31950000D03*
%TD*%
D18*
%TO.P,JP3,1,A*%
%TO.N,/CH340_PWR*%
X111249200Y-46858000D03*
D19*
%TO.P,JP3,2,B*%
%TO.N,+3.3V*%
X112549200Y-46858000D03*
%TD*%
D20*
%TO.P,TP3,1,1*%
%TO.N,/D-*%
X106235000Y-41524000D03*
%TD*%
D21*
%TO.P,JP4,1,A*%
%TO.N,Net-(JP4-A)*%
X115179800Y-38485200D03*
D22*
%TO.P,JP4,2,B*%
%TO.N,+BATT*%
X115179800Y-39785200D03*
%TD*%
D18*
%TO.P,JP1,1,A*%
%TO.N,Net-(JP1-A)*%
X119669800Y-39495200D03*
D19*
%TO.P,JP1,2,B*%
%TO.N,/A0*%
X120969800Y-39495200D03*
%TD*%
D20*
%TO.P,TP2,1,1*%
%TO.N,/D+*%
X104457000Y-43048000D03*
%TD*%
D23*
%TO.P,J5,1,Pin_1*%
%TO.N,unconnected-(J5-Pin_1-Pad1)*%
X137477000Y-41219200D03*
%TO.P,J5,2,Pin_2*%
%TO.N,/SWDIO*%
X138747000Y-41219200D03*
%TO.P,J5,3,Pin_3*%
%TO.N,/RST*%
X137477000Y-39949200D03*
%TO.P,J5,4,Pin_4*%
%TO.N,/SWCLK*%
X138747000Y-39949200D03*
%TO.P,J5,5,Pin_5*%
%TO.N,GND*%
X137477000Y-38679200D03*
%TO.P,J5,6,Pin_6*%
%TO.N,unconnected-(J5-Pin_6-Pad6)*%
X138747000Y-38679200D03*
%TD*%
D18*
%TO.P,JP6,1,A*%
%TO.N,Net-(JP6-A)*%
X126325000Y-44508000D03*
D19*
%TO.P,JP6,2,B*%
%TO.N,/TXD2*%
X127625000Y-44508000D03*
%TD*%
D18*
%TO.P,JP5,1,A*%
%TO.N,Net-(JP5-A)*%
X124575000Y-47058000D03*
D19*
%TO.P,JP5,2,B*%
%TO.N,/RXD2*%
X125875000Y-47058000D03*
%TD*%
D24*
%TO.N,GND*%
X175354000Y-32880000D03*
X151920000Y-51540000D03*
X101620000Y-77800000D03*
X107610000Y-79650000D03*
X120470000Y-122400000D03*
X116440000Y-114910000D03*
X124138000Y-51604000D03*
X143512000Y-88274000D03*
X109630000Y-118590000D03*
X137920000Y-81170000D03*
X131840000Y-105110000D03*
X122470000Y-122400000D03*
X129860000Y-108920000D03*
X155910000Y-45880000D03*
X143166600Y-50312400D03*
X165310000Y-77410000D03*
X159130000Y-126700000D03*
X151420000Y-104294000D03*
X175204000Y-49620000D03*
X107620000Y-114910000D03*
X147920000Y-40140000D03*
X163290000Y-61490000D03*
X176476000Y-102036000D03*
X155920000Y-49560000D03*
X122444000Y-79534000D03*
X144528000Y-89290000D03*
X118400000Y-105110000D03*
X109068000Y-38454000D03*
X120390000Y-101430000D03*
X101600000Y-107070000D03*
X150404000Y-115024000D03*
X148728000Y-88254000D03*
X163110000Y-122890000D03*
X157050000Y-107980000D03*
X118460000Y-124250000D03*
X155920000Y-38160000D03*
X124140000Y-64300000D03*
X114390000Y-101430000D03*
X139750000Y-60320000D03*
X174170000Y-21150000D03*
X120400000Y-107090000D03*
X137760000Y-65980000D03*
X167300000Y-67150000D03*
X116470000Y-122400000D03*
X125154000Y-52620000D03*
X105600000Y-73990000D03*
X122110000Y-56810000D03*
X173428000Y-102036000D03*
X103590000Y-86170000D03*
X122450000Y-118590000D03*
X171280000Y-57810000D03*
X122140000Y-64300000D03*
X145760000Y-65980000D03*
X133850000Y-122400000D03*
X118460000Y-116740000D03*
X120440000Y-114910000D03*
X124138000Y-52620000D03*
X114450000Y-120570000D03*
X165300000Y-71750000D03*
X101600000Y-105090000D03*
X157070000Y-109810000D03*
X127840000Y-116740000D03*
X120420000Y-108920000D03*
X165120000Y-128550000D03*
X120130000Y-66150000D03*
X109068000Y-37438000D03*
X149910000Y-45880000D03*
X130430000Y-81160000D03*
X135830000Y-118590000D03*
X173428000Y-100004000D03*
X159060000Y-113640000D03*
X144528000Y-87258000D03*
X147930000Y-55220000D03*
X165300000Y-59640000D03*
X169280000Y-57810000D03*
X133840000Y-116740000D03*
X149910000Y-34480000D03*
X111100000Y-38454000D03*
X167300000Y-71750000D03*
X167310000Y-77410000D03*
X159120000Y-128550000D03*
X175534000Y-86294000D03*
X103620000Y-114910000D03*
X103630000Y-120570000D03*
X129222000Y-42413000D03*
X150760000Y-87238000D03*
X175534000Y-87310000D03*
X120460000Y-124250000D03*
X129840000Y-116740000D03*
X176220000Y-48604000D03*
X125412000Y-49245600D03*
X107610000Y-88000000D03*
X165120000Y-121040000D03*
X107085000Y-47278000D03*
X144528000Y-88274000D03*
X129830000Y-118590000D03*
X111100000Y-39470000D03*
X107658000Y-29670000D03*
X120250000Y-54466000D03*
X131830000Y-101430000D03*
X133860000Y-108920000D03*
X105610000Y-110750000D03*
X103045000Y-38678000D03*
X136390000Y-90990000D03*
X122130000Y-58640000D03*
X101620000Y-114910000D03*
X163280000Y-69920000D03*
X135850000Y-122400000D03*
X101610000Y-95510000D03*
X127840000Y-107090000D03*
X105340000Y-34490000D03*
X108674000Y-28654000D03*
X103610000Y-103240000D03*
X131830000Y-120570000D03*
X161120000Y-128550000D03*
X101600000Y-73990000D03*
X165100000Y-119210000D03*
X157120000Y-128550000D03*
X139770000Y-64130000D03*
X145770000Y-64130000D03*
X151930000Y-47710000D03*
X134860800Y-48509000D03*
X124120000Y-62470000D03*
X118410000Y-103260000D03*
X143166600Y-49271000D03*
X101545000Y-40678000D03*
X151920000Y-49560000D03*
X175204000Y-47588000D03*
X107630000Y-118590000D03*
X105610000Y-88000000D03*
X151930000Y-36310000D03*
X176220000Y-47588000D03*
X137750000Y-62300000D03*
X163300000Y-59640000D03*
X141750000Y-60320000D03*
X167290000Y-73600000D03*
X127840000Y-124250000D03*
X155930000Y-36310000D03*
X118420000Y-108920000D03*
X143760000Y-58470000D03*
X103610000Y-110750000D03*
X107600000Y-75970000D03*
X151920000Y-38160000D03*
X174444000Y-102036000D03*
X146560000Y-89290000D03*
X165310000Y-65300000D03*
X108790000Y-21110000D03*
X133840000Y-105110000D03*
X126170000Y-51604000D03*
X122120000Y-60490000D03*
X127317000Y-42413000D03*
X114400000Y-105110000D03*
X153910000Y-34480000D03*
X173502000Y-86294000D03*
X124120000Y-60490000D03*
X122400000Y-105110000D03*
X151940000Y-53370000D03*
X120130000Y-58640000D03*
X157100000Y-119210000D03*
X171300000Y-59640000D03*
X122444000Y-80550000D03*
X115480600Y-47924800D03*
X176220000Y-49620000D03*
X129850000Y-110770000D03*
X114410000Y-110770000D03*
X145740000Y-56640000D03*
X155080000Y-126680000D03*
X171630000Y-21150000D03*
X122400000Y-107090000D03*
X123122000Y-50588000D03*
X114450000Y-118590000D03*
X155920000Y-40140000D03*
X103045000Y-46678000D03*
X169300000Y-67150000D03*
X121266000Y-54466000D03*
X120450000Y-118590000D03*
X149940000Y-41970000D03*
X139750000Y-62300000D03*
X119650000Y-29460000D03*
X143512000Y-87258000D03*
X151910000Y-34480000D03*
X118525000Y-39428000D03*
X122120000Y-62470000D03*
X125154000Y-51604000D03*
X146560000Y-87258000D03*
X161060000Y-113640000D03*
X163300000Y-71750000D03*
X135840000Y-116740000D03*
X136120000Y-29460000D03*
X151420000Y-116040000D03*
X107600000Y-73990000D03*
X126130000Y-66150000D03*
X161110000Y-124870000D03*
X107360000Y-49120000D03*
X145544000Y-89290000D03*
X175204000Y-48604000D03*
X109690000Y-29670000D03*
X174444000Y-101020000D03*
X116420000Y-108920000D03*
X151420000Y-115024000D03*
X119234000Y-53450000D03*
X155050000Y-107980000D03*
X129820000Y-114910000D03*
X163300000Y-79260000D03*
X123122000Y-52620000D03*
X147910000Y-34480000D03*
X167280000Y-69920000D03*
X157070000Y-117320000D03*
X174518000Y-87310000D03*
X122440000Y-114910000D03*
X151930000Y-55220000D03*
X173172000Y-47588000D03*
X118390000Y-101430000D03*
X103620000Y-77800000D03*
X167290000Y-61490000D03*
X140499600Y-49169400D03*
X135840000Y-107090000D03*
X174188000Y-49620000D03*
X131830000Y-118590000D03*
X105600000Y-75970000D03*
X171280000Y-69920000D03*
X155930000Y-47710000D03*
X147940000Y-53370000D03*
X107600000Y-91830000D03*
X118808000Y-41905000D03*
X165290000Y-61490000D03*
X120410000Y-110770000D03*
X175460000Y-102036000D03*
X155940000Y-53370000D03*
X159070000Y-109810000D03*
X109068000Y-39470000D03*
X151910000Y-45880000D03*
X171290000Y-63470000D03*
X111100000Y-37438000D03*
X163300000Y-67150000D03*
X127830000Y-120570000D03*
X118218000Y-53450000D03*
X175460000Y-101020000D03*
X174338000Y-31864000D03*
X108674000Y-27638000D03*
X125154000Y-50588000D03*
X161060000Y-111660000D03*
X165280000Y-57810000D03*
X122460000Y-124250000D03*
X163290000Y-75580000D03*
X169310000Y-77410000D03*
X165300000Y-79260000D03*
X103600000Y-73990000D03*
X116450000Y-118590000D03*
X147712000Y-87238000D03*
X147930000Y-43820000D03*
X137920000Y-80154000D03*
X129850000Y-103260000D03*
X155060000Y-113640000D03*
X147920000Y-51540000D03*
X171310000Y-77410000D03*
X159100000Y-119210000D03*
X174444000Y-100004000D03*
X135830000Y-120570000D03*
X107590000Y-101410000D03*
X174188000Y-48604000D03*
X101170000Y-21110000D03*
X143750000Y-62300000D03*
X143755000Y-36158000D03*
X107620000Y-93660000D03*
X174188000Y-47588000D03*
X105620000Y-93660000D03*
X157110000Y-124870000D03*
X171300000Y-79260000D03*
X108674000Y-29670000D03*
X114470000Y-122400000D03*
X116400000Y-107090000D03*
X163310000Y-65300000D03*
X163120000Y-121040000D03*
X120410000Y-103260000D03*
X120120000Y-60490000D03*
X101620000Y-108900000D03*
X149930000Y-47710000D03*
X169090000Y-21150000D03*
X103610000Y-88000000D03*
X137760000Y-58470000D03*
X114400000Y-107090000D03*
X150404000Y-110084000D03*
X165300000Y-67150000D03*
X118731800Y-36444000D03*
X161070000Y-109810000D03*
X120450000Y-120570000D03*
X131850000Y-110770000D03*
X105600000Y-89850000D03*
X123122000Y-51604000D03*
X171290000Y-73600000D03*
X147920000Y-49560000D03*
X141770000Y-64130000D03*
X127820000Y-114910000D03*
X147712000Y-88254000D03*
X103600000Y-105090000D03*
X157060000Y-113640000D03*
X101545000Y-44678000D03*
X145750000Y-60320000D03*
X109610000Y-79650000D03*
X163110000Y-124870000D03*
X133850000Y-103260000D03*
X133830000Y-118590000D03*
X161080000Y-115470000D03*
X135374000Y-90990000D03*
X173428000Y-101020000D03*
X136904000Y-80154000D03*
X131860000Y-108920000D03*
X103600000Y-91830000D03*
X165110000Y-122890000D03*
X124130000Y-66150000D03*
X167300000Y-79260000D03*
X141750000Y-62300000D03*
X107630000Y-120570000D03*
X148728000Y-89270000D03*
X150404000Y-105310000D03*
X167290000Y-63470000D03*
X122410000Y-103260000D03*
X159070000Y-117320000D03*
X176550000Y-87310000D03*
X126170000Y-52620000D03*
X101630000Y-118590000D03*
X155940000Y-41970000D03*
X161070000Y-117320000D03*
X147712000Y-89270000D03*
X109630000Y-120570000D03*
X161050000Y-107980000D03*
X103695000Y-41524000D03*
X105640000Y-116740000D03*
X175534000Y-88326000D03*
X121266000Y-53450000D03*
X141740000Y-56640000D03*
X171290000Y-75580000D03*
X105590000Y-70310000D03*
X153940000Y-41970000D03*
X105600000Y-107070000D03*
X175354000Y-30848000D03*
X122460000Y-116740000D03*
X143770000Y-64130000D03*
X176370000Y-32880000D03*
X105610000Y-103240000D03*
X155060000Y-124850000D03*
X153930000Y-55220000D03*
X169310000Y-65300000D03*
X122925000Y-39538000D03*
X147940000Y-41970000D03*
X110084000Y-37438000D03*
X153920000Y-49560000D03*
X101590000Y-101410000D03*
X124138000Y-50588000D03*
X103640000Y-116740000D03*
X174518000Y-86294000D03*
X129679200Y-47366000D03*
X129414000Y-80144000D03*
X161120000Y-121040000D03*
X121230000Y-49010000D03*
X165290000Y-63470000D03*
X105590000Y-86170000D03*
X157060000Y-111660000D03*
X120250000Y-53450000D03*
X116450000Y-120570000D03*
X109620000Y-93660000D03*
X109315000Y-43208000D03*
X176370000Y-31864000D03*
X141200000Y-29460000D03*
X109690000Y-27638000D03*
X157110000Y-122890000D03*
X127270000Y-29460000D03*
X145544000Y-87258000D03*
X165110000Y-124870000D03*
X139740000Y-56640000D03*
X105630000Y-118590000D03*
X103630000Y-118590000D03*
X143740000Y-56640000D03*
X131850000Y-103260000D03*
X139760000Y-65980000D03*
X101545000Y-43678000D03*
X155070000Y-117320000D03*
X163290000Y-63470000D03*
X153930000Y-47710000D03*
X114460000Y-124250000D03*
X101610000Y-79650000D03*
X173322000Y-31864000D03*
X173502000Y-88326000D03*
X150404000Y-104294000D03*
X105620000Y-77800000D03*
X150760000Y-88254000D03*
X131850000Y-122400000D03*
X109600000Y-91830000D03*
X105610000Y-95510000D03*
X133820000Y-114910000D03*
X127850000Y-122400000D03*
X101600000Y-75970000D03*
X120110000Y-56810000D03*
X163310000Y-77410000D03*
X129830000Y-101430000D03*
X125920000Y-42133600D03*
X101610000Y-88000000D03*
X159110000Y-122890000D03*
X157120000Y-121040000D03*
X103620000Y-108900000D03*
X127850000Y-110770000D03*
X124000000Y-41150000D03*
X118450000Y-120570000D03*
X126120000Y-62470000D03*
X109600000Y-105090000D03*
X149744000Y-87238000D03*
X105600000Y-91830000D03*
X130430000Y-80144000D03*
X103590000Y-70310000D03*
X101590000Y-70310000D03*
X136390000Y-89974000D03*
X103610000Y-79650000D03*
X101545000Y-42678000D03*
X101600000Y-89850000D03*
X150404000Y-116040000D03*
X107610000Y-103240000D03*
X114440000Y-114910000D03*
X122420000Y-108920000D03*
X131840000Y-124250000D03*
X175460000Y-100004000D03*
X117715800Y-48813800D03*
X109620000Y-108900000D03*
X103620000Y-93660000D03*
X107590000Y-86170000D03*
X109590000Y-70310000D03*
X101545000Y-39678000D03*
X107610000Y-95510000D03*
X124730000Y-29460000D03*
X173172000Y-49620000D03*
X165130000Y-126700000D03*
X159060000Y-111660000D03*
X167280000Y-57810000D03*
X151420000Y-110084000D03*
X155070000Y-128530000D03*
X153930000Y-43820000D03*
X129840000Y-107090000D03*
X131820000Y-114910000D03*
X155070000Y-121020000D03*
X103600000Y-75970000D03*
X135374000Y-89974000D03*
X118410000Y-110770000D03*
X135820000Y-114910000D03*
X101600000Y-91830000D03*
X118440000Y-114910000D03*
X155060000Y-122870000D03*
X116410000Y-110770000D03*
X103610000Y-95510000D03*
X116400000Y-105110000D03*
X139760000Y-58470000D03*
X141760000Y-65980000D03*
X161100000Y-119210000D03*
X127830000Y-118590000D03*
X155510000Y-29520000D03*
X129850000Y-122400000D03*
X118218000Y-52434000D03*
X171300000Y-67150000D03*
X127355000Y-41098000D03*
X155070000Y-109810000D03*
X101620000Y-93660000D03*
X118218000Y-54466000D03*
X152970000Y-29520000D03*
X127860000Y-108920000D03*
X161130000Y-126700000D03*
X169290000Y-61490000D03*
X107658000Y-27638000D03*
X109610000Y-72140000D03*
X135860000Y-108920000D03*
X123460000Y-80550000D03*
X163280000Y-57810000D03*
X105610000Y-72140000D03*
X105630000Y-120570000D03*
X159080000Y-115470000D03*
X107600000Y-89850000D03*
X107610000Y-72140000D03*
X131840000Y-116740000D03*
X122410000Y-110770000D03*
X169280000Y-69920000D03*
X143760000Y-65980000D03*
X167290000Y-75580000D03*
X114420000Y-108920000D03*
X133830000Y-101430000D03*
X109610000Y-110750000D03*
X140474200Y-50287000D03*
X146560000Y-88274000D03*
X151420000Y-105310000D03*
X101610000Y-72140000D03*
X153910000Y-45880000D03*
X129830000Y-120570000D03*
X110084000Y-39470000D03*
X151930000Y-43820000D03*
X147920000Y-38160000D03*
X161110000Y-122890000D03*
X120400000Y-105110000D03*
X109600000Y-89850000D03*
X121266000Y-52434000D03*
X150760000Y-89270000D03*
X119234000Y-54466000D03*
X116460000Y-124250000D03*
X107620000Y-77800000D03*
X101590000Y-86170000D03*
X169290000Y-63470000D03*
X147930000Y-36310000D03*
X110084000Y-38454000D03*
X127830000Y-101430000D03*
X135850000Y-110770000D03*
X109590000Y-86170000D03*
X107620000Y-108900000D03*
X109610000Y-88000000D03*
X109610000Y-103240000D03*
X129840000Y-124250000D03*
X103710000Y-21110000D03*
X119234000Y-52434000D03*
X105590000Y-101410000D03*
X153920000Y-38160000D03*
X173322000Y-30848000D03*
X159050000Y-107980000D03*
X124130000Y-58640000D03*
X126120000Y-60490000D03*
X103600000Y-107070000D03*
X107600000Y-107070000D03*
X173322000Y-32880000D03*
X151420000Y-111100000D03*
X109600000Y-107070000D03*
X143512000Y-89290000D03*
X109690000Y-28654000D03*
X135840000Y-124250000D03*
X151920000Y-40140000D03*
X129414000Y-81160000D03*
X105610000Y-79650000D03*
X155920000Y-51540000D03*
X150430000Y-29520000D03*
X103590000Y-101410000D03*
X126140000Y-64300000D03*
X129840000Y-105110000D03*
X175354000Y-31864000D03*
X149920000Y-51540000D03*
X171300000Y-71750000D03*
X131840000Y-107090000D03*
X120460000Y-116740000D03*
X137770000Y-64130000D03*
X135850000Y-103260000D03*
X149744000Y-89270000D03*
X169300000Y-79260000D03*
X159110000Y-124870000D03*
X107600000Y-105090000D03*
X138660000Y-29460000D03*
X149920000Y-49560000D03*
X169290000Y-75580000D03*
X101545000Y-45678000D03*
X109590000Y-101410000D03*
X165290000Y-73600000D03*
X103600000Y-89850000D03*
X149930000Y-36310000D03*
X123460000Y-79534000D03*
X174518000Y-88326000D03*
X109610000Y-95510000D03*
X153920000Y-40140000D03*
X171310000Y-65300000D03*
X127840000Y-105110000D03*
X142885000Y-36138000D03*
X147910000Y-45880000D03*
X169300000Y-71750000D03*
X122390000Y-101430000D03*
X113677200Y-46096000D03*
X126110000Y-56810000D03*
X101610000Y-110750000D03*
X129222000Y-41270000D03*
X133840000Y-107090000D03*
X155050000Y-119190000D03*
X149744000Y-88254000D03*
X151940000Y-41970000D03*
X147930000Y-47710000D03*
X114460000Y-116740000D03*
X137740000Y-56640000D03*
X173172000Y-48604000D03*
X159120000Y-121040000D03*
X133830000Y-120570000D03*
X163130000Y-126700000D03*
X129095000Y-40254000D03*
X169300000Y-59640000D03*
X109620000Y-77800000D03*
X118470000Y-122400000D03*
X149920000Y-38160000D03*
X107658000Y-28654000D03*
X176370000Y-30848000D03*
X133580000Y-29460000D03*
X157080000Y-115470000D03*
X176476000Y-101020000D03*
X105620000Y-114910000D03*
X145544000Y-88274000D03*
X126170000Y-50588000D03*
X176550000Y-86294000D03*
X167310000Y-65300000D03*
X107610000Y-110750000D03*
X122190000Y-29460000D03*
X149920000Y-40140000D03*
X105600000Y-105090000D03*
X176710000Y-21150000D03*
X150404000Y-111100000D03*
X107640000Y-116740000D03*
X120250000Y-52434000D03*
X136904000Y-81170000D03*
X163100000Y-119210000D03*
X167300000Y-59640000D03*
X155930000Y-43820000D03*
X133840000Y-124250000D03*
X155080000Y-115470000D03*
X116410000Y-103260000D03*
X145760000Y-58470000D03*
X155930000Y-55220000D03*
X116390000Y-101430000D03*
X163120000Y-128550000D03*
X153920000Y-51540000D03*
X173502000Y-87310000D03*
X137750000Y-60320000D03*
X141760000Y-58470000D03*
X143750000Y-60320000D03*
X145750000Y-62300000D03*
X176550000Y-88326000D03*
X122130000Y-66150000D03*
X171290000Y-61490000D03*
X169290000Y-73600000D03*
X153940000Y-53370000D03*
X176476000Y-100004000D03*
X174338000Y-32880000D03*
X153930000Y-36310000D03*
X148728000Y-87238000D03*
X155910000Y-34480000D03*
X127850000Y-103260000D03*
X149930000Y-55220000D03*
X155060000Y-111660000D03*
X103610000Y-72140000D03*
X165290000Y-75580000D03*
X109600000Y-75970000D03*
X101610000Y-103240000D03*
X165280000Y-69920000D03*
X157130000Y-126700000D03*
X122450000Y-120570000D03*
X107590000Y-70310000D03*
X101640000Y-116740000D03*
X120140000Y-64300000D03*
X109620000Y-114910000D03*
X149930000Y-43820000D03*
X149940000Y-53370000D03*
X101545000Y-41678000D03*
X135830000Y-101430000D03*
X118450000Y-118590000D03*
X118400000Y-107090000D03*
X124110000Y-56810000D03*
X147890000Y-29520000D03*
X133850000Y-110770000D03*
X106250000Y-21110000D03*
X163290000Y-73600000D03*
X126130000Y-58640000D03*
X114410000Y-103260000D03*
X101630000Y-120570000D03*
X174338000Y-30848000D03*
X116460000Y-116740000D03*
X129670000Y-48290000D03*
X109600000Y-73990000D03*
X109640000Y-116740000D03*
X135840000Y-105110000D03*
X120120000Y-62470000D03*
X105620000Y-108900000D03*
%TO.N,+3.3V*%
X144880000Y-96020000D03*
X121520400Y-46979600D03*
X134400000Y-95530000D03*
X103740000Y-31200000D03*
X112240000Y-49930000D03*
X128030000Y-52550000D03*
%TO.N,/A0*%
X131260000Y-47510000D03*
%TO.N,VBUS*%
X108250000Y-46280000D03*
X112160000Y-52710000D03*
X107352600Y-46273800D03*
X107124000Y-40152400D03*
%TO.N,/RST*%
X134780000Y-31240000D03*
X136501300Y-46731000D03*
%TO.N,+BATT*%
X118800000Y-33140000D03*
X116340000Y-42200000D03*
%TO.N,Net-(JP1-A)*%
X118820194Y-38303915D03*
%TO.N,Net-(U5-FB)*%
X126500000Y-79660000D03*
X123680000Y-73550000D03*
%TO.N,/D+*%
X104838000Y-42286000D03*
X104838000Y-43385500D03*
%TO.N,/D-*%
X105087042Y-41560825D03*
%TO.N,Net-(SW4A-B)*%
X105380000Y-32960000D03*
X124850000Y-34700000D03*
%TO.N,/RXD2*%
X129626156Y-45625100D03*
%TO.N,/TXD2*%
X129530214Y-44697531D03*
%TO.N,VBUS_D*%
X112860000Y-40720000D03*
X109730000Y-48700000D03*
%TO.N,/PA8*%
X118180000Y-34230000D03*
X125540000Y-36810000D03*
%TO.N,/CH340_PWR*%
X111188000Y-45588000D03*
D25*
%TO.N,Net-(J11-Pin_1)*%
X141600000Y-94900000D03*
%TO.N,Net-(J11-Pin_2)*%
X143110000Y-95710000D03*
%TO.N,Net-(J11-Pin_4)*%
X151220000Y-93380000D03*
D24*
%TO.N,Net-(JP4-A)*%
X114439200Y-37053600D03*
%TO.N,Net-(JP5-A)*%
X111091816Y-44613482D03*
%TO.N,Net-(JP6-A)*%
X111238800Y-43708400D03*
%TO.N,Port2_1*%
X140150000Y-90640000D03*
X133850000Y-39040000D03*
%TO.N,Port2_2*%
X145640000Y-94230000D03*
X134900000Y-37080000D03*
%TO.N,Port1_2*%
X132880000Y-38390000D03*
X135010000Y-93260000D03*
%TO.N,Port1_1*%
X134090000Y-93890000D03*
X131870000Y-39140000D03*
%TO.N,/SWDIO*%
X139509000Y-41955800D03*
%TO.N,/SWCLK*%
X140298999Y-39485000D03*
%TO.N,Net-(R8-Pad1)*%
X119158100Y-47557500D03*
X105250000Y-57230000D03*
%TO.N,/EN*%
X105180759Y-48969241D03*
X116810000Y-49375500D03*
%TD*%
D26*
%TO.N,+3.3V*%
X128030000Y-89160000D02*
X134400000Y-95530000D01*
D27*
X102355200Y-38610816D02*
X102485000Y-38481016D01*
D26*
X134610000Y-95320000D02*
X134400000Y-95530000D01*
X144170000Y-94430000D02*
X143490000Y-93750000D01*
D27*
X103620000Y-44986485D02*
X102355200Y-43721685D01*
D26*
X136180000Y-93750000D02*
X134610000Y-95320000D01*
D27*
X112240000Y-49930000D02*
X106953984Y-49930000D01*
D26*
X121520400Y-46979600D02*
X121398800Y-46858000D01*
X128030000Y-52550000D02*
X128030000Y-89160000D01*
X121398800Y-46858000D02*
X112549200Y-46858000D01*
X143490000Y-93750000D02*
X136180000Y-93750000D01*
X144880000Y-96020000D02*
X144170000Y-95310000D01*
D27*
X106953984Y-49930000D02*
X103620000Y-46596016D01*
D26*
X144170000Y-95310000D02*
X144170000Y-94430000D01*
D27*
X102355200Y-43721685D02*
X102355200Y-38610816D01*
X103620000Y-46596016D02*
X103620000Y-44986485D01*
X102485000Y-32455000D02*
X103740000Y-31200000D01*
X102485000Y-38481016D02*
X102485000Y-32455000D01*
%TO.N,/A0*%
X120969800Y-39495200D02*
X124604600Y-43130000D01*
X128846567Y-43130000D02*
X131260000Y-45543433D01*
X124604600Y-43130000D02*
X128846567Y-43130000D01*
X131260000Y-45543433D02*
X131260000Y-47510000D01*
%TO.N,VBUS*%
X102755200Y-41346200D02*
X102755200Y-43556000D01*
D26*
X111775050Y-49405000D02*
X111950050Y-49230000D01*
D27*
X103364800Y-40736600D02*
X102755200Y-41346200D01*
X106539800Y-40736600D02*
X103364800Y-40736600D01*
D26*
X108700000Y-49320000D02*
X108785000Y-49405000D01*
X112940000Y-49640050D02*
X112940000Y-50250000D01*
D27*
X106641400Y-44292600D02*
X107352600Y-45003800D01*
D26*
X112529950Y-49230000D02*
X112940000Y-49640050D01*
D27*
X102755200Y-43556000D02*
X103491800Y-44292600D01*
D26*
X108700000Y-46730000D02*
X108700000Y-49320000D01*
D27*
X107352600Y-45003800D02*
X107352600Y-46273800D01*
D26*
X111950050Y-49230000D02*
X112529950Y-49230000D01*
D27*
X103491800Y-44292600D02*
X106641400Y-44292600D01*
D26*
X108785000Y-49405000D02*
X111775050Y-49405000D01*
D27*
X107124000Y-40152400D02*
X106539800Y-40736600D01*
D26*
X112160000Y-51030000D02*
X112160000Y-52710000D01*
X112940000Y-50250000D02*
X112160000Y-51030000D01*
X108250000Y-46280000D02*
X108700000Y-46730000D01*
D27*
%TO.N,/RST*%
X136501300Y-46731000D02*
X136501300Y-40924900D01*
D28*
X136250700Y-37759335D02*
X136833300Y-38341935D01*
X136833300Y-38341935D02*
X136833300Y-39305500D01*
X134780000Y-31240000D02*
X136250700Y-32710700D01*
X136833300Y-39305500D02*
X137477000Y-39949200D01*
X136250700Y-32710700D02*
X136250700Y-37759335D01*
D27*
X136501300Y-40924900D02*
X137477000Y-39949200D01*
D26*
%TO.N,+BATT*%
X117070000Y-33140000D02*
X118800000Y-33140000D01*
X115179800Y-39785200D02*
X114664114Y-39785200D01*
X116340000Y-42200000D02*
X116340000Y-40945400D01*
X116340000Y-40945400D02*
X115179800Y-39785200D01*
X113739200Y-36470800D02*
X117070000Y-33140000D01*
X114664114Y-39785200D02*
X113739200Y-38860286D01*
X113739200Y-38860286D02*
X113739200Y-36470800D01*
D27*
%TO.N,Net-(JP1-A)*%
X119669800Y-39495200D02*
X119669800Y-39153521D01*
X119669800Y-39153521D02*
X118820194Y-38303915D01*
D26*
%TO.N,Net-(U5-FB)*%
X126500000Y-79660000D02*
X126500000Y-76370000D01*
X126500000Y-76370000D02*
X123680000Y-73550000D01*
D28*
%TO.N,/D+*%
X104838000Y-43385500D02*
X104838000Y-42286000D01*
%TO.N,/D-*%
X106235000Y-41524000D02*
X105123867Y-41524000D01*
X105123867Y-41524000D02*
X105087042Y-41560825D01*
D27*
%TO.N,Net-(SW4A-B)*%
X124850000Y-34700000D02*
X122715000Y-32565000D01*
X105775000Y-32565000D02*
X105380000Y-32960000D01*
X122715000Y-32565000D02*
X105775000Y-32565000D01*
D28*
%TO.N,/RXD2*%
X128747900Y-45625100D02*
X129626156Y-45625100D01*
X125875000Y-47058000D02*
X127315000Y-47058000D01*
X127315000Y-47058000D02*
X128747900Y-45625100D01*
%TO.N,/TXD2*%
X129340683Y-44508000D02*
X129530214Y-44697531D01*
X127625000Y-44508000D02*
X129340683Y-44508000D01*
D26*
%TO.N,VBUS_D*%
X112860000Y-40720000D02*
X109730000Y-43850000D01*
X109730000Y-43850000D02*
X109730000Y-48700000D01*
D27*
%TO.N,/PA8*%
X118180000Y-34230000D02*
X122960000Y-34230000D01*
X122960000Y-34230000D02*
X125540000Y-36810000D01*
%TO.N,/CH340_PWR*%
X111249200Y-46858000D02*
X111249200Y-45649200D01*
X111249200Y-45649200D02*
X111188000Y-45588000D01*
D29*
%TO.N,Net-(J11-Pin_1)*%
X140720000Y-114450000D02*
X144020000Y-117750000D01*
X140720000Y-95780000D02*
X140720000Y-114450000D01*
X141600000Y-94900000D02*
X140720000Y-95780000D01*
%TO.N,Net-(J11-Pin_2)*%
X141870000Y-110520000D02*
X141870000Y-96950000D01*
X141870000Y-96950000D02*
X143110000Y-95710000D01*
X144020000Y-112670000D02*
X141870000Y-110520000D01*
%TO.N,Net-(J11-Pin_4)*%
X144020000Y-102510000D02*
X146180000Y-102510000D01*
X146180000Y-102510000D02*
X148870000Y-99820000D01*
X148870000Y-99820000D02*
X148870000Y-95730000D01*
X148870000Y-95730000D02*
X151220000Y-93380000D01*
D27*
%TO.N,Net-(JP4-A)*%
X115175800Y-37790200D02*
X114439200Y-37053600D01*
X115175800Y-38522200D02*
X115175800Y-37790200D01*
%TO.N,Net-(JP5-A)*%
X112269998Y-44613482D02*
X113100247Y-45443731D01*
X113100247Y-45443731D02*
X123980730Y-45443730D01*
X111091816Y-44613482D02*
X112269998Y-44613482D01*
X124575000Y-46038000D02*
X124575000Y-47058000D01*
X123980730Y-45443730D02*
X124575000Y-46038000D01*
%TO.N,Net-(JP6-A)*%
X111238800Y-43708400D02*
X111640362Y-44109962D01*
X112478562Y-44109962D02*
X113308811Y-44940211D01*
X125892789Y-44940211D02*
X126325000Y-44508000D01*
X111640362Y-44109962D02*
X112478562Y-44109962D01*
X113308811Y-44940211D02*
X125892789Y-44940211D01*
D26*
%TO.N,Port2_1*%
X140150000Y-90640000D02*
X133850000Y-84340000D01*
X133850000Y-84340000D02*
X133850000Y-39040000D01*
%TO.N,Port2_2*%
X135770000Y-37950000D02*
X135770000Y-84360000D01*
X134900000Y-37080000D02*
X135770000Y-37950000D01*
X135770000Y-84360000D02*
X145640000Y-94230000D01*
%TO.N,Port1_2*%
X132880000Y-38390000D02*
X132880000Y-91130000D01*
X132880000Y-91130000D02*
X135010000Y-93260000D01*
%TO.N,Port1_1*%
X132029400Y-39299400D02*
X132029400Y-91829400D01*
X132029400Y-91829400D02*
X134090000Y-93890000D01*
X131870000Y-39140000D02*
X132029400Y-39299400D01*
D28*
%TO.N,/SWDIO*%
X138772400Y-41219200D02*
X139509000Y-41955800D01*
X138747000Y-41219200D02*
X138772400Y-41219200D01*
%TO.N,/SWCLK*%
X138747000Y-39949200D02*
X139818000Y-39949200D01*
X139818000Y-39949200D02*
X140118600Y-39648600D01*
X140118600Y-39648600D02*
X140135399Y-39648600D01*
X140135399Y-39648600D02*
X140298999Y-39485000D01*
D27*
%TO.N,Net-(R8-Pad1)*%
X118290800Y-49051973D02*
X110112773Y-57230000D01*
X110112773Y-57230000D02*
X105250000Y-57230000D01*
X119158100Y-47557500D02*
X118290800Y-48424800D01*
X118290800Y-48424800D02*
X118290800Y-49051973D01*
%TO.N,/EN*%
X112900500Y-53285000D02*
X109496518Y-53285000D01*
X116810000Y-49375500D02*
X112900500Y-53285000D01*
X109496518Y-53285000D02*
X105180759Y-48969241D01*
%TD*%
%TA.AperFunction,Conductor*%
%TO.N,GND*%
G36*
X110809131Y-43441913D02*
G01*
X110830805Y-43494239D01*
X110820893Y-43531235D01*
X110819003Y-43534507D01*
X110818999Y-43534517D01*
X110788300Y-43649088D01*
X110788300Y-43767711D01*
X110818999Y-43882282D01*
X110819001Y-43882287D01*
X110878308Y-43985009D01*
X110878309Y-43985010D01*
X110878311Y-43985013D01*
X110960625Y-44067327D01*
X110982299Y-44119652D01*
X110960625Y-44171978D01*
X110927457Y-44191129D01*
X110917933Y-44193681D01*
X110917928Y-44193683D01*
X110815206Y-44252990D01*
X110731324Y-44336872D01*
X110672017Y-44439594D01*
X110672015Y-44439599D01*
X110641316Y-44554170D01*
X110641316Y-44672793D01*
X110672015Y-44787364D01*
X110672017Y-44787369D01*
X110731324Y-44890091D01*
X110731325Y-44890092D01*
X110731327Y-44890095D01*
X110815203Y-44973971D01*
X110815205Y-44973972D01*
X110815206Y-44973973D01*
X110917928Y-45033280D01*
X110917930Y-45033281D01*
X110970672Y-45047413D01*
X111015605Y-45081890D01*
X111022998Y-45138043D01*
X110988520Y-45182976D01*
X110911391Y-45227507D01*
X110827508Y-45311390D01*
X110768201Y-45414112D01*
X110768199Y-45414117D01*
X110737500Y-45528688D01*
X110737500Y-45647311D01*
X110768199Y-45761882D01*
X110768201Y-45761887D01*
X110827508Y-45864609D01*
X110827509Y-45864610D01*
X110827511Y-45864613D01*
X110875566Y-45912668D01*
X110905097Y-45942199D01*
X110926771Y-45994525D01*
X110905097Y-46046851D01*
X110889772Y-46058610D01*
X110864439Y-46073236D01*
X110832235Y-46097948D01*
X110739148Y-46191035D01*
X110714433Y-46223242D01*
X110648609Y-46337254D01*
X110648605Y-46337263D01*
X110633073Y-46374760D01*
X110598999Y-46501924D01*
X110598997Y-46501933D01*
X110593700Y-46542174D01*
X110593700Y-47173825D01*
X110598997Y-47214066D01*
X110598999Y-47214075D01*
X110633073Y-47341239D01*
X110648605Y-47378736D01*
X110648609Y-47378745D01*
X110714433Y-47492757D01*
X110728049Y-47510500D01*
X110739146Y-47524962D01*
X110832238Y-47618054D01*
X110845885Y-47628526D01*
X110864442Y-47642766D01*
X110919820Y-47674738D01*
X110978457Y-47708592D01*
X111015960Y-47724126D01*
X111143127Y-47758201D01*
X111143130Y-47758201D01*
X111143133Y-47758202D01*
X111159198Y-47760317D01*
X111183374Y-47763500D01*
X111183375Y-47763500D01*
X111749202Y-47763500D01*
X111749202Y-47763499D01*
X111826950Y-47742667D01*
X111846874Y-47722743D01*
X111899200Y-47701069D01*
X111951526Y-47722743D01*
X111971450Y-47742667D01*
X112049197Y-47763499D01*
X112049198Y-47763500D01*
X112049200Y-47763500D01*
X112615025Y-47763500D01*
X112615026Y-47763500D01*
X112640251Y-47760178D01*
X112655266Y-47758202D01*
X112655266Y-47758201D01*
X112655273Y-47758201D01*
X112782440Y-47724126D01*
X112819943Y-47708592D01*
X112933957Y-47642766D01*
X112966162Y-47618054D01*
X113059254Y-47524962D01*
X113083966Y-47492757D01*
X113149792Y-47378743D01*
X113165326Y-47341240D01*
X113172800Y-47313346D01*
X113207278Y-47268414D01*
X113244278Y-47258500D01*
X118682364Y-47258500D01*
X118734690Y-47280174D01*
X118756364Y-47332500D01*
X118746449Y-47369501D01*
X118738302Y-47383610D01*
X118738299Y-47383617D01*
X118707600Y-47498188D01*
X118707600Y-47587731D01*
X118685926Y-47640057D01*
X118134742Y-48191243D01*
X118057242Y-48268743D01*
X118015300Y-48370000D01*
X118015300Y-48907205D01*
X117993626Y-48959531D01*
X117361403Y-49591753D01*
X117309077Y-49613427D01*
X117256751Y-49591753D01*
X117235077Y-49539427D01*
X117237598Y-49520279D01*
X117260500Y-49434809D01*
X117260500Y-49316191D01*
X117260500Y-49316189D01*
X117260499Y-49316188D01*
X117229800Y-49201617D01*
X117229798Y-49201612D01*
X117170491Y-49098890D01*
X117170490Y-49098889D01*
X117170489Y-49098887D01*
X117086613Y-49015011D01*
X117086610Y-49015009D01*
X117086609Y-49015008D01*
X116983887Y-48955701D01*
X116983882Y-48955699D01*
X116869311Y-48925000D01*
X116869309Y-48925000D01*
X116750691Y-48925000D01*
X116750689Y-48925000D01*
X116636117Y-48955699D01*
X116636112Y-48955701D01*
X116533390Y-49015008D01*
X116449508Y-49098890D01*
X116390201Y-49201612D01*
X116390199Y-49201617D01*
X116359500Y-49316188D01*
X116359500Y-49405732D01*
X116337826Y-49458058D01*
X112808059Y-52987826D01*
X112755733Y-53009500D01*
X112635448Y-53009500D01*
X112583122Y-52987826D01*
X112561448Y-52935500D01*
X112571362Y-52898501D01*
X112579796Y-52883891D01*
X112579795Y-52883891D01*
X112579799Y-52883886D01*
X112610499Y-52769311D01*
X112610500Y-52769311D01*
X112610500Y-52650689D01*
X112610499Y-52650688D01*
X112579800Y-52536117D01*
X112579796Y-52536108D01*
X112570414Y-52519857D01*
X112560500Y-52482858D01*
X112560500Y-51226543D01*
X112582173Y-51174218D01*
X113185910Y-50570481D01*
X113185913Y-50570480D01*
X113260480Y-50495913D01*
X113313207Y-50404587D01*
X113319661Y-50380500D01*
X113340501Y-50302727D01*
X113340501Y-50197273D01*
X113340501Y-50192744D01*
X113340500Y-50192726D01*
X113340500Y-49587324D01*
X113325007Y-49529500D01*
X113325007Y-49529499D01*
X113313208Y-49485465D01*
X113313206Y-49485460D01*
X113260482Y-49394140D01*
X113260481Y-49394139D01*
X113260480Y-49394137D01*
X112775863Y-48909520D01*
X112775860Y-48909518D01*
X112775859Y-48909517D01*
X112684542Y-48856795D01*
X112684538Y-48856793D01*
X112646586Y-48846624D01*
X112582677Y-48829500D01*
X111897323Y-48829500D01*
X111897321Y-48829500D01*
X111795467Y-48856791D01*
X111795458Y-48856795D01*
X111704136Y-48909520D01*
X111630831Y-48982826D01*
X111578505Y-49004500D01*
X110202561Y-49004500D01*
X110150235Y-48982826D01*
X110128561Y-48930500D01*
X110138475Y-48893500D01*
X110149798Y-48873887D01*
X110149799Y-48873886D01*
X110180499Y-48759311D01*
X110180500Y-48759311D01*
X110180500Y-48640689D01*
X110180499Y-48640688D01*
X110149800Y-48526117D01*
X110149796Y-48526108D01*
X110140414Y-48509857D01*
X110130500Y-48472858D01*
X110130500Y-44046544D01*
X110152173Y-43994219D01*
X110704480Y-43441912D01*
X110756805Y-43420239D01*
X110809131Y-43441913D01*
G37*
%TD.AperFunction*%
%TA.AperFunction,Conductor*%
G36*
X106548959Y-44589774D02*
G01*
X107055426Y-45096241D01*
X107077100Y-45148567D01*
X107077100Y-45881546D01*
X107055426Y-45933872D01*
X106992108Y-45997190D01*
X106932801Y-46099912D01*
X106932799Y-46099917D01*
X106902100Y-46214488D01*
X106902100Y-46333111D01*
X106932799Y-46447682D01*
X106932801Y-46447687D01*
X106992108Y-46550409D01*
X106992109Y-46550410D01*
X106992111Y-46550413D01*
X107075987Y-46634289D01*
X107075989Y-46634290D01*
X107075990Y-46634291D01*
X107170719Y-46688983D01*
X107178714Y-46693599D01*
X107178715Y-46693599D01*
X107178717Y-46693600D01*
X107213750Y-46702987D01*
X107293288Y-46724299D01*
X107293289Y-46724300D01*
X107293291Y-46724300D01*
X107411911Y-46724300D01*
X107411911Y-46724299D01*
X107526486Y-46693599D01*
X107629213Y-46634289D01*
X107713089Y-46550413D01*
X107735424Y-46511728D01*
X107780357Y-46477250D01*
X107836510Y-46484642D01*
X107863596Y-46511728D01*
X107889508Y-46556609D01*
X107889509Y-46556610D01*
X107889511Y-46556613D01*
X107973387Y-46640489D01*
X107973389Y-46640490D01*
X107973390Y-46640491D01*
X108024944Y-46670256D01*
X108076114Y-46699799D01*
X108094242Y-46704656D01*
X108127415Y-46723808D01*
X108277826Y-46874219D01*
X108299500Y-46926545D01*
X108299500Y-49267273D01*
X108299500Y-49372727D01*
X108316135Y-49434810D01*
X108326793Y-49474588D01*
X108326795Y-49474592D01*
X108366579Y-49543500D01*
X108373971Y-49599653D01*
X108339493Y-49644586D01*
X108302493Y-49654500D01*
X107098752Y-49654500D01*
X107046426Y-49632826D01*
X106054288Y-48640688D01*
X105050424Y-47636825D01*
X105028751Y-47584500D01*
X105050425Y-47532174D01*
X105102751Y-47510500D01*
X106144067Y-47510500D01*
X106144069Y-47510500D01*
X106269744Y-47485501D01*
X106388127Y-47436465D01*
X106494669Y-47365276D01*
X106585276Y-47274669D01*
X106656465Y-47168127D01*
X106705501Y-47049744D01*
X106730500Y-46924069D01*
X106730500Y-46795931D01*
X106711378Y-46699799D01*
X106705502Y-46670260D01*
X106705501Y-46670257D01*
X106697448Y-46650816D01*
X106656465Y-46551873D01*
X106585276Y-46445331D01*
X106494669Y-46354724D01*
X106388127Y-46283535D01*
X106388124Y-46283533D01*
X106388123Y-46283533D01*
X106269742Y-46234498D01*
X106269739Y-46234497D01*
X106179696Y-46216586D01*
X106144069Y-46209500D01*
X104915931Y-46209500D01*
X104884726Y-46215707D01*
X104790260Y-46234497D01*
X104790257Y-46234498D01*
X104671876Y-46283533D01*
X104565331Y-46354723D01*
X104565330Y-46354725D01*
X104474725Y-46445330D01*
X104474723Y-46445331D01*
X104403533Y-46551876D01*
X104354498Y-46670257D01*
X104354497Y-46670260D01*
X104336605Y-46760212D01*
X104305139Y-46807304D01*
X104249590Y-46818353D01*
X104211701Y-46798101D01*
X103917174Y-46503574D01*
X103895500Y-46451248D01*
X103895500Y-45354231D01*
X104454500Y-45354231D01*
X104454500Y-45505768D01*
X104493717Y-45652130D01*
X104493721Y-45652139D01*
X104569483Y-45783362D01*
X104569485Y-45783365D01*
X104676635Y-45890515D01*
X104807865Y-45966281D01*
X104954231Y-46005499D01*
X104954232Y-46005500D01*
X104954234Y-46005500D01*
X105105768Y-46005500D01*
X105105768Y-46005499D01*
X105252135Y-45966281D01*
X105383365Y-45890515D01*
X105490515Y-45783365D01*
X105566281Y-45652135D01*
X105605499Y-45505768D01*
X105605500Y-45505768D01*
X105605500Y-45354232D01*
X105605499Y-45354231D01*
X105604090Y-45348974D01*
X105566281Y-45207865D01*
X105490515Y-45076635D01*
X105383365Y-44969485D01*
X105383362Y-44969483D01*
X105252139Y-44893721D01*
X105252130Y-44893717D01*
X105105768Y-44854500D01*
X105105766Y-44854500D01*
X104954234Y-44854500D01*
X104954232Y-44854500D01*
X104807869Y-44893717D01*
X104807860Y-44893721D01*
X104676637Y-44969483D01*
X104569483Y-45076637D01*
X104493721Y-45207860D01*
X104493717Y-45207869D01*
X104454500Y-45354231D01*
X103895500Y-45354231D01*
X103895500Y-44931685D01*
X103865556Y-44859395D01*
X103865556Y-44859394D01*
X103853558Y-44830428D01*
X103853556Y-44830425D01*
X103717557Y-44694426D01*
X103695883Y-44642100D01*
X103717557Y-44589774D01*
X103769883Y-44568100D01*
X106496633Y-44568100D01*
X106548959Y-44589774D01*
G37*
%TD.AperFunction*%
%TA.AperFunction,Conductor*%
G36*
X177967826Y-20032174D02*
G01*
X177989500Y-20084500D01*
X177989500Y-129915500D01*
X177967826Y-129967826D01*
X177915500Y-129989500D01*
X100084500Y-129989500D01*
X100032174Y-129967826D01*
X100010500Y-129915500D01*
X100010500Y-124881907D01*
X103499500Y-124881907D01*
X103499500Y-125118092D01*
X103536446Y-125351365D01*
X103536449Y-125351378D01*
X103609429Y-125575986D01*
X103609431Y-125575991D01*
X103609432Y-125575992D01*
X103716657Y-125786433D01*
X103855483Y-125977510D01*
X104022490Y-126144517D01*
X104213567Y-126283343D01*
X104424008Y-126390568D01*
X104424010Y-126390568D01*
X104424013Y-126390570D01*
X104648621Y-126463550D01*
X104648627Y-126463551D01*
X104648632Y-126463553D01*
X104804149Y-126488184D01*
X104881907Y-126500500D01*
X104881908Y-126500500D01*
X105118093Y-126500500D01*
X105176411Y-126491263D01*
X105351368Y-126463553D01*
X105351375Y-126463550D01*
X105351378Y-126463550D01*
X105575986Y-126390570D01*
X105575986Y-126390569D01*
X105575992Y-126390568D01*
X105786433Y-126283343D01*
X105977510Y-126144517D01*
X106144517Y-125977510D01*
X106283343Y-125786433D01*
X106390568Y-125575992D01*
X106463553Y-125351368D01*
X106500500Y-125118092D01*
X106500500Y-124881908D01*
X106500500Y-124881907D01*
X171499500Y-124881907D01*
X171499500Y-125118092D01*
X171536446Y-125351365D01*
X171536449Y-125351378D01*
X171609429Y-125575986D01*
X171609431Y-125575991D01*
X171609432Y-125575992D01*
X171716657Y-125786433D01*
X171855483Y-125977510D01*
X172022490Y-126144517D01*
X172213567Y-126283343D01*
X172424008Y-126390568D01*
X172424010Y-126390568D01*
X172424013Y-126390570D01*
X172648621Y-126463550D01*
X172648627Y-126463551D01*
X172648632Y-126463553D01*
X172804149Y-126488184D01*
X172881907Y-126500500D01*
X172881908Y-126500500D01*
X173118093Y-126500500D01*
X173176411Y-126491263D01*
X173351368Y-126463553D01*
X173351375Y-126463550D01*
X173351378Y-126463550D01*
X173575986Y-126390570D01*
X173575986Y-126390569D01*
X173575992Y-126390568D01*
X173786433Y-126283343D01*
X173977510Y-126144517D01*
X174144517Y-125977510D01*
X174283343Y-125786433D01*
X174390568Y-125575992D01*
X174463553Y-125351368D01*
X174500500Y-125118092D01*
X174500500Y-124881908D01*
X174463553Y-124648632D01*
X174463551Y-124648627D01*
X174463550Y-124648621D01*
X174390570Y-124424013D01*
X174390568Y-124424010D01*
X174390568Y-124424008D01*
X174283343Y-124213567D01*
X174144517Y-124022490D01*
X173977510Y-123855483D01*
X173977507Y-123855480D01*
X173977505Y-123855479D01*
X173786432Y-123716656D01*
X173575986Y-123609429D01*
X173351378Y-123536449D01*
X173351365Y-123536446D01*
X173118093Y-123499500D01*
X173118092Y-123499500D01*
X172881908Y-123499500D01*
X172881907Y-123499500D01*
X172648634Y-123536446D01*
X172648621Y-123536449D01*
X172424013Y-123609429D01*
X172213567Y-123716656D01*
X172022494Y-123855479D01*
X171855479Y-124022494D01*
X171716656Y-124213567D01*
X171609429Y-124424013D01*
X171536449Y-124648621D01*
X171536446Y-124648634D01*
X171499500Y-124881907D01*
X106500500Y-124881907D01*
X106463553Y-124648632D01*
X106463551Y-124648627D01*
X106463550Y-124648621D01*
X106390570Y-124424013D01*
X106390568Y-124424010D01*
X106390568Y-124424008D01*
X106283343Y-124213567D01*
X106144517Y-124022490D01*
X105977510Y-123855483D01*
X105977507Y-123855480D01*
X105977505Y-123855479D01*
X105786432Y-123716656D01*
X105575986Y-123609429D01*
X105351378Y-123536449D01*
X105351365Y-123536446D01*
X105118093Y-123499500D01*
X105118092Y-123499500D01*
X104881908Y-123499500D01*
X104881907Y-123499500D01*
X104648634Y-123536446D01*
X104648621Y-123536449D01*
X104424013Y-123609429D01*
X104213567Y-123716656D01*
X104022494Y-123855479D01*
X103855479Y-124022494D01*
X103716656Y-124213567D01*
X103609429Y-124424013D01*
X103536449Y-124648621D01*
X103536446Y-124648634D01*
X103499500Y-124881907D01*
X100010500Y-124881907D01*
X100010500Y-91967935D01*
X118649500Y-91967935D01*
X118649500Y-94397575D01*
X118658233Y-94441477D01*
X118691496Y-94491259D01*
X118741278Y-94524522D01*
X118785180Y-94533255D01*
X118785181Y-94533255D01*
X121214819Y-94533255D01*
X121214820Y-94533255D01*
X121258722Y-94524522D01*
X121308504Y-94491259D01*
X121341767Y-94441477D01*
X121350500Y-94397575D01*
X121350500Y-91967935D01*
X121341767Y-91924033D01*
X121308504Y-91874251D01*
X121258722Y-91840988D01*
X121214820Y-91832255D01*
X118785180Y-91832255D01*
X118763229Y-91836621D01*
X118741277Y-91840988D01*
X118691496Y-91874250D01*
X118691495Y-91874251D01*
X118658233Y-91924032D01*
X118658233Y-91924033D01*
X118649500Y-91967935D01*
X100010500Y-91967935D01*
X100010500Y-73490688D01*
X123229500Y-73490688D01*
X123229500Y-73609311D01*
X123260199Y-73723882D01*
X123260201Y-73723887D01*
X123319508Y-73826609D01*
X123319509Y-73826610D01*
X123319511Y-73826613D01*
X123403387Y-73910489D01*
X123506114Y-73969799D01*
X123524242Y-73974656D01*
X123557415Y-73993808D01*
X126077826Y-76514219D01*
X126099500Y-76566545D01*
X126099500Y-79432858D01*
X126089586Y-79469857D01*
X126080203Y-79486108D01*
X126080199Y-79486117D01*
X126049500Y-79600688D01*
X126049500Y-79719311D01*
X126080199Y-79833882D01*
X126080201Y-79833887D01*
X126139508Y-79936609D01*
X126139509Y-79936610D01*
X126139511Y-79936613D01*
X126223387Y-80020489D01*
X126326114Y-80079799D01*
X126326115Y-80079799D01*
X126326117Y-80079800D01*
X126383402Y-80095149D01*
X126440688Y-80110499D01*
X126440689Y-80110500D01*
X126440691Y-80110500D01*
X126559311Y-80110500D01*
X126559311Y-80110499D01*
X126673886Y-80079799D01*
X126776613Y-80020489D01*
X126860489Y-79936613D01*
X126919799Y-79833886D01*
X126950499Y-79719311D01*
X126950500Y-79719311D01*
X126950500Y-79600689D01*
X126950499Y-79600688D01*
X126919800Y-79486117D01*
X126919796Y-79486108D01*
X126910414Y-79469857D01*
X126900500Y-79432858D01*
X126900500Y-76317273D01*
X126873207Y-76215413D01*
X126873207Y-76215412D01*
X126820482Y-76124090D01*
X126820481Y-76124089D01*
X126820480Y-76124087D01*
X124123808Y-73427415D01*
X124104656Y-73394242D01*
X124099799Y-73376114D01*
X124040489Y-73273387D01*
X123956613Y-73189511D01*
X123956610Y-73189509D01*
X123956609Y-73189508D01*
X123853887Y-73130201D01*
X123853882Y-73130199D01*
X123739311Y-73099500D01*
X123739309Y-73099500D01*
X123620691Y-73099500D01*
X123620689Y-73099500D01*
X123506117Y-73130199D01*
X123506112Y-73130201D01*
X123403390Y-73189508D01*
X123319508Y-73273390D01*
X123260201Y-73376112D01*
X123260199Y-73376117D01*
X123229500Y-73490688D01*
X100010500Y-73490688D01*
X100010500Y-46795931D01*
X100399500Y-46795931D01*
X100399500Y-46924069D01*
X100403589Y-46944623D01*
X100424497Y-47049739D01*
X100424498Y-47049742D01*
X100456783Y-47127686D01*
X100473535Y-47168127D01*
X100521207Y-47239473D01*
X100540544Y-47268414D01*
X100544724Y-47274669D01*
X100635331Y-47365276D01*
X100741873Y-47436465D01*
X100860256Y-47485501D01*
X100860258Y-47485501D01*
X100860260Y-47485502D01*
X100896733Y-47492757D01*
X100985931Y-47510500D01*
X100985933Y-47510500D01*
X101714067Y-47510500D01*
X101714069Y-47510500D01*
X101839744Y-47485501D01*
X101958127Y-47436465D01*
X102064669Y-47365276D01*
X102155276Y-47274669D01*
X102226465Y-47168127D01*
X102275501Y-47049744D01*
X102300500Y-46924069D01*
X102300500Y-46795931D01*
X102281378Y-46699799D01*
X102275502Y-46670260D01*
X102275501Y-46670257D01*
X102267448Y-46650816D01*
X102226465Y-46551873D01*
X102155276Y-46445331D01*
X102064669Y-46354724D01*
X101958127Y-46283535D01*
X101958124Y-46283533D01*
X101958123Y-46283533D01*
X101839742Y-46234498D01*
X101839739Y-46234497D01*
X101749696Y-46216586D01*
X101714069Y-46209500D01*
X100985931Y-46209500D01*
X100954726Y-46215707D01*
X100860260Y-46234497D01*
X100860257Y-46234498D01*
X100741876Y-46283533D01*
X100635331Y-46354723D01*
X100635330Y-46354725D01*
X100544725Y-46445330D01*
X100544723Y-46445331D01*
X100473533Y-46551876D01*
X100424498Y-46670257D01*
X100424497Y-46670260D01*
X100406605Y-46760212D01*
X100399500Y-46795931D01*
X100010500Y-46795931D01*
X100010500Y-38155932D01*
X100399500Y-38155932D01*
X100399500Y-38284067D01*
X100424497Y-38409739D01*
X100424498Y-38409742D01*
X100452689Y-38477802D01*
X100473535Y-38528127D01*
X100506903Y-38578066D01*
X100533011Y-38617140D01*
X100544724Y-38634669D01*
X100635331Y-38725276D01*
X100741873Y-38796465D01*
X100860256Y-38845501D01*
X100860258Y-38845501D01*
X100860260Y-38845502D01*
X100901353Y-38853676D01*
X100985931Y-38870500D01*
X100985933Y-38870500D01*
X101714067Y-38870500D01*
X101714069Y-38870500D01*
X101839744Y-38845501D01*
X101958127Y-38796465D01*
X101964589Y-38792146D01*
X102020137Y-38781098D01*
X102067229Y-38812564D01*
X102079700Y-38853676D01*
X102079700Y-43776484D01*
X102079699Y-43776484D01*
X102106439Y-43841038D01*
X102119778Y-43873242D01*
X102121643Y-43877743D01*
X103322826Y-45078926D01*
X103344500Y-45131251D01*
X103344500Y-46650816D01*
X103368928Y-46709788D01*
X103377507Y-46730500D01*
X103377507Y-46730501D01*
X103386441Y-46752071D01*
X103386444Y-46752075D01*
X105055787Y-48421419D01*
X105077461Y-48473745D01*
X105055787Y-48526071D01*
X105022616Y-48545223D01*
X105006874Y-48549441D01*
X105006871Y-48549442D01*
X104904149Y-48608749D01*
X104820267Y-48692631D01*
X104760960Y-48795353D01*
X104760958Y-48795358D01*
X104730259Y-48909929D01*
X104730259Y-49028552D01*
X104760958Y-49143123D01*
X104760960Y-49143128D01*
X104820267Y-49245850D01*
X104820268Y-49245851D01*
X104820270Y-49245854D01*
X104904146Y-49329730D01*
X105006873Y-49389040D01*
X105006874Y-49389040D01*
X105006876Y-49389041D01*
X105025895Y-49394137D01*
X105121447Y-49419740D01*
X105121448Y-49419741D01*
X105210992Y-49419741D01*
X105263318Y-49441415D01*
X109262961Y-53441058D01*
X109340460Y-53518557D01*
X109441718Y-53560500D01*
X109441719Y-53560500D01*
X112955298Y-53560500D01*
X112955300Y-53560500D01*
X113056558Y-53518557D01*
X113134057Y-53441058D01*
X116727440Y-49847673D01*
X116779766Y-49826000D01*
X116869310Y-49826000D01*
X116889758Y-49820520D01*
X116954775Y-49803099D01*
X117010926Y-49810491D01*
X117045405Y-49855423D01*
X117038013Y-49911576D01*
X117026253Y-49926903D01*
X110020332Y-56932826D01*
X109968006Y-56954500D01*
X105642254Y-56954500D01*
X105589928Y-56932826D01*
X105526613Y-56869511D01*
X105526610Y-56869509D01*
X105526609Y-56869508D01*
X105423887Y-56810201D01*
X105423882Y-56810199D01*
X105309311Y-56779500D01*
X105309309Y-56779500D01*
X105190691Y-56779500D01*
X105190689Y-56779500D01*
X105076117Y-56810199D01*
X105076112Y-56810201D01*
X104973390Y-56869508D01*
X104889508Y-56953390D01*
X104830201Y-57056112D01*
X104830199Y-57056117D01*
X104799500Y-57170688D01*
X104799500Y-57289311D01*
X104830199Y-57403882D01*
X104830201Y-57403887D01*
X104889508Y-57506609D01*
X104889509Y-57506610D01*
X104889511Y-57506613D01*
X104973387Y-57590489D01*
X105076114Y-57649799D01*
X105076115Y-57649799D01*
X105076117Y-57649800D01*
X105133402Y-57665149D01*
X105190688Y-57680499D01*
X105190689Y-57680500D01*
X105190691Y-57680500D01*
X105309311Y-57680500D01*
X105309311Y-57680499D01*
X105423886Y-57649799D01*
X105526613Y-57590489D01*
X105589928Y-57527174D01*
X105642254Y-57505500D01*
X110167571Y-57505500D01*
X110167573Y-57505500D01*
X110268831Y-57463557D01*
X110346330Y-57386058D01*
X110346329Y-57386058D01*
X110381290Y-57351097D01*
X110381289Y-57351097D01*
X118524358Y-49208031D01*
X118566300Y-49106773D01*
X118566300Y-48997173D01*
X118566300Y-48569567D01*
X118587974Y-48517241D01*
X119075541Y-48029674D01*
X119127867Y-48008000D01*
X119217411Y-48008000D01*
X119217411Y-48007999D01*
X119331986Y-47977299D01*
X119434713Y-47917989D01*
X119518589Y-47834113D01*
X119577899Y-47731386D01*
X119608599Y-47616811D01*
X119608600Y-47616811D01*
X119608600Y-47498189D01*
X119608599Y-47498188D01*
X119577900Y-47383617D01*
X119577897Y-47383610D01*
X119569751Y-47369501D01*
X119562357Y-47313349D01*
X119596835Y-47268415D01*
X119633836Y-47258500D01*
X121131546Y-47258500D01*
X121183871Y-47280174D01*
X121217045Y-47313347D01*
X121243787Y-47340089D01*
X121287410Y-47365275D01*
X121310740Y-47378745D01*
X121346514Y-47399399D01*
X121346515Y-47399399D01*
X121346517Y-47399400D01*
X121401252Y-47414066D01*
X121461088Y-47430099D01*
X121461089Y-47430100D01*
X121461091Y-47430100D01*
X121579711Y-47430100D01*
X121579711Y-47430099D01*
X121694286Y-47399399D01*
X121797013Y-47340089D01*
X121880889Y-47256213D01*
X121940199Y-47153486D01*
X121970899Y-47038911D01*
X121970900Y-47038911D01*
X121970900Y-46920289D01*
X121970899Y-46920288D01*
X121964362Y-46895893D01*
X121940199Y-46805714D01*
X121938889Y-46803445D01*
X121880891Y-46702990D01*
X121880890Y-46702989D01*
X121880889Y-46702987D01*
X121797013Y-46619111D01*
X121797010Y-46619109D01*
X121797009Y-46619108D01*
X121694287Y-46559801D01*
X121694283Y-46559800D01*
X121676154Y-46554942D01*
X121649331Y-46539455D01*
X121648554Y-46540468D01*
X121644710Y-46537518D01*
X121553392Y-46484795D01*
X121553388Y-46484793D01*
X121542591Y-46481900D01*
X121451527Y-46457500D01*
X121451526Y-46457500D01*
X113244278Y-46457500D01*
X113191952Y-46435826D01*
X113172800Y-46402653D01*
X113171618Y-46398243D01*
X113165326Y-46374760D01*
X113149792Y-46337257D01*
X113118776Y-46283535D01*
X113083966Y-46223242D01*
X113071023Y-46206376D01*
X113059254Y-46191038D01*
X112966162Y-46097946D01*
X112955936Y-46090099D01*
X112933957Y-46073233D01*
X112819945Y-46007409D01*
X112819936Y-46007405D01*
X112782439Y-45991873D01*
X112655275Y-45957799D01*
X112655266Y-45957797D01*
X112619403Y-45953076D01*
X112615026Y-45952500D01*
X112049200Y-45952500D01*
X112049198Y-45952500D01*
X111971450Y-45973332D01*
X111951526Y-45993257D01*
X111899200Y-46014931D01*
X111846874Y-45993257D01*
X111826949Y-45973332D01*
X111749202Y-45952500D01*
X111749200Y-45952500D01*
X111625920Y-45952500D01*
X111573594Y-45930826D01*
X111551920Y-45878500D01*
X111561834Y-45841500D01*
X111607798Y-45761887D01*
X111607799Y-45761886D01*
X111638499Y-45647311D01*
X111638500Y-45647311D01*
X111638500Y-45528689D01*
X111638499Y-45528688D01*
X111607800Y-45414117D01*
X111607798Y-45414112D01*
X111548491Y-45311390D01*
X111548490Y-45311389D01*
X111548489Y-45311387D01*
X111464613Y-45227511D01*
X111464610Y-45227509D01*
X111464609Y-45227508D01*
X111361887Y-45168201D01*
X111361882Y-45168199D01*
X111309143Y-45154068D01*
X111264210Y-45119590D01*
X111256818Y-45063437D01*
X111291296Y-45018504D01*
X111316106Y-45004180D01*
X111368429Y-44973971D01*
X111431744Y-44910656D01*
X111484070Y-44888982D01*
X112125231Y-44888982D01*
X112177556Y-44910655D01*
X112569826Y-45302926D01*
X112944188Y-45677288D01*
X112944187Y-45677288D01*
X112973846Y-45689572D01*
X113045447Y-45719231D01*
X123835962Y-45719230D01*
X123888288Y-45740904D01*
X124268102Y-46120718D01*
X124289776Y-46173044D01*
X124268102Y-46225370D01*
X124252777Y-46237129D01*
X124190239Y-46273236D01*
X124158035Y-46297948D01*
X124064948Y-46391035D01*
X124040233Y-46423242D01*
X123974409Y-46537254D01*
X123974405Y-46537263D01*
X123958873Y-46574760D01*
X123924799Y-46701924D01*
X123924797Y-46701933D01*
X123919500Y-46742174D01*
X123919500Y-47373825D01*
X123924797Y-47414066D01*
X123924799Y-47414075D01*
X123958873Y-47541239D01*
X123974405Y-47578736D01*
X123974409Y-47578745D01*
X124040233Y-47692757D01*
X124052386Y-47708594D01*
X124064946Y-47724962D01*
X124158038Y-47818054D01*
X124173376Y-47829823D01*
X124190242Y-47842766D01*
X124265243Y-47886067D01*
X124304257Y-47908592D01*
X124341760Y-47924126D01*
X124468927Y-47958201D01*
X124468930Y-47958201D01*
X124468933Y-47958202D01*
X124493668Y-47961458D01*
X124509174Y-47963500D01*
X124509175Y-47963500D01*
X125075002Y-47963500D01*
X125075002Y-47963499D01*
X125122573Y-47950753D01*
X125162160Y-47940146D01*
X125162863Y-47942769D01*
X125205677Y-47937127D01*
X125232673Y-47950753D01*
X125285832Y-47993146D01*
X125285835Y-47993147D01*
X125285837Y-47993149D01*
X125375000Y-48013500D01*
X125375004Y-48013500D01*
X125940825Y-48013500D01*
X125940826Y-48013500D01*
X125982599Y-48008000D01*
X125994007Y-48006498D01*
X125994007Y-48006497D01*
X125994014Y-48006497D01*
X126121181Y-47972422D01*
X126170743Y-47951893D01*
X126284757Y-47886067D01*
X126327317Y-47853409D01*
X126420409Y-47760317D01*
X126453067Y-47717757D01*
X126518893Y-47603743D01*
X126539422Y-47554181D01*
X126573497Y-47427014D01*
X126573550Y-47426609D01*
X126574048Y-47422837D01*
X126602369Y-47373789D01*
X126647414Y-47358500D01*
X127354564Y-47358500D01*
X127354564Y-47358499D01*
X127430989Y-47338021D01*
X127499511Y-47298460D01*
X127555460Y-47242511D01*
X128850697Y-45947274D01*
X128903023Y-45925600D01*
X129188190Y-45925600D01*
X129240516Y-45947274D01*
X129318842Y-46025600D01*
X129432970Y-46091492D01*
X129560261Y-46125599D01*
X129560262Y-46125600D01*
X129560264Y-46125600D01*
X129692050Y-46125600D01*
X129692050Y-46125599D01*
X129819342Y-46091492D01*
X129933470Y-46025600D01*
X130026656Y-45932414D01*
X130092548Y-45818286D01*
X130126655Y-45690994D01*
X130126656Y-45690994D01*
X130126656Y-45559206D01*
X130126655Y-45559205D01*
X130118478Y-45528689D01*
X130092548Y-45431914D01*
X130026656Y-45317786D01*
X129933470Y-45224600D01*
X129875920Y-45191373D01*
X129841443Y-45146440D01*
X129848836Y-45090287D01*
X129860592Y-45074966D01*
X129930714Y-45004845D01*
X129996606Y-44890717D01*
X129996609Y-44890703D01*
X129998255Y-44886732D01*
X130038297Y-44846677D01*
X130094934Y-44846667D01*
X130118953Y-44862713D01*
X130912826Y-45656585D01*
X130934500Y-45708911D01*
X130934500Y-47097034D01*
X130912826Y-47149360D01*
X130859500Y-47202685D01*
X130793610Y-47316809D01*
X130793606Y-47316818D01*
X130759500Y-47444105D01*
X130759500Y-47575894D01*
X130793606Y-47703181D01*
X130793610Y-47703190D01*
X130826593Y-47760317D01*
X130859500Y-47817314D01*
X130952686Y-47910500D01*
X131066814Y-47976392D01*
X131194105Y-48010499D01*
X131194106Y-48010500D01*
X131194108Y-48010500D01*
X131325894Y-48010500D01*
X131325894Y-48010499D01*
X131453186Y-47976392D01*
X131517900Y-47939028D01*
X131574052Y-47931636D01*
X131618986Y-47966115D01*
X131628900Y-48003115D01*
X131628900Y-91776673D01*
X131628900Y-91882127D01*
X131651892Y-91967935D01*
X131656193Y-91983988D01*
X131656195Y-91983992D01*
X131697274Y-92055143D01*
X131704666Y-92111296D01*
X131670188Y-92156229D01*
X131614035Y-92163621D01*
X131580862Y-92144469D01*
X128452174Y-89015781D01*
X128430500Y-88963455D01*
X128430500Y-52777140D01*
X128440414Y-52740140D01*
X128449799Y-52723886D01*
X128480499Y-52609311D01*
X128480500Y-52609311D01*
X128480500Y-52490689D01*
X128480499Y-52490688D01*
X128449800Y-52376117D01*
X128449798Y-52376112D01*
X128390491Y-52273390D01*
X128390490Y-52273389D01*
X128390489Y-52273387D01*
X128306613Y-52189511D01*
X128306610Y-52189509D01*
X128306609Y-52189508D01*
X128203887Y-52130201D01*
X128203882Y-52130199D01*
X128089311Y-52099500D01*
X128089309Y-52099500D01*
X127970691Y-52099500D01*
X127970689Y-52099500D01*
X127856117Y-52130199D01*
X127856112Y-52130201D01*
X127753390Y-52189508D01*
X127669508Y-52273390D01*
X127610201Y-52376112D01*
X127610199Y-52376117D01*
X127579500Y-52490688D01*
X127579500Y-52609311D01*
X127610199Y-52723882D01*
X127610200Y-52723884D01*
X127610201Y-52723886D01*
X127619585Y-52740140D01*
X127629500Y-52777140D01*
X127629500Y-89107273D01*
X127629500Y-89212727D01*
X127656793Y-89314588D01*
X127656795Y-89314592D01*
X127709517Y-89405909D01*
X127709518Y-89405910D01*
X127709520Y-89405913D01*
X131033108Y-92729501D01*
X133956191Y-95652584D01*
X133975342Y-95685754D01*
X133980201Y-95703886D01*
X133980202Y-95703888D01*
X134039508Y-95806609D01*
X134039509Y-95806610D01*
X134039511Y-95806613D01*
X134123387Y-95890489D01*
X134226114Y-95949799D01*
X134226115Y-95949799D01*
X134226117Y-95949800D01*
X134266752Y-95960688D01*
X134340688Y-95980499D01*
X134340689Y-95980500D01*
X134340691Y-95980500D01*
X134459311Y-95980500D01*
X134459311Y-95980499D01*
X134573886Y-95949799D01*
X134676613Y-95890489D01*
X134760489Y-95806613D01*
X134819799Y-95703886D01*
X134824656Y-95685756D01*
X134843807Y-95652584D01*
X134930480Y-95565913D01*
X136324219Y-94172174D01*
X136376545Y-94150500D01*
X141337593Y-94150500D01*
X141389919Y-94172174D01*
X141411593Y-94224500D01*
X141389919Y-94276826D01*
X141365912Y-94292867D01*
X141291872Y-94323535D01*
X141185331Y-94394722D01*
X141185330Y-94394724D01*
X140214724Y-95365330D01*
X140214722Y-95365331D01*
X140157816Y-95450500D01*
X140143534Y-95471873D01*
X140094498Y-95590257D01*
X140094497Y-95590260D01*
X140069500Y-95715932D01*
X140069500Y-114514067D01*
X140094497Y-114639739D01*
X140094498Y-114639742D01*
X140143535Y-114758127D01*
X140214722Y-114864668D01*
X142347826Y-116997772D01*
X142369500Y-117050098D01*
X142369500Y-119264820D01*
X142378233Y-119308722D01*
X142411496Y-119358504D01*
X142461278Y-119391767D01*
X142505180Y-119400500D01*
X142505181Y-119400500D01*
X145534819Y-119400500D01*
X145534820Y-119400500D01*
X145578722Y-119391767D01*
X145628504Y-119358504D01*
X145661767Y-119308722D01*
X145670500Y-119264820D01*
X145670500Y-116235180D01*
X145661767Y-116191278D01*
X145628504Y-116141496D01*
X145578722Y-116108233D01*
X145534820Y-116099500D01*
X145534819Y-116099500D01*
X143320098Y-116099500D01*
X143267772Y-116077826D01*
X141392174Y-114202228D01*
X141370500Y-114149902D01*
X141370500Y-111119097D01*
X141392174Y-111066771D01*
X141444500Y-111045097D01*
X141496826Y-111066771D01*
X142452484Y-112022429D01*
X142474158Y-112074755D01*
X142470536Y-112097622D01*
X142410142Y-112283496D01*
X142410139Y-112283509D01*
X142369500Y-112540102D01*
X142369500Y-112799897D01*
X142410139Y-113056490D01*
X142410142Y-113056503D01*
X142490419Y-113303568D01*
X142490421Y-113303573D01*
X142600156Y-113518938D01*
X142608366Y-113535051D01*
X142761069Y-113745229D01*
X142944771Y-113928931D01*
X143154949Y-114081634D01*
X143386428Y-114199579D01*
X143386430Y-114199579D01*
X143386431Y-114199580D01*
X143633496Y-114279857D01*
X143633502Y-114279858D01*
X143633507Y-114279860D01*
X143804571Y-114306953D01*
X143890102Y-114320500D01*
X143890103Y-114320500D01*
X144149898Y-114320500D01*
X144214046Y-114310340D01*
X144406493Y-114279860D01*
X144406500Y-114279857D01*
X144406503Y-114279857D01*
X144518674Y-114243409D01*
X144653572Y-114199579D01*
X144885051Y-114081634D01*
X145095229Y-113928931D01*
X145278931Y-113745229D01*
X145431634Y-113535051D01*
X145549579Y-113303572D01*
X145629860Y-113056493D01*
X145670500Y-112799897D01*
X145670500Y-112540103D01*
X145629860Y-112283507D01*
X145629858Y-112283502D01*
X145629857Y-112283496D01*
X145549580Y-112036431D01*
X145549578Y-112036426D01*
X145542446Y-112022429D01*
X145431634Y-111804949D01*
X145278931Y-111594771D01*
X145095229Y-111411069D01*
X145095226Y-111411066D01*
X145095224Y-111411065D01*
X144885053Y-111258367D01*
X144885047Y-111258364D01*
X144653573Y-111140421D01*
X144653568Y-111140419D01*
X144406503Y-111060142D01*
X144406490Y-111060139D01*
X144149898Y-111019500D01*
X144149897Y-111019500D01*
X143890103Y-111019500D01*
X143890102Y-111019500D01*
X143633509Y-111060139D01*
X143633496Y-111060142D01*
X143447622Y-111120536D01*
X143391159Y-111116092D01*
X143372429Y-111102484D01*
X142542174Y-110272228D01*
X142520500Y-110219902D01*
X142520500Y-108561862D01*
X142542174Y-108509536D01*
X142594500Y-108487862D01*
X142646826Y-108509536D01*
X142654366Y-108518365D01*
X142761069Y-108665229D01*
X142944771Y-108848931D01*
X143154949Y-109001634D01*
X143386428Y-109119579D01*
X143386430Y-109119579D01*
X143386431Y-109119580D01*
X143633496Y-109199857D01*
X143633502Y-109199858D01*
X143633507Y-109199860D01*
X143804571Y-109226953D01*
X143890102Y-109240500D01*
X143890103Y-109240500D01*
X144149898Y-109240500D01*
X144214046Y-109230340D01*
X144406493Y-109199860D01*
X144406500Y-109199857D01*
X144406503Y-109199857D01*
X144518674Y-109163409D01*
X144653572Y-109119579D01*
X144885051Y-109001634D01*
X145095229Y-108848931D01*
X145278931Y-108665229D01*
X145431634Y-108455051D01*
X145549579Y-108223572D01*
X145629860Y-107976493D01*
X145670500Y-107719897D01*
X145670500Y-107460103D01*
X145629860Y-107203507D01*
X145629858Y-107203502D01*
X145629857Y-107203496D01*
X145549580Y-106956431D01*
X145549578Y-106956426D01*
X145545474Y-106948371D01*
X145431634Y-106724949D01*
X145278931Y-106514771D01*
X145095229Y-106331069D01*
X145095226Y-106331066D01*
X145095224Y-106331065D01*
X144885053Y-106178367D01*
X144885047Y-106178364D01*
X144653573Y-106060421D01*
X144653568Y-106060419D01*
X144406503Y-105980142D01*
X144406490Y-105980139D01*
X144149898Y-105939500D01*
X144149897Y-105939500D01*
X143890103Y-105939500D01*
X143890102Y-105939500D01*
X143633509Y-105980139D01*
X143633496Y-105980142D01*
X143386431Y-106060419D01*
X143386426Y-106060421D01*
X143154952Y-106178364D01*
X143154946Y-106178367D01*
X142944775Y-106331065D01*
X142761065Y-106514775D01*
X142654367Y-106661633D01*
X142606076Y-106691226D01*
X142551004Y-106678004D01*
X142521411Y-106629713D01*
X142520500Y-106618137D01*
X142520500Y-103481862D01*
X142542174Y-103429536D01*
X142594500Y-103407862D01*
X142646826Y-103429536D01*
X142654366Y-103438365D01*
X142761069Y-103585229D01*
X142944771Y-103768931D01*
X143154949Y-103921634D01*
X143386428Y-104039579D01*
X143386430Y-104039579D01*
X143386431Y-104039580D01*
X143633496Y-104119857D01*
X143633502Y-104119858D01*
X143633507Y-104119860D01*
X143804571Y-104146953D01*
X143890102Y-104160500D01*
X143890103Y-104160500D01*
X144149898Y-104160500D01*
X144214046Y-104150340D01*
X144406493Y-104119860D01*
X144406500Y-104119857D01*
X144406503Y-104119857D01*
X144518674Y-104083409D01*
X144653572Y-104039579D01*
X144885051Y-103921634D01*
X145095229Y-103768931D01*
X145278931Y-103585229D01*
X145431634Y-103375051D01*
X145520367Y-103200904D01*
X145563434Y-103164122D01*
X145586301Y-103160500D01*
X146244067Y-103160500D01*
X146244069Y-103160500D01*
X146369744Y-103135501D01*
X146488127Y-103086465D01*
X146594669Y-103015277D01*
X149375276Y-100234670D01*
X149446465Y-100128127D01*
X149495501Y-100009744D01*
X149520500Y-99884069D01*
X149520500Y-96030098D01*
X149542174Y-95977772D01*
X151725276Y-93794670D01*
X151725277Y-93794669D01*
X151796465Y-93688127D01*
X151845501Y-93569744D01*
X151870499Y-93444069D01*
X151870499Y-93315931D01*
X151845501Y-93190256D01*
X151796465Y-93071873D01*
X151725277Y-92965331D01*
X151634669Y-92874723D01*
X151583002Y-92840201D01*
X151528127Y-92803535D01*
X151409744Y-92754499D01*
X151409737Y-92754497D01*
X151315060Y-92735665D01*
X151284069Y-92729501D01*
X151155931Y-92729501D01*
X151131070Y-92734445D01*
X151030262Y-92754497D01*
X151030255Y-92754499D01*
X150911872Y-92803535D01*
X150805331Y-92874722D01*
X150805330Y-92874724D01*
X148364724Y-95315330D01*
X148364722Y-95315331D01*
X148299473Y-95412985D01*
X148293535Y-95421872D01*
X148244498Y-95540257D01*
X148244497Y-95540260D01*
X148219500Y-95665932D01*
X148219500Y-99519902D01*
X148197826Y-99572228D01*
X145932228Y-101837826D01*
X145879902Y-101859500D01*
X145586301Y-101859500D01*
X145533975Y-101837826D01*
X145520367Y-101819096D01*
X145518775Y-101815973D01*
X145431634Y-101644949D01*
X145278931Y-101434771D01*
X145095229Y-101251069D01*
X145095226Y-101251066D01*
X145095224Y-101251065D01*
X144885053Y-101098367D01*
X144885047Y-101098364D01*
X144653573Y-100980421D01*
X144653568Y-100980419D01*
X144406503Y-100900142D01*
X144406490Y-100900139D01*
X144149898Y-100859500D01*
X144149897Y-100859500D01*
X143890103Y-100859500D01*
X143890102Y-100859500D01*
X143633509Y-100900139D01*
X143633496Y-100900142D01*
X143386431Y-100980419D01*
X143386426Y-100980421D01*
X143154952Y-101098364D01*
X143154946Y-101098367D01*
X142944775Y-101251065D01*
X142761065Y-101434775D01*
X142654367Y-101581633D01*
X142606076Y-101611226D01*
X142551004Y-101598004D01*
X142521411Y-101549713D01*
X142520500Y-101538137D01*
X142520500Y-97250098D01*
X142542174Y-97197772D01*
X143615276Y-96124670D01*
X143615277Y-96124669D01*
X143686465Y-96018127D01*
X143735501Y-95899743D01*
X143760499Y-95774069D01*
X143760499Y-95645931D01*
X143760499Y-95645543D01*
X143782173Y-95593217D01*
X143834499Y-95571543D01*
X143886823Y-95593216D01*
X144184097Y-95890489D01*
X144436190Y-96142582D01*
X144455342Y-96175754D01*
X144460200Y-96193883D01*
X144460201Y-96193887D01*
X144519508Y-96296609D01*
X144519509Y-96296610D01*
X144519511Y-96296613D01*
X144603387Y-96380489D01*
X144603389Y-96380490D01*
X144603390Y-96380491D01*
X144680312Y-96424902D01*
X144706114Y-96439799D01*
X144706115Y-96439799D01*
X144706117Y-96439800D01*
X144763402Y-96455149D01*
X144820688Y-96470499D01*
X144820689Y-96470500D01*
X144820691Y-96470500D01*
X144939311Y-96470500D01*
X144939311Y-96470499D01*
X145053886Y-96439799D01*
X145156613Y-96380489D01*
X145240489Y-96296613D01*
X145299799Y-96193886D01*
X145330499Y-96079311D01*
X145330500Y-96079311D01*
X145330500Y-95960689D01*
X145330499Y-95960688D01*
X145299800Y-95846117D01*
X145299798Y-95846112D01*
X145240491Y-95743390D01*
X145240490Y-95743389D01*
X145240489Y-95743387D01*
X145156613Y-95659511D01*
X145156610Y-95659509D01*
X145156609Y-95659508D01*
X145053887Y-95600201D01*
X145053883Y-95600200D01*
X145035754Y-95595342D01*
X145002582Y-95576190D01*
X144592174Y-95165781D01*
X144570500Y-95113455D01*
X144570500Y-94377274D01*
X144567641Y-94366604D01*
X144547250Y-94290500D01*
X144543207Y-94275412D01*
X144490480Y-94184087D01*
X143735913Y-93429520D01*
X143735910Y-93429518D01*
X143735909Y-93429517D01*
X143644592Y-93376795D01*
X143644588Y-93376793D01*
X143542727Y-93349500D01*
X136232727Y-93349500D01*
X136127273Y-93349500D01*
X136076342Y-93363146D01*
X136025411Y-93376793D01*
X136025407Y-93376795D01*
X135934090Y-93429517D01*
X134452326Y-94911281D01*
X134400000Y-94932955D01*
X134347674Y-94911281D01*
X133879279Y-94442886D01*
X133857605Y-94390560D01*
X133879279Y-94338234D01*
X133931605Y-94316560D01*
X133950758Y-94319082D01*
X134030688Y-94340499D01*
X134030689Y-94340500D01*
X134030691Y-94340500D01*
X134149311Y-94340500D01*
X134149311Y-94340499D01*
X134263886Y-94309799D01*
X134366613Y-94250489D01*
X134450489Y-94166613D01*
X134509799Y-94063886D01*
X134540499Y-93949311D01*
X134540500Y-93949311D01*
X134540500Y-93830689D01*
X134540499Y-93830688D01*
X134509800Y-93716117D01*
X134509798Y-93716112D01*
X134450491Y-93613390D01*
X134450490Y-93613389D01*
X134450489Y-93613387D01*
X134366613Y-93529511D01*
X134366610Y-93529509D01*
X134366609Y-93529508D01*
X134263888Y-93470202D01*
X134263887Y-93470201D01*
X134263886Y-93470201D01*
X134245754Y-93465342D01*
X134212584Y-93446191D01*
X132451574Y-91685181D01*
X132429900Y-91632855D01*
X132429900Y-91424944D01*
X132451574Y-91372618D01*
X132503900Y-91350944D01*
X132556226Y-91372618D01*
X132559518Y-91375910D01*
X132559520Y-91375913D01*
X133913108Y-92729501D01*
X134566191Y-93382584D01*
X134585342Y-93415754D01*
X134590200Y-93433882D01*
X134590202Y-93433888D01*
X134649508Y-93536609D01*
X134649509Y-93536610D01*
X134649511Y-93536613D01*
X134733387Y-93620489D01*
X134836114Y-93679799D01*
X134836115Y-93679799D01*
X134836117Y-93679800D01*
X134867194Y-93688127D01*
X134950688Y-93710499D01*
X134950689Y-93710500D01*
X134950691Y-93710500D01*
X135069311Y-93710500D01*
X135069311Y-93710499D01*
X135183886Y-93679799D01*
X135286613Y-93620489D01*
X135370489Y-93536613D01*
X135429799Y-93433886D01*
X135460499Y-93319311D01*
X135460500Y-93319311D01*
X135460500Y-93200689D01*
X135460499Y-93200688D01*
X135457705Y-93190262D01*
X135429799Y-93086114D01*
X135370489Y-92983387D01*
X135286613Y-92899511D01*
X135286610Y-92899509D01*
X135286609Y-92899508D01*
X135183888Y-92840202D01*
X135183887Y-92840201D01*
X135183886Y-92840201D01*
X135165754Y-92835342D01*
X135132584Y-92816191D01*
X133302174Y-90985781D01*
X133280500Y-90933455D01*
X133280500Y-39217280D01*
X133286052Y-39203876D01*
X133285966Y-39189367D01*
X133296460Y-39178746D01*
X133302174Y-39164954D01*
X133315577Y-39159402D01*
X133325776Y-39149082D01*
X133340706Y-39148993D01*
X133354500Y-39143280D01*
X133367903Y-39148832D01*
X133382413Y-39148746D01*
X133390887Y-39158352D01*
X133406826Y-39164954D01*
X133422698Y-39188556D01*
X133424665Y-39193227D01*
X133430201Y-39213886D01*
X133441902Y-39234153D01*
X133443698Y-39238416D01*
X133443740Y-39245647D01*
X133449500Y-39267140D01*
X133449500Y-84287273D01*
X133449500Y-84392727D01*
X133454859Y-84412727D01*
X133476793Y-84494588D01*
X133476795Y-84494592D01*
X133529517Y-84585909D01*
X133529518Y-84585910D01*
X133529520Y-84585913D01*
X137907062Y-88963455D01*
X139706191Y-90762584D01*
X139725342Y-90795754D01*
X139730200Y-90813882D01*
X139730202Y-90813888D01*
X139789508Y-90916609D01*
X139789509Y-90916610D01*
X139789511Y-90916613D01*
X139873387Y-91000489D01*
X139976114Y-91059799D01*
X139976115Y-91059799D01*
X139976117Y-91059800D01*
X140033402Y-91075149D01*
X140090688Y-91090499D01*
X140090689Y-91090500D01*
X140090691Y-91090500D01*
X140209311Y-91090500D01*
X140209311Y-91090499D01*
X140323886Y-91059799D01*
X140426613Y-91000489D01*
X140510489Y-90916613D01*
X140569799Y-90813886D01*
X140600499Y-90699311D01*
X140600500Y-90699311D01*
X140600500Y-90580689D01*
X140600499Y-90580688D01*
X140569800Y-90466117D01*
X140569798Y-90466112D01*
X140510491Y-90363390D01*
X140510490Y-90363389D01*
X140510489Y-90363387D01*
X140426613Y-90279511D01*
X140426610Y-90279509D01*
X140426609Y-90279508D01*
X140323888Y-90220202D01*
X140323887Y-90220201D01*
X140323886Y-90220201D01*
X140305754Y-90215342D01*
X140272584Y-90196191D01*
X134272174Y-84195781D01*
X134250500Y-84143455D01*
X134250500Y-39267140D01*
X134260414Y-39230140D01*
X134269799Y-39213886D01*
X134300499Y-39099311D01*
X134300500Y-39099311D01*
X134300500Y-38980689D01*
X134300499Y-38980688D01*
X134298829Y-38974457D01*
X134269799Y-38866114D01*
X134235992Y-38807559D01*
X134210491Y-38763390D01*
X134210490Y-38763389D01*
X134210489Y-38763387D01*
X134126613Y-38679511D01*
X134126610Y-38679509D01*
X134126609Y-38679508D01*
X134023887Y-38620201D01*
X134023882Y-38620199D01*
X133909311Y-38589500D01*
X133909309Y-38589500D01*
X133790691Y-38589500D01*
X133790689Y-38589500D01*
X133676117Y-38620199D01*
X133676112Y-38620201D01*
X133573390Y-38679508D01*
X133489508Y-38763390D01*
X133430201Y-38866112D01*
X133430200Y-38866116D01*
X133425978Y-38881873D01*
X133391499Y-38926805D01*
X133335346Y-38934197D01*
X133290414Y-38899718D01*
X133280500Y-38862719D01*
X133280500Y-38617140D01*
X133290414Y-38580140D01*
X133299799Y-38563886D01*
X133330499Y-38449311D01*
X133330500Y-38449311D01*
X133330500Y-38330689D01*
X133330499Y-38330688D01*
X133299800Y-38216117D01*
X133299798Y-38216112D01*
X133240491Y-38113390D01*
X133240490Y-38113389D01*
X133240489Y-38113387D01*
X133156613Y-38029511D01*
X133156610Y-38029509D01*
X133156609Y-38029508D01*
X133053887Y-37970201D01*
X133053882Y-37970199D01*
X132939311Y-37939500D01*
X132939309Y-37939500D01*
X132820691Y-37939500D01*
X132820689Y-37939500D01*
X132706117Y-37970199D01*
X132706112Y-37970201D01*
X132603390Y-38029508D01*
X132519508Y-38113390D01*
X132460201Y-38216112D01*
X132460199Y-38216117D01*
X132429500Y-38330688D01*
X132429500Y-38449311D01*
X132460199Y-38563882D01*
X132460200Y-38563884D01*
X132460201Y-38563886D01*
X132469585Y-38580140D01*
X132479500Y-38617140D01*
X132479500Y-39004455D01*
X132457826Y-39056781D01*
X132405500Y-39078455D01*
X132353174Y-39056781D01*
X132313808Y-39017415D01*
X132294656Y-38984242D01*
X132289799Y-38966114D01*
X132232065Y-38866116D01*
X132230491Y-38863390D01*
X132230490Y-38863389D01*
X132230489Y-38863387D01*
X132146613Y-38779511D01*
X132146610Y-38779509D01*
X132146609Y-38779508D01*
X132043887Y-38720201D01*
X132043882Y-38720199D01*
X131929311Y-38689500D01*
X131929309Y-38689500D01*
X131810691Y-38689500D01*
X131810689Y-38689500D01*
X131696117Y-38720199D01*
X131696112Y-38720201D01*
X131593390Y-38779508D01*
X131509508Y-38863390D01*
X131450201Y-38966112D01*
X131450199Y-38966117D01*
X131419500Y-39080688D01*
X131419500Y-39199311D01*
X131450199Y-39313882D01*
X131450201Y-39313887D01*
X131509508Y-39416609D01*
X131509509Y-39416610D01*
X131509511Y-39416613D01*
X131593387Y-39500489D01*
X131593388Y-39500490D01*
X131597234Y-39503441D01*
X131596027Y-39505013D01*
X131626377Y-39544556D01*
X131628900Y-39563716D01*
X131628900Y-45273354D01*
X131607226Y-45325680D01*
X131578588Y-45337542D01*
X131554901Y-45347354D01*
X131554900Y-45347353D01*
X131554900Y-45347354D01*
X131502574Y-45325680D01*
X131457283Y-45280389D01*
X131457272Y-45280379D01*
X130258067Y-44081174D01*
X129046429Y-42869535D01*
X129046426Y-42869533D01*
X129046425Y-42869532D01*
X128972210Y-42826684D01*
X128972208Y-42826683D01*
X128972207Y-42826682D01*
X128972206Y-42826682D01*
X128889420Y-42804500D01*
X128889418Y-42804500D01*
X124770079Y-42804500D01*
X124717753Y-42782826D01*
X121696974Y-39762047D01*
X121675300Y-39709721D01*
X121675300Y-39179374D01*
X121668298Y-39126192D01*
X121668296Y-39126183D01*
X121656105Y-39080688D01*
X121634222Y-38999019D01*
X121613693Y-38949457D01*
X121547867Y-38835443D01*
X121515209Y-38792883D01*
X121422117Y-38699791D01*
X121379557Y-38667133D01*
X121379558Y-38667133D01*
X121379556Y-38667132D01*
X121265545Y-38601308D01*
X121265536Y-38601304D01*
X121215980Y-38580777D01*
X121088816Y-38546703D01*
X121088807Y-38546701D01*
X121041411Y-38540461D01*
X121035626Y-38539700D01*
X120469800Y-38539700D01*
X120435504Y-38543564D01*
X120424071Y-38544852D01*
X120424069Y-38544852D01*
X120341674Y-38584532D01*
X120341670Y-38584535D01*
X120337504Y-38589760D01*
X120287932Y-38617154D01*
X120257560Y-38610814D01*
X120256960Y-38613054D01*
X120169802Y-38589700D01*
X120169800Y-38589700D01*
X119603974Y-38589700D01*
X119599780Y-38590252D01*
X119563726Y-38594998D01*
X119563714Y-38595001D01*
X119555436Y-38597219D01*
X119499284Y-38589824D01*
X119483961Y-38578066D01*
X119292368Y-38386473D01*
X119270694Y-38334147D01*
X119270694Y-38244604D01*
X119270693Y-38244603D01*
X119263059Y-38216114D01*
X119246934Y-38155932D01*
X119239994Y-38130032D01*
X119239992Y-38130027D01*
X119180685Y-38027305D01*
X119180684Y-38027304D01*
X119180683Y-38027302D01*
X119096807Y-37943426D01*
X119096804Y-37943424D01*
X119096803Y-37943423D01*
X118994081Y-37884116D01*
X118994076Y-37884114D01*
X118879505Y-37853415D01*
X118879503Y-37853415D01*
X118760885Y-37853415D01*
X118760883Y-37853415D01*
X118646311Y-37884114D01*
X118646306Y-37884116D01*
X118543584Y-37943423D01*
X118459702Y-38027305D01*
X118400395Y-38130027D01*
X118400393Y-38130032D01*
X118369694Y-38244603D01*
X118369694Y-38363226D01*
X118400393Y-38477797D01*
X118400395Y-38477802D01*
X118459702Y-38580524D01*
X118459703Y-38580525D01*
X118459705Y-38580528D01*
X118543581Y-38664404D01*
X118543583Y-38664405D01*
X118543584Y-38664406D01*
X118622979Y-38710245D01*
X118646308Y-38723714D01*
X118646309Y-38723714D01*
X118646311Y-38723715D01*
X118652137Y-38725276D01*
X118760882Y-38754414D01*
X118760883Y-38754415D01*
X118850426Y-38754415D01*
X118902752Y-38776089D01*
X119043592Y-38916929D01*
X119065266Y-38969255D01*
X119059634Y-38997569D01*
X119057222Y-39003395D01*
X119053672Y-39011966D01*
X119019599Y-39139124D01*
X119019597Y-39139133D01*
X119014300Y-39179374D01*
X119014300Y-39811025D01*
X119019597Y-39851266D01*
X119019599Y-39851275D01*
X119053673Y-39978439D01*
X119069205Y-40015936D01*
X119069209Y-40015945D01*
X119135033Y-40129957D01*
X119151899Y-40151936D01*
X119159746Y-40162162D01*
X119252838Y-40255254D01*
X119268176Y-40267023D01*
X119285042Y-40279966D01*
X119320091Y-40300201D01*
X119399057Y-40345792D01*
X119436560Y-40361326D01*
X119563727Y-40395401D01*
X119563730Y-40395401D01*
X119563733Y-40395402D01*
X119588468Y-40398658D01*
X119603974Y-40400700D01*
X119603975Y-40400700D01*
X120169802Y-40400700D01*
X120169802Y-40400699D01*
X120229629Y-40384669D01*
X120256960Y-40377346D01*
X120257663Y-40379969D01*
X120300477Y-40374327D01*
X120327473Y-40387953D01*
X120380632Y-40430346D01*
X120380635Y-40430347D01*
X120380637Y-40430349D01*
X120469800Y-40450700D01*
X120469804Y-40450700D01*
X121035625Y-40450700D01*
X121035626Y-40450700D01*
X121068967Y-40446310D01*
X121088807Y-40443698D01*
X121088807Y-40443697D01*
X121088814Y-40443697D01*
X121215981Y-40409622D01*
X121265543Y-40389093D01*
X121303745Y-40367036D01*
X121359896Y-40359644D01*
X121393070Y-40378797D01*
X124344134Y-43329861D01*
X124344135Y-43329862D01*
X124404738Y-43390465D01*
X124478962Y-43433318D01*
X124561744Y-43455499D01*
X124561745Y-43455500D01*
X124561747Y-43455500D01*
X126246728Y-43455500D01*
X126299054Y-43477174D01*
X126320728Y-43529500D01*
X126299054Y-43581826D01*
X126256387Y-43602867D01*
X126218933Y-43607797D01*
X126218924Y-43607799D01*
X126091760Y-43641873D01*
X126054263Y-43657405D01*
X126054254Y-43657409D01*
X125940242Y-43723233D01*
X125908035Y-43747948D01*
X125814948Y-43841035D01*
X125790233Y-43873242D01*
X125724409Y-43987254D01*
X125724405Y-43987263D01*
X125708873Y-44024760D01*
X125674799Y-44151924D01*
X125674797Y-44151933D01*
X125669500Y-44192174D01*
X125669500Y-44590711D01*
X125647826Y-44643037D01*
X125595500Y-44664711D01*
X113453579Y-44664711D01*
X113401253Y-44643037D01*
X112634621Y-43876406D01*
X112634620Y-43876405D01*
X112626986Y-43873243D01*
X112533362Y-43834462D01*
X112533361Y-43834462D01*
X111785130Y-43834462D01*
X111732804Y-43812788D01*
X111710974Y-43790958D01*
X111689300Y-43738632D01*
X111689300Y-43649089D01*
X111689299Y-43649088D01*
X111658600Y-43534517D01*
X111658598Y-43534512D01*
X111599291Y-43431790D01*
X111599290Y-43431789D01*
X111599289Y-43431787D01*
X111515413Y-43347911D01*
X111515410Y-43347909D01*
X111515409Y-43347908D01*
X111412687Y-43288601D01*
X111412682Y-43288599D01*
X111298111Y-43257900D01*
X111298109Y-43257900D01*
X111179491Y-43257900D01*
X111179489Y-43257900D01*
X111064917Y-43288599D01*
X111064910Y-43288602D01*
X111061630Y-43290496D01*
X111005476Y-43297881D01*
X110960547Y-43263397D01*
X110953162Y-43207243D01*
X110972309Y-43174083D01*
X112982585Y-41163806D01*
X113015756Y-41144656D01*
X113033886Y-41139799D01*
X113136613Y-41080489D01*
X113220489Y-40996613D01*
X113279799Y-40893886D01*
X113310499Y-40779311D01*
X113310500Y-40779311D01*
X113310500Y-40660689D01*
X113310499Y-40660688D01*
X113308526Y-40653326D01*
X113293545Y-40597415D01*
X113279800Y-40546117D01*
X113279798Y-40546112D01*
X113220491Y-40443390D01*
X113220490Y-40443389D01*
X113220489Y-40443387D01*
X113136613Y-40359511D01*
X113136610Y-40359509D01*
X113136609Y-40359508D01*
X113033887Y-40300201D01*
X113033882Y-40300199D01*
X112919311Y-40269500D01*
X112919309Y-40269500D01*
X112800691Y-40269500D01*
X112800689Y-40269500D01*
X112686117Y-40300199D01*
X112686112Y-40300201D01*
X112583390Y-40359508D01*
X112499508Y-40443390D01*
X112440201Y-40546112D01*
X112440201Y-40546113D01*
X112435342Y-40564245D01*
X112416190Y-40597415D01*
X109409517Y-43604090D01*
X109356795Y-43695407D01*
X109356791Y-43695416D01*
X109335069Y-43776483D01*
X109335070Y-43776484D01*
X109329500Y-43797272D01*
X109329500Y-48472858D01*
X109319586Y-48509857D01*
X109310203Y-48526108D01*
X109310199Y-48526117D01*
X109279500Y-48640688D01*
X109279500Y-48759311D01*
X109310199Y-48873882D01*
X109310201Y-48873887D01*
X109321525Y-48893500D01*
X109328917Y-48949653D01*
X109294439Y-48994586D01*
X109257439Y-49004500D01*
X109174500Y-49004500D01*
X109122174Y-48982826D01*
X109100500Y-48930500D01*
X109100500Y-46677274D01*
X109099003Y-46671688D01*
X109093411Y-46650816D01*
X109090644Y-46640491D01*
X109073208Y-46575416D01*
X109073207Y-46575412D01*
X109051329Y-46537518D01*
X109020482Y-46484090D01*
X109020481Y-46484089D01*
X109020480Y-46484087D01*
X108693808Y-46157415D01*
X108674656Y-46124242D01*
X108669799Y-46106114D01*
X108632824Y-46042072D01*
X108610491Y-46003390D01*
X108610490Y-46003389D01*
X108610489Y-46003387D01*
X108526613Y-45919511D01*
X108526610Y-45919509D01*
X108526609Y-45919508D01*
X108423887Y-45860201D01*
X108423882Y-45860199D01*
X108309311Y-45829500D01*
X108309309Y-45829500D01*
X108190691Y-45829500D01*
X108190689Y-45829500D01*
X108076117Y-45860199D01*
X108076112Y-45860201D01*
X107973390Y-45919508D01*
X107889506Y-46003392D01*
X107867174Y-46042072D01*
X107822240Y-46076550D01*
X107766088Y-46069156D01*
X107739003Y-46042071D01*
X107713091Y-45997190D01*
X107713090Y-45997189D01*
X107713089Y-45997187D01*
X107649774Y-45933872D01*
X107628100Y-45881546D01*
X107628100Y-44949000D01*
X107612217Y-44910656D01*
X107605202Y-44893719D01*
X107602308Y-44886732D01*
X107586159Y-44847744D01*
X107586157Y-44847741D01*
X106797459Y-44059044D01*
X106797457Y-44059042D01*
X106738142Y-44034473D01*
X106696200Y-44017100D01*
X106696199Y-44017100D01*
X103636568Y-44017100D01*
X103584242Y-43995426D01*
X103052374Y-43463558D01*
X103030700Y-43411232D01*
X103030700Y-41490967D01*
X103052374Y-41438641D01*
X103457242Y-41033774D01*
X103509568Y-41012100D01*
X104860290Y-41012100D01*
X104912616Y-41033774D01*
X104934290Y-41086100D01*
X104912616Y-41138426D01*
X104897290Y-41150186D01*
X104810432Y-41200333D01*
X104726550Y-41284215D01*
X104667243Y-41386937D01*
X104667241Y-41386942D01*
X104636542Y-41501513D01*
X104636542Y-41620136D01*
X104667241Y-41734707D01*
X104667243Y-41734712D01*
X104686397Y-41767887D01*
X104693789Y-41824040D01*
X104659312Y-41868973D01*
X104561389Y-41925509D01*
X104477508Y-42009390D01*
X104418201Y-42112112D01*
X104418199Y-42112117D01*
X104387500Y-42226688D01*
X104387500Y-42337850D01*
X104365826Y-42390176D01*
X104327937Y-42410428D01*
X104267260Y-42422497D01*
X104267257Y-42422498D01*
X104148876Y-42471533D01*
X104042331Y-42542723D01*
X104042330Y-42542725D01*
X103951725Y-42633330D01*
X103951723Y-42633331D01*
X103880533Y-42739876D01*
X103831498Y-42858257D01*
X103831497Y-42858260D01*
X103806500Y-42983932D01*
X103806500Y-43112067D01*
X103831497Y-43237739D01*
X103831498Y-43237742D01*
X103877131Y-43347911D01*
X103880535Y-43356127D01*
X103903479Y-43390465D01*
X103950697Y-43461133D01*
X103951724Y-43462669D01*
X104042331Y-43553276D01*
X104148873Y-43624465D01*
X104267256Y-43673501D01*
X104267258Y-43673501D01*
X104267260Y-43673502D01*
X104299586Y-43679932D01*
X104392931Y-43698500D01*
X104483246Y-43698500D01*
X104535571Y-43720173D01*
X104561387Y-43745989D01*
X104561389Y-43745990D01*
X104561390Y-43745991D01*
X104664112Y-43805298D01*
X104664114Y-43805299D01*
X104664115Y-43805299D01*
X104664117Y-43805300D01*
X104692063Y-43812788D01*
X104778688Y-43835999D01*
X104778689Y-43836000D01*
X104778691Y-43836000D01*
X104897311Y-43836000D01*
X104897311Y-43835999D01*
X105011886Y-43805299D01*
X105114613Y-43745989D01*
X105198489Y-43662113D01*
X105257799Y-43559386D01*
X105288499Y-43444811D01*
X105288500Y-43444811D01*
X105288500Y-43326189D01*
X105288499Y-43326188D01*
X105257800Y-43211617D01*
X105257798Y-43211612D01*
X105198491Y-43108890D01*
X105198490Y-43108889D01*
X105198489Y-43108887D01*
X105129174Y-43039572D01*
X105108658Y-43000288D01*
X105107500Y-42993820D01*
X105107500Y-42983931D01*
X105089780Y-42894852D01*
X105089658Y-42894167D01*
X105089745Y-42893768D01*
X105088500Y-42881125D01*
X105088500Y-42703019D01*
X105110174Y-42650693D01*
X105112082Y-42649019D01*
X105114610Y-42646490D01*
X105114613Y-42646489D01*
X105198489Y-42562613D01*
X105257799Y-42459886D01*
X105288499Y-42345311D01*
X105288500Y-42345311D01*
X105288500Y-42226689D01*
X105288499Y-42226688D01*
X105257800Y-42112117D01*
X105257798Y-42112112D01*
X105238644Y-42078937D01*
X105231251Y-42022785D01*
X105265729Y-41977851D01*
X105363655Y-41921314D01*
X105447531Y-41837438D01*
X105462508Y-41811498D01*
X105470440Y-41805411D01*
X105474267Y-41796174D01*
X105492116Y-41788780D01*
X105507443Y-41777021D01*
X105526593Y-41774500D01*
X105585220Y-41774500D01*
X105637546Y-41796174D01*
X105653587Y-41820182D01*
X105658532Y-41832122D01*
X105658533Y-41832123D01*
X105658535Y-41832127D01*
X105682080Y-41867364D01*
X105710500Y-41909899D01*
X105729724Y-41938669D01*
X105820331Y-42029276D01*
X105926873Y-42100465D01*
X106045256Y-42149501D01*
X106045258Y-42149501D01*
X106045260Y-42149502D01*
X106087903Y-42157984D01*
X106170931Y-42174500D01*
X106170933Y-42174500D01*
X106299067Y-42174500D01*
X106299069Y-42174500D01*
X106424744Y-42149501D01*
X106543127Y-42100465D01*
X106649669Y-42029276D01*
X106740276Y-41938669D01*
X106811465Y-41832127D01*
X106860501Y-41713744D01*
X106885500Y-41588069D01*
X106885500Y-41459931D01*
X106860501Y-41334256D01*
X106811465Y-41215873D01*
X106740276Y-41109331D01*
X106700805Y-41069860D01*
X106679131Y-41017536D01*
X106700803Y-40965211D01*
X106773357Y-40892658D01*
X106773356Y-40892658D01*
X107041441Y-40624574D01*
X107093767Y-40602900D01*
X107183311Y-40602900D01*
X107183311Y-40602899D01*
X107297886Y-40572199D01*
X107400613Y-40512889D01*
X107484489Y-40429013D01*
X107543799Y-40326286D01*
X107574499Y-40211711D01*
X107574500Y-40211711D01*
X107574500Y-40093089D01*
X107574499Y-40093088D01*
X107543800Y-39978517D01*
X107543798Y-39978512D01*
X107484491Y-39875790D01*
X107484490Y-39875789D01*
X107484489Y-39875787D01*
X107400613Y-39791911D01*
X107400610Y-39791909D01*
X107400609Y-39791908D01*
X107297887Y-39732601D01*
X107297882Y-39732599D01*
X107183311Y-39701900D01*
X107183309Y-39701900D01*
X107064691Y-39701900D01*
X107064689Y-39701900D01*
X106950117Y-39732599D01*
X106950112Y-39732601D01*
X106847390Y-39791908D01*
X106763508Y-39875790D01*
X106704201Y-39978512D01*
X106704199Y-39978517D01*
X106673500Y-40093088D01*
X106673500Y-40182631D01*
X106651826Y-40234957D01*
X106591533Y-40295251D01*
X106491383Y-40395402D01*
X106447359Y-40439426D01*
X106395033Y-40461100D01*
X103310000Y-40461100D01*
X103208744Y-40503040D01*
X102757026Y-40954758D01*
X102704700Y-40976432D01*
X102652374Y-40954758D01*
X102630700Y-40902432D01*
X102630700Y-39574231D01*
X104454500Y-39574231D01*
X104454500Y-39725768D01*
X104493717Y-39872130D01*
X104493721Y-39872139D01*
X104530302Y-39935499D01*
X104569485Y-40003365D01*
X104676635Y-40110515D01*
X104807865Y-40186281D01*
X104954231Y-40225499D01*
X104954232Y-40225500D01*
X104954234Y-40225500D01*
X105105768Y-40225500D01*
X105105768Y-40225499D01*
X105252135Y-40186281D01*
X105383365Y-40110515D01*
X105490515Y-40003365D01*
X105566281Y-39872135D01*
X105605499Y-39725768D01*
X105605500Y-39725768D01*
X105605500Y-39574232D01*
X105605499Y-39574231D01*
X105594662Y-39533788D01*
X105566281Y-39427865D01*
X105490515Y-39296635D01*
X105383365Y-39189485D01*
X105379972Y-39187526D01*
X105252139Y-39113721D01*
X105252130Y-39113717D01*
X105105768Y-39074500D01*
X105105766Y-39074500D01*
X104954234Y-39074500D01*
X104954232Y-39074500D01*
X104807869Y-39113717D01*
X104807860Y-39113721D01*
X104676637Y-39189483D01*
X104569483Y-39296637D01*
X104493721Y-39427860D01*
X104493717Y-39427869D01*
X104454500Y-39574231D01*
X102630700Y-39574231D01*
X102630700Y-38755583D01*
X102652374Y-38703257D01*
X102718556Y-38637075D01*
X102718557Y-38637074D01*
X102740320Y-38584534D01*
X102760500Y-38535816D01*
X102760500Y-38155932D01*
X104329500Y-38155932D01*
X104329500Y-38284067D01*
X104354497Y-38409739D01*
X104354498Y-38409742D01*
X104382689Y-38477802D01*
X104403535Y-38528127D01*
X104436903Y-38578066D01*
X104463011Y-38617140D01*
X104474724Y-38634669D01*
X104565331Y-38725276D01*
X104671873Y-38796465D01*
X104790256Y-38845501D01*
X104790258Y-38845501D01*
X104790260Y-38845502D01*
X104831353Y-38853676D01*
X104915931Y-38870500D01*
X104915933Y-38870500D01*
X106144067Y-38870500D01*
X106144069Y-38870500D01*
X106269744Y-38845501D01*
X106388127Y-38796465D01*
X106494669Y-38725276D01*
X106585276Y-38634669D01*
X106656465Y-38528127D01*
X106705501Y-38409744D01*
X106730500Y-38284069D01*
X106730500Y-38155931D01*
X106710180Y-38053778D01*
X106705502Y-38030260D01*
X106705501Y-38030257D01*
X106704278Y-38027305D01*
X106656465Y-37911873D01*
X106585276Y-37805331D01*
X106494669Y-37714724D01*
X106388127Y-37643535D01*
X106388124Y-37643533D01*
X106388123Y-37643533D01*
X106269742Y-37594498D01*
X106269739Y-37594497D01*
X106179696Y-37576586D01*
X106144069Y-37569500D01*
X104915931Y-37569500D01*
X104884726Y-37575707D01*
X104790260Y-37594497D01*
X104790257Y-37594498D01*
X104671876Y-37643533D01*
X104565331Y-37714723D01*
X104565330Y-37714725D01*
X104474725Y-37805330D01*
X104474723Y-37805331D01*
X104403533Y-37911876D01*
X104354498Y-38030257D01*
X104354497Y-38030260D01*
X104329500Y-38155932D01*
X102760500Y-38155932D01*
X102760500Y-32900688D01*
X104929500Y-32900688D01*
X104929500Y-33019311D01*
X104960199Y-33133882D01*
X104960201Y-33133887D01*
X105019508Y-33236609D01*
X105019509Y-33236610D01*
X105019511Y-33236613D01*
X105103387Y-33320489D01*
X105103389Y-33320490D01*
X105103390Y-33320491D01*
X105206112Y-33379798D01*
X105206114Y-33379799D01*
X105206115Y-33379799D01*
X105206117Y-33379800D01*
X105263402Y-33395149D01*
X105320688Y-33410499D01*
X105320689Y-33410500D01*
X105320691Y-33410500D01*
X105439311Y-33410500D01*
X105439311Y-33410499D01*
X105553886Y-33379799D01*
X105656613Y-33320489D01*
X105740489Y-33236613D01*
X105799799Y-33133886D01*
X105830499Y-33019311D01*
X105830500Y-33019311D01*
X105830500Y-32929764D01*
X105844536Y-32895880D01*
X105852173Y-32877442D01*
X105867444Y-32862171D01*
X105919767Y-32840500D01*
X116624455Y-32840500D01*
X116676781Y-32862174D01*
X116698455Y-32914500D01*
X116676781Y-32966826D01*
X113418717Y-36224890D01*
X113365995Y-36316207D01*
X113365991Y-36316216D01*
X113340996Y-36409497D01*
X113340997Y-36409498D01*
X113338700Y-36418070D01*
X113338700Y-36418073D01*
X113338700Y-38807559D01*
X113338700Y-38913013D01*
X113356834Y-38980691D01*
X113365993Y-39014874D01*
X113365995Y-39014878D01*
X113418717Y-39106195D01*
X113418718Y-39106196D01*
X113418720Y-39106199D01*
X113856830Y-39544309D01*
X114293326Y-39980805D01*
X114312477Y-40013974D01*
X114313673Y-40018439D01*
X114329205Y-40055936D01*
X114329209Y-40055945D01*
X114395033Y-40169957D01*
X114411899Y-40191936D01*
X114419746Y-40202162D01*
X114512838Y-40295254D01*
X114528176Y-40307023D01*
X114545042Y-40319966D01*
X114589771Y-40345790D01*
X114659057Y-40385792D01*
X114696560Y-40401326D01*
X114823727Y-40435401D01*
X114823730Y-40435401D01*
X114823733Y-40435402D01*
X114848468Y-40438658D01*
X114863974Y-40440700D01*
X115238255Y-40440700D01*
X115290581Y-40462374D01*
X115917826Y-41089618D01*
X115939500Y-41141944D01*
X115939500Y-41972858D01*
X115929586Y-42009857D01*
X115920203Y-42026108D01*
X115920199Y-42026117D01*
X115889500Y-42140688D01*
X115889500Y-42259311D01*
X115920199Y-42373882D01*
X115920201Y-42373887D01*
X115979508Y-42476609D01*
X115979509Y-42476610D01*
X115979511Y-42476613D01*
X116063387Y-42560489D01*
X116063389Y-42560490D01*
X116063390Y-42560491D01*
X116166112Y-42619798D01*
X116166114Y-42619799D01*
X116166115Y-42619799D01*
X116166117Y-42619800D01*
X116216612Y-42633330D01*
X116280688Y-42650499D01*
X116280689Y-42650500D01*
X116280691Y-42650500D01*
X116399311Y-42650500D01*
X116399311Y-42650499D01*
X116513886Y-42619799D01*
X116616613Y-42560489D01*
X116700489Y-42476613D01*
X116759799Y-42373886D01*
X116790499Y-42259311D01*
X116790500Y-42259311D01*
X116790500Y-42140689D01*
X116790499Y-42140688D01*
X116789224Y-42135931D01*
X116759799Y-42026114D01*
X116759796Y-42026108D01*
X116750414Y-42009857D01*
X116740500Y-41972858D01*
X116740500Y-41004098D01*
X116740501Y-41004085D01*
X116740501Y-40892671D01*
X116740500Y-40892670D01*
X116713208Y-40790816D01*
X116713206Y-40790811D01*
X116667754Y-40712086D01*
X116660479Y-40699486D01*
X116583334Y-40622341D01*
X116583323Y-40622331D01*
X116061413Y-40100421D01*
X116039739Y-40048095D01*
X116045179Y-40020746D01*
X116045147Y-40020735D01*
X116045230Y-40020488D01*
X116045372Y-40019777D01*
X116045926Y-40018440D01*
X116080001Y-39891273D01*
X116085300Y-39851026D01*
X116085300Y-39285200D01*
X116085300Y-39285198D01*
X116085299Y-39285197D01*
X116068740Y-39223399D01*
X116064467Y-39207450D01*
X116044543Y-39187526D01*
X116022869Y-39135200D01*
X116044543Y-39082874D01*
X116052917Y-39074500D01*
X116064467Y-39062950D01*
X116085299Y-38985202D01*
X116085300Y-38985202D01*
X116085300Y-38419374D01*
X116080002Y-38379133D01*
X116080000Y-38379124D01*
X116076072Y-38364466D01*
X116045926Y-38251960D01*
X116030392Y-38214457D01*
X115996602Y-38155931D01*
X115964566Y-38100442D01*
X115951623Y-38083576D01*
X115939854Y-38068238D01*
X115846762Y-37975146D01*
X115836536Y-37967299D01*
X115814557Y-37950433D01*
X115700545Y-37884609D01*
X115700536Y-37884605D01*
X115663039Y-37869073D01*
X115535875Y-37834999D01*
X115535868Y-37834998D01*
X115515640Y-37832335D01*
X115466592Y-37804016D01*
X115453083Y-37775115D01*
X115451300Y-37767140D01*
X115451300Y-37735400D01*
X115438330Y-37704087D01*
X115409358Y-37634142D01*
X114911374Y-37136158D01*
X114889700Y-37083832D01*
X114889700Y-36994289D01*
X114889699Y-36994288D01*
X114859000Y-36879717D01*
X114858998Y-36879712D01*
X114799691Y-36776990D01*
X114799690Y-36776989D01*
X114799689Y-36776987D01*
X114715813Y-36693111D01*
X114715810Y-36693109D01*
X114715809Y-36693108D01*
X114613087Y-36633801D01*
X114613082Y-36633799D01*
X114498511Y-36603100D01*
X114498509Y-36603100D01*
X114379891Y-36603100D01*
X114364432Y-36607242D01*
X114308279Y-36599848D01*
X114273801Y-36554915D01*
X114281195Y-36498762D01*
X114292950Y-36483441D01*
X116612287Y-34164105D01*
X117679500Y-34164105D01*
X117679500Y-34295894D01*
X117713606Y-34423181D01*
X117713610Y-34423190D01*
X117773034Y-34526114D01*
X117779500Y-34537314D01*
X117872686Y-34630500D01*
X117986814Y-34696392D01*
X118114105Y-34730499D01*
X118114106Y-34730500D01*
X118114108Y-34730500D01*
X118245894Y-34730500D01*
X118245894Y-34730499D01*
X118373186Y-34696392D01*
X118487314Y-34630500D01*
X118540640Y-34577174D01*
X118592966Y-34555500D01*
X122794521Y-34555500D01*
X122846847Y-34577174D01*
X125017826Y-36748153D01*
X125039500Y-36800479D01*
X125039500Y-36875894D01*
X125073606Y-37003181D01*
X125073610Y-37003190D01*
X125120169Y-37083832D01*
X125139500Y-37117314D01*
X125232686Y-37210500D01*
X125346814Y-37276392D01*
X125474105Y-37310499D01*
X125474106Y-37310500D01*
X125474108Y-37310500D01*
X125605894Y-37310500D01*
X125605894Y-37310499D01*
X125733186Y-37276392D01*
X125847314Y-37210500D01*
X125940500Y-37117314D01*
X126006392Y-37003186D01*
X126040499Y-36875894D01*
X126040500Y-36875894D01*
X126040500Y-36744106D01*
X126040499Y-36744105D01*
X126033908Y-36719508D01*
X126006392Y-36616814D01*
X125940500Y-36502686D01*
X125847314Y-36409500D01*
X125847309Y-36409497D01*
X125733190Y-36343610D01*
X125733181Y-36343606D01*
X125605894Y-36309500D01*
X125605892Y-36309500D01*
X125530479Y-36309500D01*
X125478153Y-36287826D01*
X124340826Y-35150499D01*
X123159862Y-33969535D01*
X123159859Y-33969533D01*
X123159858Y-33969532D01*
X123085643Y-33926684D01*
X123085641Y-33926683D01*
X123085640Y-33926682D01*
X123085639Y-33926682D01*
X123002853Y-33904500D01*
X123002851Y-33904500D01*
X118592966Y-33904500D01*
X118540640Y-33882826D01*
X118487314Y-33829500D01*
X118373190Y-33763610D01*
X118373181Y-33763606D01*
X118245894Y-33729500D01*
X118245892Y-33729500D01*
X118114108Y-33729500D01*
X118114106Y-33729500D01*
X117986818Y-33763606D01*
X117986809Y-33763610D01*
X117872685Y-33829500D01*
X117779500Y-33922685D01*
X117713610Y-34036809D01*
X117713606Y-34036818D01*
X117679500Y-34164105D01*
X116612287Y-34164105D01*
X117214218Y-33562174D01*
X117266544Y-33540500D01*
X118572859Y-33540500D01*
X118609860Y-33550415D01*
X118626109Y-33559797D01*
X118626117Y-33559800D01*
X118683402Y-33575149D01*
X118740688Y-33590499D01*
X118740689Y-33590500D01*
X118740691Y-33590500D01*
X118859311Y-33590500D01*
X118859311Y-33590499D01*
X118973886Y-33559799D01*
X119076613Y-33500489D01*
X119160489Y-33416613D01*
X119219799Y-33313886D01*
X119250499Y-33199311D01*
X119250500Y-33199311D01*
X119250500Y-33080689D01*
X119250499Y-33080688D01*
X119250106Y-33079223D01*
X119219799Y-32966114D01*
X119219796Y-32966108D01*
X119211362Y-32951499D01*
X119203970Y-32895347D01*
X119238449Y-32850414D01*
X119275448Y-32840500D01*
X122570233Y-32840500D01*
X122622559Y-32862174D01*
X124377826Y-34617441D01*
X124399500Y-34669767D01*
X124399500Y-34759311D01*
X124430199Y-34873882D01*
X124430201Y-34873887D01*
X124489508Y-34976609D01*
X124489509Y-34976610D01*
X124489511Y-34976613D01*
X124573387Y-35060489D01*
X124676114Y-35119799D01*
X124676115Y-35119799D01*
X124676117Y-35119800D01*
X124733402Y-35135149D01*
X124790688Y-35150499D01*
X124790689Y-35150500D01*
X124790691Y-35150500D01*
X124909311Y-35150500D01*
X124909311Y-35150499D01*
X125023886Y-35119799D01*
X125126613Y-35060489D01*
X125210489Y-34976613D01*
X125269799Y-34873886D01*
X125300499Y-34759311D01*
X125300500Y-34759311D01*
X125300500Y-34640689D01*
X125300499Y-34640688D01*
X125269800Y-34526117D01*
X125269798Y-34526112D01*
X125210491Y-34423390D01*
X125210490Y-34423389D01*
X125210489Y-34423387D01*
X125126613Y-34339511D01*
X125126610Y-34339509D01*
X125126609Y-34339508D01*
X125023887Y-34280201D01*
X125023882Y-34280199D01*
X124909311Y-34249500D01*
X124909309Y-34249500D01*
X124819767Y-34249500D01*
X124767441Y-34227826D01*
X123853497Y-33313882D01*
X122871058Y-32331443D01*
X122769800Y-32289500D01*
X105720200Y-32289500D01*
X105648598Y-32319157D01*
X105648599Y-32319158D01*
X105618942Y-32331442D01*
X105618939Y-32331444D01*
X105462557Y-32487826D01*
X105410231Y-32509500D01*
X105320689Y-32509500D01*
X105206117Y-32540199D01*
X105206112Y-32540201D01*
X105103390Y-32599508D01*
X105019508Y-32683390D01*
X104960201Y-32786112D01*
X104960199Y-32786117D01*
X104929500Y-32900688D01*
X102760500Y-32900688D01*
X102760500Y-32599766D01*
X102782173Y-32547441D01*
X103657440Y-31672173D01*
X103709766Y-31650500D01*
X103799311Y-31650500D01*
X103799311Y-31650499D01*
X103913886Y-31619799D01*
X104016613Y-31560489D01*
X104100489Y-31476613D01*
X104159799Y-31373886D01*
X104190499Y-31259311D01*
X104190500Y-31259311D01*
X104190500Y-31180688D01*
X134329500Y-31180688D01*
X134329500Y-31299311D01*
X134360199Y-31413882D01*
X134360201Y-31413887D01*
X134419508Y-31516609D01*
X134419509Y-31516610D01*
X134419511Y-31516613D01*
X134503387Y-31600489D01*
X134503389Y-31600490D01*
X134503390Y-31600491D01*
X134536834Y-31619800D01*
X134606114Y-31659799D01*
X134606115Y-31659799D01*
X134606117Y-31659800D01*
X134652298Y-31672174D01*
X134720688Y-31690499D01*
X134720689Y-31690500D01*
X134844160Y-31690500D01*
X134844160Y-31693217D01*
X134890470Y-31705626D01*
X134897747Y-31712008D01*
X135978526Y-32792786D01*
X136000200Y-32845112D01*
X136000200Y-37435155D01*
X135978526Y-37487481D01*
X135926200Y-37509155D01*
X135873874Y-37487481D01*
X135343808Y-36957415D01*
X135324656Y-36924242D01*
X135319799Y-36906114D01*
X135260489Y-36803387D01*
X135176613Y-36719511D01*
X135176610Y-36719509D01*
X135176609Y-36719508D01*
X135073887Y-36660201D01*
X135073882Y-36660199D01*
X134959311Y-36629500D01*
X134959309Y-36629500D01*
X134840691Y-36629500D01*
X134840689Y-36629500D01*
X134726117Y-36660199D01*
X134726112Y-36660201D01*
X134623390Y-36719508D01*
X134539508Y-36803390D01*
X134480201Y-36906112D01*
X134480199Y-36906117D01*
X134449500Y-37020688D01*
X134449500Y-37139311D01*
X134480199Y-37253882D01*
X134480201Y-37253887D01*
X134539508Y-37356609D01*
X134539509Y-37356610D01*
X134539511Y-37356613D01*
X134623387Y-37440489D01*
X134623389Y-37440490D01*
X134623390Y-37440491D01*
X134680388Y-37473399D01*
X134726114Y-37499799D01*
X134744242Y-37504656D01*
X134777415Y-37523808D01*
X135347826Y-38094219D01*
X135369500Y-38146545D01*
X135369500Y-84307273D01*
X135369500Y-84412727D01*
X135391434Y-84494588D01*
X135396793Y-84514588D01*
X135396795Y-84514592D01*
X135449517Y-84605909D01*
X135449518Y-84605910D01*
X135449520Y-84605913D01*
X141039798Y-90196191D01*
X145196191Y-94352584D01*
X145215342Y-94385754D01*
X145220200Y-94403882D01*
X145220202Y-94403888D01*
X145279508Y-94506609D01*
X145279509Y-94506610D01*
X145279511Y-94506613D01*
X145363387Y-94590489D01*
X145363389Y-94590490D01*
X145363390Y-94590491D01*
X145425837Y-94626545D01*
X145466114Y-94649799D01*
X145466115Y-94649799D01*
X145466117Y-94649800D01*
X145523402Y-94665149D01*
X145580688Y-94680499D01*
X145580689Y-94680500D01*
X145580691Y-94680500D01*
X145699311Y-94680500D01*
X145699311Y-94680499D01*
X145813886Y-94649799D01*
X145916613Y-94590489D01*
X146000489Y-94506613D01*
X146059799Y-94403886D01*
X146090499Y-94289311D01*
X146090500Y-94289311D01*
X146090500Y-94170689D01*
X146090499Y-94170688D01*
X146059800Y-94056117D01*
X146059798Y-94056112D01*
X146000491Y-93953390D01*
X146000490Y-93953389D01*
X146000489Y-93953387D01*
X145916613Y-93869511D01*
X145916610Y-93869509D01*
X145916609Y-93869508D01*
X145813888Y-93810202D01*
X145813887Y-93810201D01*
X145813886Y-93810201D01*
X145795754Y-93805342D01*
X145762584Y-93786191D01*
X136192174Y-84215781D01*
X136170500Y-84163455D01*
X136170500Y-47857484D01*
X166124500Y-47857484D01*
X166124500Y-48042515D01*
X166153444Y-48225261D01*
X166153447Y-48225274D01*
X166210619Y-48401232D01*
X166210621Y-48401236D01*
X166294620Y-48566092D01*
X166294623Y-48566098D01*
X166386553Y-48692628D01*
X166403379Y-48715787D01*
X166534213Y-48846621D01*
X166534216Y-48846623D01*
X166534217Y-48846624D01*
X166617599Y-48907205D01*
X166683904Y-48955378D01*
X166843027Y-49036455D01*
X166848763Y-49039378D01*
X166848767Y-49039380D01*
X167024725Y-49096552D01*
X167024731Y-49096553D01*
X167024736Y-49096555D01*
X167089256Y-49106774D01*
X167207484Y-49125500D01*
X167207486Y-49125500D01*
X167392516Y-49125500D01*
X167465614Y-49113922D01*
X167575264Y-49096555D01*
X167575271Y-49096552D01*
X167575274Y-49096552D01*
X167751232Y-49039380D01*
X167751232Y-49039379D01*
X167751235Y-49039379D01*
X167916096Y-48955378D01*
X168065787Y-48846621D01*
X168196621Y-48715787D01*
X168305378Y-48566096D01*
X168389379Y-48401235D01*
X168446555Y-48225264D01*
X168475500Y-48042514D01*
X168475500Y-47857486D01*
X168474854Y-47853409D01*
X168459775Y-47758201D01*
X168446555Y-47674736D01*
X168446553Y-47674731D01*
X168446552Y-47674725D01*
X168389380Y-47498767D01*
X168389378Y-47498763D01*
X168357636Y-47436466D01*
X168305378Y-47333904D01*
X168292961Y-47316814D01*
X168196624Y-47184217D01*
X168196623Y-47184216D01*
X168196621Y-47184213D01*
X168065787Y-47053379D01*
X168065784Y-47053376D01*
X168065782Y-47053375D01*
X167916098Y-46944623D01*
X167916092Y-46944620D01*
X167751236Y-46860621D01*
X167751232Y-46860619D01*
X167575274Y-46803447D01*
X167575261Y-46803444D01*
X167392516Y-46774500D01*
X167392514Y-46774500D01*
X167207486Y-46774500D01*
X167207484Y-46774500D01*
X167024738Y-46803444D01*
X167024725Y-46803447D01*
X166848767Y-46860619D01*
X166848763Y-46860621D01*
X166683907Y-46944620D01*
X166683901Y-46944623D01*
X166534217Y-47053375D01*
X166403375Y-47184217D01*
X166294623Y-47333901D01*
X166294620Y-47333907D01*
X166210621Y-47498763D01*
X166210619Y-47498767D01*
X166153447Y-47674725D01*
X166153444Y-47674738D01*
X166124500Y-47857484D01*
X136170500Y-47857484D01*
X136170500Y-47188376D01*
X136192174Y-47136050D01*
X136244500Y-47114376D01*
X136281498Y-47124289D01*
X136327414Y-47150799D01*
X136327416Y-47150799D01*
X136327417Y-47150800D01*
X136384702Y-47166149D01*
X136441988Y-47181499D01*
X136441989Y-47181500D01*
X136441991Y-47181500D01*
X136560611Y-47181500D01*
X136560611Y-47181499D01*
X136675186Y-47150799D01*
X136777913Y-47091489D01*
X136861789Y-47007613D01*
X136921099Y-46904886D01*
X136951799Y-46790311D01*
X136951800Y-46790311D01*
X136951800Y-46671689D01*
X136951799Y-46671688D01*
X136951416Y-46670260D01*
X136921099Y-46557114D01*
X136920810Y-46556613D01*
X136861791Y-46454390D01*
X136861790Y-46454389D01*
X136861789Y-46454387D01*
X136798474Y-46391072D01*
X136776800Y-46338746D01*
X136776800Y-41069666D01*
X136798473Y-41017341D01*
X136834346Y-40981468D01*
X136886671Y-40959795D01*
X136938997Y-40981469D01*
X136960671Y-41033795D01*
X136958150Y-41052947D01*
X136932800Y-41147555D01*
X136932800Y-41290847D01*
X136969884Y-41429248D01*
X136969888Y-41429257D01*
X137031516Y-41535999D01*
X137041532Y-41553347D01*
X137142853Y-41654668D01*
X137266947Y-41726314D01*
X137405352Y-41763399D01*
X137405353Y-41763400D01*
X137405355Y-41763400D01*
X137548647Y-41763400D01*
X137548647Y-41763399D01*
X137628549Y-41741990D01*
X137684702Y-41749382D01*
X137719180Y-41794315D01*
X137711788Y-41850468D01*
X137688816Y-41874995D01*
X137636584Y-41909896D01*
X137636580Y-41909899D01*
X137532696Y-42013783D01*
X137451078Y-42135933D01*
X137394861Y-42271653D01*
X137394858Y-42271664D01*
X137366200Y-42415745D01*
X137366200Y-42562654D01*
X137394858Y-42706735D01*
X137394861Y-42706746D01*
X137451078Y-42842466D01*
X137485623Y-42894167D01*
X137532699Y-42964620D01*
X137636580Y-43068501D01*
X137758731Y-43150120D01*
X137894458Y-43206340D01*
X138038545Y-43235000D01*
X138185455Y-43235000D01*
X138329542Y-43206340D01*
X138465269Y-43150120D01*
X138587420Y-43068501D01*
X138691301Y-42964620D01*
X138772920Y-42842469D01*
X138829140Y-42706742D01*
X138857800Y-42562655D01*
X138857800Y-42415745D01*
X138829140Y-42271658D01*
X138774891Y-42140689D01*
X138772921Y-42135933D01*
X138768744Y-42129682D01*
X138691301Y-42013780D01*
X138587420Y-41909899D01*
X138535184Y-41874996D01*
X138503719Y-41827905D01*
X138514768Y-41772356D01*
X138561860Y-41740890D01*
X138595450Y-41741990D01*
X138630876Y-41751482D01*
X138675352Y-41763399D01*
X138675353Y-41763400D01*
X138675355Y-41763400D01*
X138818646Y-41763400D01*
X138847862Y-41755571D01*
X138890704Y-41744091D01*
X138900617Y-41745396D01*
X138909857Y-41741569D01*
X138927703Y-41748961D01*
X138946856Y-41751482D01*
X138962183Y-41763243D01*
X139036992Y-41838052D01*
X139058666Y-41890378D01*
X139058500Y-41892914D01*
X139058500Y-42015111D01*
X139089199Y-42129682D01*
X139089201Y-42129687D01*
X139148508Y-42232409D01*
X139148509Y-42232410D01*
X139148511Y-42232413D01*
X139232387Y-42316289D01*
X139232389Y-42316290D01*
X139232390Y-42316291D01*
X139335112Y-42375598D01*
X139335114Y-42375599D01*
X139335115Y-42375599D01*
X139335117Y-42375600D01*
X139389516Y-42390176D01*
X139449688Y-42406299D01*
X139449689Y-42406300D01*
X139449691Y-42406300D01*
X139568311Y-42406300D01*
X139568311Y-42406299D01*
X139682886Y-42375599D01*
X139785613Y-42316289D01*
X139869489Y-42232413D01*
X139928799Y-42129686D01*
X139959499Y-42015111D01*
X139959500Y-42015111D01*
X139959500Y-41896489D01*
X139959499Y-41896488D01*
X139958541Y-41892914D01*
X139928799Y-41781914D01*
X139925974Y-41777021D01*
X139869491Y-41679190D01*
X139869490Y-41679189D01*
X139869489Y-41679187D01*
X139785613Y-41595311D01*
X139785610Y-41595309D01*
X139785609Y-41595308D01*
X139682887Y-41536001D01*
X139682882Y-41535999D01*
X139568311Y-41505300D01*
X139568309Y-41505300D01*
X139449691Y-41505300D01*
X139444841Y-41505300D01*
X139444841Y-41504942D01*
X139443578Y-41505466D01*
X139421546Y-41496340D01*
X139398517Y-41490164D01*
X139391252Y-41483792D01*
X139301779Y-41394318D01*
X139280105Y-41341992D01*
X139282627Y-41322838D01*
X139291200Y-41290846D01*
X139291200Y-41147553D01*
X139291199Y-41147552D01*
X139289696Y-41141944D01*
X139254114Y-41009147D01*
X139182468Y-40885053D01*
X139081147Y-40783732D01*
X139073490Y-40779311D01*
X138957057Y-40712088D01*
X138957048Y-40712084D01*
X138818647Y-40675000D01*
X138813838Y-40674367D01*
X138814129Y-40672154D01*
X138768674Y-40653326D01*
X138747000Y-40601000D01*
X138747000Y-40567400D01*
X138768674Y-40515074D01*
X138814129Y-40496245D01*
X138813838Y-40494033D01*
X138818639Y-40493400D01*
X138818645Y-40493400D01*
X138957053Y-40456314D01*
X139081147Y-40384668D01*
X139182468Y-40283347D01*
X139209400Y-40236700D01*
X139254333Y-40202222D01*
X139273486Y-40199700D01*
X139867827Y-40199700D01*
X139867828Y-40199700D01*
X139959897Y-40161564D01*
X140167105Y-39954354D01*
X140219429Y-39932681D01*
X140238588Y-39935204D01*
X140239690Y-39935500D01*
X140358310Y-39935500D01*
X140358310Y-39935499D01*
X140472885Y-39904799D01*
X140575612Y-39845489D01*
X140659488Y-39761613D01*
X140718798Y-39658886D01*
X140749498Y-39544311D01*
X140749499Y-39544311D01*
X140749499Y-39425689D01*
X140749498Y-39425688D01*
X140747821Y-39419431D01*
X140729788Y-39352130D01*
X140718799Y-39311117D01*
X140718797Y-39311112D01*
X140659490Y-39208390D01*
X140659489Y-39208389D01*
X140659488Y-39208387D01*
X140575612Y-39124511D01*
X140575609Y-39124509D01*
X140575608Y-39124508D01*
X140472886Y-39065201D01*
X140472881Y-39065199D01*
X140358310Y-39034500D01*
X140358308Y-39034500D01*
X140239690Y-39034500D01*
X140239688Y-39034500D01*
X140125116Y-39065199D01*
X140125111Y-39065201D01*
X140022389Y-39124508D01*
X139938507Y-39208390D01*
X139879200Y-39311112D01*
X139879198Y-39311117D01*
X139848499Y-39425688D01*
X139848499Y-39533788D01*
X139826825Y-39586114D01*
X139735913Y-39677026D01*
X139683587Y-39698700D01*
X139273486Y-39698700D01*
X139221160Y-39677026D01*
X139209400Y-39661700D01*
X139182470Y-39615056D01*
X139182469Y-39615055D01*
X139182468Y-39615053D01*
X139081147Y-39513732D01*
X139081144Y-39513730D01*
X138957057Y-39442088D01*
X138957048Y-39442084D01*
X138818647Y-39405000D01*
X138813838Y-39404367D01*
X138814129Y-39402154D01*
X138768674Y-39383326D01*
X138747000Y-39331000D01*
X138747000Y-39297400D01*
X138768674Y-39245074D01*
X138814129Y-39226245D01*
X138813838Y-39224033D01*
X138818639Y-39223400D01*
X138818645Y-39223400D01*
X138957053Y-39186314D01*
X139081147Y-39114668D01*
X139182468Y-39013347D01*
X139254114Y-38889253D01*
X139291199Y-38750847D01*
X139291200Y-38750847D01*
X139291200Y-38607553D01*
X139291199Y-38607552D01*
X139288430Y-38597219D01*
X139254114Y-38469147D01*
X139182468Y-38345053D01*
X139118739Y-38281324D01*
X139097066Y-38229000D01*
X139118740Y-38176674D01*
X139171066Y-38155000D01*
X139201455Y-38155000D01*
X139345542Y-38126340D01*
X139481269Y-38070120D01*
X139603420Y-37988501D01*
X139707301Y-37884620D01*
X139788920Y-37762469D01*
X139845140Y-37626742D01*
X139873800Y-37482655D01*
X139873800Y-37335745D01*
X139845140Y-37191658D01*
X139788920Y-37055931D01*
X139707301Y-36933780D01*
X139603420Y-36829899D01*
X139524236Y-36776990D01*
X139481266Y-36748278D01*
X139345546Y-36692061D01*
X139345535Y-36692058D01*
X139201455Y-36663400D01*
X139054545Y-36663400D01*
X138910464Y-36692058D01*
X138910453Y-36692061D01*
X138774733Y-36748278D01*
X138652583Y-36829896D01*
X138548696Y-36933783D01*
X138467078Y-37055933D01*
X138410861Y-37191653D01*
X138410858Y-37191664D01*
X138387221Y-37310500D01*
X138382200Y-37335745D01*
X138382200Y-37482655D01*
X138385610Y-37499798D01*
X138410858Y-37626735D01*
X138410861Y-37626746D01*
X138467078Y-37762466D01*
X138548691Y-37884609D01*
X138548699Y-37884620D01*
X138652580Y-37988501D01*
X138652583Y-37988503D01*
X138679796Y-38006686D01*
X138711262Y-38053778D01*
X138700213Y-38109327D01*
X138657837Y-38139693D01*
X138536951Y-38172084D01*
X138536942Y-38172088D01*
X138412855Y-38243730D01*
X138311530Y-38345055D01*
X138239888Y-38469142D01*
X138239884Y-38469151D01*
X138202800Y-38607552D01*
X138202167Y-38612362D01*
X138199954Y-38612070D01*
X138181126Y-38657526D01*
X138128800Y-38679200D01*
X137477000Y-38679200D01*
X137477000Y-39331000D01*
X137455326Y-39383326D01*
X137420213Y-39402970D01*
X137411725Y-39405000D01*
X137405355Y-39405000D01*
X137352406Y-39419187D01*
X137351387Y-39419431D01*
X137324340Y-39415123D01*
X137297172Y-39411546D01*
X137295939Y-39410600D01*
X137295455Y-39410523D01*
X137294973Y-39409858D01*
X137281848Y-39399787D01*
X137105474Y-39223413D01*
X137083800Y-39171087D01*
X137083800Y-38292107D01*
X137069390Y-38257317D01*
X137069390Y-38200681D01*
X137109438Y-38160633D01*
X137137757Y-38155000D01*
X137169455Y-38155000D01*
X137313542Y-38126340D01*
X137449269Y-38070120D01*
X137571420Y-37988501D01*
X137675301Y-37884620D01*
X137756920Y-37762469D01*
X137813140Y-37626742D01*
X137841800Y-37482655D01*
X137841800Y-37335745D01*
X137813140Y-37191658D01*
X137756920Y-37055931D01*
X137675301Y-36933780D01*
X137571420Y-36829899D01*
X137492236Y-36776990D01*
X137449266Y-36748278D01*
X137313546Y-36692061D01*
X137313535Y-36692058D01*
X137169455Y-36663400D01*
X137022545Y-36663400D01*
X136878464Y-36692058D01*
X136878453Y-36692061D01*
X136742733Y-36748278D01*
X136664610Y-36800479D01*
X136620585Y-36829896D01*
X136617557Y-36831919D01*
X136616498Y-36830335D01*
X136567920Y-36845052D01*
X136517980Y-36818336D01*
X136501200Y-36771411D01*
X136501200Y-32660872D01*
X136501199Y-32660870D01*
X136463065Y-32568805D01*
X136463063Y-32568802D01*
X136388382Y-32494121D01*
X136388375Y-32494115D01*
X135801166Y-31906905D01*
X135751745Y-31857484D01*
X166124500Y-31857484D01*
X166124500Y-32042515D01*
X166153444Y-32225261D01*
X166153447Y-32225274D01*
X166210619Y-32401232D01*
X166210621Y-32401236D01*
X166294620Y-32566092D01*
X166294623Y-32566098D01*
X166379839Y-32683387D01*
X166403379Y-32715787D01*
X166534213Y-32846621D01*
X166534216Y-32846623D01*
X166534217Y-32846624D01*
X166601278Y-32895347D01*
X166683904Y-32955378D01*
X166823328Y-33026418D01*
X166848763Y-33039378D01*
X166848767Y-33039380D01*
X167024725Y-33096552D01*
X167024731Y-33096553D01*
X167024736Y-33096555D01*
X167116111Y-33111027D01*
X167207484Y-33125500D01*
X167207486Y-33125500D01*
X167392516Y-33125500D01*
X167465614Y-33113922D01*
X167575264Y-33096555D01*
X167575271Y-33096552D01*
X167575274Y-33096552D01*
X167751232Y-33039380D01*
X167751232Y-33039379D01*
X167751235Y-33039379D01*
X167916096Y-32955378D01*
X168065787Y-32846621D01*
X168196621Y-32715787D01*
X168305378Y-32566096D01*
X168389379Y-32401235D01*
X168416048Y-32319157D01*
X168446552Y-32225274D01*
X168446552Y-32225271D01*
X168446555Y-32225264D01*
X168475500Y-32042514D01*
X168475500Y-31857486D01*
X168446555Y-31674736D01*
X168446553Y-31674731D01*
X168446552Y-31674725D01*
X168389380Y-31498767D01*
X168389378Y-31498763D01*
X168325750Y-31373887D01*
X168305378Y-31333904D01*
X168251181Y-31259309D01*
X168196624Y-31184217D01*
X168196623Y-31184216D01*
X168196621Y-31184213D01*
X168065787Y-31053379D01*
X168065784Y-31053376D01*
X168065782Y-31053375D01*
X167916098Y-30944623D01*
X167916092Y-30944620D01*
X167751236Y-30860621D01*
X167751232Y-30860619D01*
X167575274Y-30803447D01*
X167575261Y-30803444D01*
X167392516Y-30774500D01*
X167392514Y-30774500D01*
X167207486Y-30774500D01*
X167207484Y-30774500D01*
X167024738Y-30803444D01*
X167024725Y-30803447D01*
X166848767Y-30860619D01*
X166848763Y-30860621D01*
X166683907Y-30944620D01*
X166683901Y-30944623D01*
X166534217Y-31053375D01*
X166403375Y-31184217D01*
X166294623Y-31333901D01*
X166294620Y-31333907D01*
X166210621Y-31498763D01*
X166210619Y-31498767D01*
X166153447Y-31674725D01*
X166153444Y-31674738D01*
X166124500Y-31857484D01*
X135751745Y-31857484D01*
X135252008Y-31357747D01*
X135230334Y-31305421D01*
X135230500Y-31302888D01*
X135230500Y-31180689D01*
X135230499Y-31180688D01*
X135199800Y-31066117D01*
X135199798Y-31066112D01*
X135140491Y-30963390D01*
X135140490Y-30963389D01*
X135140489Y-30963387D01*
X135056613Y-30879511D01*
X135056610Y-30879509D01*
X135056609Y-30879508D01*
X134953887Y-30820201D01*
X134953882Y-30820199D01*
X134839311Y-30789500D01*
X134839309Y-30789500D01*
X134720691Y-30789500D01*
X134720689Y-30789500D01*
X134606117Y-30820199D01*
X134606112Y-30820201D01*
X134503390Y-30879508D01*
X134419508Y-30963390D01*
X134360201Y-31066112D01*
X134360199Y-31066117D01*
X134329500Y-31180688D01*
X104190500Y-31180688D01*
X104190500Y-31140689D01*
X104190499Y-31140688D01*
X104159800Y-31026117D01*
X104159798Y-31026112D01*
X104100491Y-30923390D01*
X104100490Y-30923389D01*
X104100489Y-30923387D01*
X104016613Y-30839511D01*
X104016610Y-30839509D01*
X104016609Y-30839508D01*
X103913887Y-30780201D01*
X103913882Y-30780199D01*
X103799311Y-30749500D01*
X103799309Y-30749500D01*
X103680691Y-30749500D01*
X103680689Y-30749500D01*
X103566117Y-30780199D01*
X103566112Y-30780201D01*
X103463390Y-30839508D01*
X103379508Y-30923390D01*
X103320201Y-31026112D01*
X103320199Y-31026117D01*
X103289500Y-31140688D01*
X103289500Y-31230232D01*
X103267826Y-31282558D01*
X102328942Y-32221443D01*
X102251442Y-32298943D01*
X102209500Y-32400200D01*
X102209500Y-33086236D01*
X102187826Y-33138562D01*
X102135500Y-33160236D01*
X102094388Y-33147765D01*
X101991808Y-33079223D01*
X101864332Y-33026421D01*
X101864322Y-33026418D01*
X101773694Y-33008391D01*
X101728993Y-32999500D01*
X101591007Y-32999500D01*
X101552642Y-33007131D01*
X101455677Y-33026418D01*
X101455667Y-33026421D01*
X101328191Y-33079223D01*
X101213461Y-33155883D01*
X101115883Y-33253461D01*
X101039223Y-33368191D01*
X100986421Y-33495667D01*
X100986418Y-33495677D01*
X100959500Y-33631008D01*
X100959500Y-33768991D01*
X100986418Y-33904322D01*
X100986421Y-33904332D01*
X101039223Y-34031808D01*
X101110499Y-34138481D01*
X101115886Y-34146542D01*
X101213458Y-34244114D01*
X101328189Y-34320775D01*
X101328190Y-34320775D01*
X101328191Y-34320776D01*
X101373422Y-34339511D01*
X101455672Y-34373580D01*
X101591007Y-34400500D01*
X101591009Y-34400500D01*
X101728991Y-34400500D01*
X101728993Y-34400500D01*
X101864328Y-34373580D01*
X101991811Y-34320775D01*
X102094388Y-34252234D01*
X102149936Y-34241185D01*
X102197028Y-34272650D01*
X102209500Y-34313763D01*
X102209500Y-37680903D01*
X102187826Y-37733229D01*
X102135500Y-37754903D01*
X102083174Y-37733229D01*
X102064668Y-37714723D01*
X102014052Y-37680903D01*
X101958127Y-37643535D01*
X101958124Y-37643533D01*
X101958123Y-37643533D01*
X101839742Y-37594498D01*
X101839739Y-37594497D01*
X101749696Y-37576586D01*
X101714069Y-37569500D01*
X100985931Y-37569500D01*
X100954726Y-37575707D01*
X100860260Y-37594497D01*
X100860257Y-37594498D01*
X100741876Y-37643533D01*
X100635331Y-37714723D01*
X100635330Y-37714725D01*
X100544725Y-37805330D01*
X100544723Y-37805331D01*
X100473533Y-37911876D01*
X100424498Y-38030257D01*
X100424497Y-38030260D01*
X100399500Y-38155932D01*
X100010500Y-38155932D01*
X100010500Y-30631007D01*
X100959500Y-30631007D01*
X100959500Y-30768993D01*
X100963579Y-30789500D01*
X100986418Y-30904322D01*
X100986421Y-30904332D01*
X101039223Y-31031808D01*
X101062145Y-31066114D01*
X101115886Y-31146542D01*
X101213458Y-31244114D01*
X101328189Y-31320775D01*
X101328190Y-31320775D01*
X101328191Y-31320776D01*
X101455667Y-31373578D01*
X101455672Y-31373580D01*
X101591007Y-31400500D01*
X101591009Y-31400500D01*
X101728991Y-31400500D01*
X101728993Y-31400500D01*
X101864328Y-31373580D01*
X101991811Y-31320775D01*
X102106542Y-31244114D01*
X102204114Y-31146542D01*
X102280775Y-31031811D01*
X102333580Y-30904328D01*
X102360500Y-30768993D01*
X102360500Y-30631007D01*
X102333580Y-30495672D01*
X102280775Y-30368189D01*
X102204114Y-30253458D01*
X102106542Y-30155886D01*
X101991811Y-30079225D01*
X101991810Y-30079224D01*
X101991808Y-30079223D01*
X101864332Y-30026421D01*
X101864322Y-30026418D01*
X101773694Y-30008391D01*
X101728993Y-29999500D01*
X101591007Y-29999500D01*
X101552642Y-30007131D01*
X101455677Y-30026418D01*
X101455667Y-30026421D01*
X101328191Y-30079223D01*
X101213461Y-30155883D01*
X101115883Y-30253461D01*
X101039223Y-30368191D01*
X100986421Y-30495667D01*
X100986418Y-30495677D01*
X100963945Y-30608656D01*
X100959500Y-30631007D01*
X100010500Y-30631007D01*
X100010500Y-24881907D01*
X103499500Y-24881907D01*
X103499500Y-25118092D01*
X103536446Y-25351365D01*
X103536449Y-25351378D01*
X103609429Y-25575986D01*
X103609431Y-25575991D01*
X103609432Y-25575992D01*
X103716657Y-25786433D01*
X103855483Y-25977510D01*
X104022490Y-26144517D01*
X104213567Y-26283343D01*
X104424008Y-26390568D01*
X104424010Y-26390568D01*
X104424013Y-26390570D01*
X104648621Y-26463550D01*
X104648627Y-26463551D01*
X104648632Y-26463553D01*
X104804149Y-26488184D01*
X104881907Y-26500500D01*
X104881908Y-26500500D01*
X105118093Y-26500500D01*
X105176411Y-26491263D01*
X105351368Y-26463553D01*
X105351375Y-26463550D01*
X105351378Y-26463550D01*
X105575986Y-26390570D01*
X105575986Y-26390569D01*
X105575992Y-26390568D01*
X105786433Y-26283343D01*
X105977510Y-26144517D01*
X106144517Y-25977510D01*
X106283343Y-25786433D01*
X106390568Y-25575992D01*
X106463553Y-25351368D01*
X106500500Y-25118092D01*
X106500500Y-24881908D01*
X106500500Y-24881907D01*
X171499500Y-24881907D01*
X171499500Y-25118092D01*
X171536446Y-25351365D01*
X171536449Y-25351378D01*
X171609429Y-25575986D01*
X171609431Y-25575991D01*
X171609432Y-25575992D01*
X171716657Y-25786433D01*
X171855483Y-25977510D01*
X172022490Y-26144517D01*
X172213567Y-26283343D01*
X172424008Y-26390568D01*
X172424010Y-26390568D01*
X172424013Y-26390570D01*
X172648621Y-26463550D01*
X172648627Y-26463551D01*
X172648632Y-26463553D01*
X172804149Y-26488184D01*
X172881907Y-26500500D01*
X172881908Y-26500500D01*
X173118093Y-26500500D01*
X173176411Y-26491263D01*
X173351368Y-26463553D01*
X173351375Y-26463550D01*
X173351378Y-26463550D01*
X173575986Y-26390570D01*
X173575986Y-26390569D01*
X173575992Y-26390568D01*
X173786433Y-26283343D01*
X173977510Y-26144517D01*
X174144517Y-25977510D01*
X174283343Y-25786433D01*
X174390568Y-25575992D01*
X174463553Y-25351368D01*
X174500500Y-25118092D01*
X174500500Y-24881908D01*
X174463553Y-24648632D01*
X174463551Y-24648627D01*
X174463550Y-24648621D01*
X174390570Y-24424013D01*
X174390568Y-24424010D01*
X174390568Y-24424008D01*
X174283343Y-24213567D01*
X174144517Y-24022490D01*
X173977510Y-23855483D01*
X173977507Y-23855480D01*
X173977505Y-23855479D01*
X173786432Y-23716656D01*
X173575986Y-23609429D01*
X173351378Y-23536449D01*
X173351365Y-23536446D01*
X173118093Y-23499500D01*
X173118092Y-23499500D01*
X172881908Y-23499500D01*
X172881907Y-23499500D01*
X172648634Y-23536446D01*
X172648621Y-23536449D01*
X172424013Y-23609429D01*
X172213567Y-23716656D01*
X172022494Y-23855479D01*
X171855479Y-24022494D01*
X171716656Y-24213567D01*
X171609429Y-24424013D01*
X171536449Y-24648621D01*
X171536446Y-24648634D01*
X171499500Y-24881907D01*
X106500500Y-24881907D01*
X106463553Y-24648632D01*
X106463551Y-24648627D01*
X106463550Y-24648621D01*
X106390570Y-24424013D01*
X106390568Y-24424010D01*
X106390568Y-24424008D01*
X106283343Y-24213567D01*
X106144517Y-24022490D01*
X105977510Y-23855483D01*
X105977507Y-23855480D01*
X105977505Y-23855479D01*
X105786432Y-23716656D01*
X105575986Y-23609429D01*
X105351378Y-23536449D01*
X105351365Y-23536446D01*
X105118093Y-23499500D01*
X105118092Y-23499500D01*
X104881908Y-23499500D01*
X104881907Y-23499500D01*
X104648634Y-23536446D01*
X104648621Y-23536449D01*
X104424013Y-23609429D01*
X104213567Y-23716656D01*
X104022494Y-23855479D01*
X103855479Y-24022494D01*
X103716656Y-24213567D01*
X103609429Y-24424013D01*
X103536449Y-24648621D01*
X103536446Y-24648634D01*
X103499500Y-24881907D01*
X100010500Y-24881907D01*
X100010500Y-20084500D01*
X100032174Y-20032174D01*
X100084500Y-20010500D01*
X177915500Y-20010500D01*
X177967826Y-20032174D01*
G37*
%TD.AperFunction*%
%TD*%
M02*
